<?xml version="1.0" encoding="utf-8"?>
<!-- Generator: Adobe Illustrator 17.0.0, SVG Export Plug-In . SVG Version: 6.00 Build 0)  -->
<!DOCTYPE svg PUBLIC "-//W3C//DTD SVG 1.1//EN" "http://www.w3.org/Graphics/SVG/1.1/DTD/svg11.dtd">
<svg version="1.1" xmlns="http://www.w3.org/2000/svg" xmlns:xlink="http://www.w3.org/1999/xlink" x="0px" y="0px" viewBox="0 0 500 500" enable-background="new 0 0 500 500" xml:space="preserve">
<g id="Guides">
</g>
<g id="Pinterest">
	<rect x="-4680" fill="#FFFFFF" width="500" height="500"/>
	<g>
		<path fill="#CB2128" d="M-4429.995,40c-84.904,0-153.742,68.832-153.742,153.74c0,62.952,37.855,117.034,92.024,140.811
			c-0.433-10.735-0.078-23.622,2.676-35.302c2.956-12.481,19.782-83.772,19.782-83.772s-4.912-9.816-4.912-24.325
			c0-22.782,13.205-39.798,29.65-39.798c13.983,0,20.739,10.503,20.739,23.081c0,14.058-8.965,35.085-13.576,54.56
			c-3.852,16.308,8.177,29.61,24.266,29.61c29.128,0,48.747-37.411,48.747-81.738c0-33.695-22.695-58.915-63.971-58.915
			c-46.636,0-75.688,34.778-75.688,73.625c0,13.394,3.949,22.84,10.135,30.154c2.844,3.36,3.239,4.711,2.209,8.569
			c-0.737,2.829-2.431,9.639-3.132,12.338c-1.023,3.894-4.178,5.286-7.698,3.848c-21.479-8.769-31.484-32.292-31.484-58.735
			c0-43.672,36.832-96.039,109.877-96.039c58.696,0,97.327,42.475,97.327,88.068c0,60.309-33.529,105.366-82.953,105.366
			c-16.598,0-32.21-8.973-37.558-19.163c0,0-8.926,35.422-10.816,42.261c-3.259,11.854-9.64,23.7-15.474,32.934
			c13.828,4.082,28.433,6.305,43.571,6.305c84.897,0,153.732-68.832,153.732-153.742C-4276.263,108.832-4345.098,40-4429.995,40z"/>
	</g>
	<g>
		<path fill="#CB2128" d="M-4543.477,403.25c4.554,0,8.922-3.791,9.683-8.469c0.899-4.553-2.189-8.343-6.739-8.343
			c-4.551,0-8.921,3.791-9.692,8.343C-4551.113,399.458-4548.153,403.25-4543.477,403.25z"/>
		<path fill="#CB2128" d="M-4234.454,416.781c0,0,9.993,0,10.187,0c1.396,0,2.213-0.567,2.529-1.87
			c0.45-1.875,1.27-5.148,1.503-6.043c0.302-1.173-0.381-2.061-1.681-2.061c-0.312,0-5.102,0-10.052,0
			c0.724-2.881,3.543-12.233,3.543-18.331c0-12.177-10.34-22.536-25.012-22.536c-16.57,0-27.35,11.12-27.35,26.768
			c0,4.564,1.702,9.884,3.813,13.184c-0.882-0.051-1.791-0.077-2.729-0.077c-12.591,0-20.521,6.83-20.521,16.768
			c0,9.327,7.354,12.952,14.276,15.363c6.149,2.143,11.811,3.14,11.811,7.944c0,3.239-3.115,5.139-9.212,5.139
			c-7.234,0-11.21-3.407-12.222-4.699c0.686-0.539,1.705-1.821,1.705-3.958c0-2.989-2.098-5.427-5.998-5.427
			c-3.299,0-6.088,2.69-6.788,6.23c-5.298,4.335-11.081,7.144-19.282,7.144c-8.075,0-12.267-4.201-12.267-13.138
			c1.893,0.575,6.823,1.268,10.081,1.268c13.672,0,22.993-6.213,22.993-18.654c0-6.69-5.873-13.717-17.493-13.717h-0.026
			c-15.283,0-23.843,9.681-27.58,20.329c-1.047-0.252-2.097-0.5-3.147-0.734c0.836-2.363,1.436-5.1,1.436-8.134
			c0-5.259-3.256-11.461-11.971-11.461c-6.07,0-11.829,3.976-15.82,9.936c0.992-3.887,1.65-6.476,1.694-6.65
			c0.259-1.017-0.164-2.149-1.749-2.149c-2.037,0-8.945,0-8.945,0c-1.274,0-2.174,0.45-2.537,1.902
			c-0.243,0.968-3.316,13.027-6.308,24.767c-1.885,7.321-11.633,16.434-23.885,16.434c-8.077,0-12.265-4.477-12.265-13.417
			c2.113,0.841,6.823,1.548,10.079,1.548c14.229,0,22.993-6.213,22.993-18.654c0-6.69-5.873-13.717-17.494-13.717h-0.025
			c-17.209,0-27.75,13.366-29.538,28.521c-0.743,6.3-6.061,14.951-11.825,14.951c-2.807,0-4.374-1.764-4.374-4.759
			c0-2.587,1.821-8.91,3.816-16.835c0.668-2.651,1.683-6.694,2.807-11.177c5.081,0,9.162,0,9.356,0c1.393,0,2.21-0.567,2.526-1.87
			c0.448-1.875,1.269-5.148,1.502-6.043c0.302-1.173-0.376-2.061-1.681-2.061c-0.308,0-9.2,0-9.2,0s4.235-16.9,4.336-17.334
			c0.408-1.719-1.029-2.71-2.535-2.394c0,0-7.111,1.392-8.43,1.667c-1.326,0.268-2.354,0.996-2.833,2.907
			c-0.061,0.244-3.766,15.153-3.766,15.153s-7.218,0-7.387,0c-1.392,0-2.21,0.568-2.523,1.868c-0.45,1.873-1.274,5.149-1.502,6.044
			c-0.306,1.173,0.377,2.061,1.68,2.061c0.266,0,3.302,0,7.245,0c-0.052,0.207-2.617,9.966-4.691,18.704
			c-0.977,4.202-4.248,14.034-9.604,14.034c-3.199,0-4.552-1.613-4.552-5.076c0-5.452,5.367-19.1,5.367-25.293
			c0-8.272-4.438-13.065-13.53-13.065c-5.731,0-11.674,3.7-14.191,6.948c0,0,0.763-2.658,1.025-3.681
			c0.279-1.08-0.3-2.14-1.718-2.14c-2.032,0-6.96,0-8.89,0c-1.892,0-2.415,1.011-2.692,2.124c-0.11,0.446-3.313,13.026-6.389,25.1
			c-2.104,8.269-7.214,15.178-12.678,15.178c-2.81,0-4.061-1.763-4.061-4.758c0-2.588,1.672-8.972,3.667-16.897
			c2.427-9.648,4.568-17.591,4.797-18.52c0.298-1.19-0.233-2.226-1.766-2.226c-1.922,0-6.912,0-8.944,0
			c-1.619,0-2.199,0.85-2.54,2.031c0,0-2.517,9.529-5.183,20.136c-1.936,7.698-4.074,15.54-4.074,19.223
			c0,6.575,2.953,11.53,11.067,11.53c6.264,0,11.221-3.176,15.006-7.222c-0.557,2.19-0.911,3.577-0.947,3.718
			c-0.327,1.252,0.068,2.36,1.544,2.36c2.032,0,7.148,0,9.151,0c1.593,0,2.206-0.641,2.538-2.03
			c0.32-1.325,7.156-28.211,7.156-28.211c1.807-7.223,6.274-12.004,12.562-12.004c2.981,0,5.562,1.974,5.261,5.81
			c-0.332,4.221-5.421,19.379-5.421,26.033c0,5.036,1.867,11.551,11.348,11.551c6.462,0,11.219-3.098,14.678-7.096
			c1.267,4.243,4.623,7.096,10.777,7.096c10.229,0,16.395-6.067,20.018-12.161c3.005,7.08,10.046,12.159,20.37,12.159
			c10.523,0,18.666-4.436,24.437-10.467c-1.037,4.067-1.74,6.828-1.8,7.059c-0.328,1.272,0.226,2.271,1.719,2.271
			c1.992,0,8.198,0,9.058,0c1.24,0,2.123-0.631,2.445-1.934c0.159-0.64,1.468-5.697,3.316-12.883
			c3.535-13.752,9.218-28.02,17.754-28.02c3.011,0,4.246,1.683,4.246,4.335c0,1.25-0.363,2.331-0.677,2.91
			c-4.139-0.823-7.468,1.22-7.468,5.639c0,2.879,3.029,5.495,7.118,5.495c3.124,0,5.707-0.765,7.767-2.153
			c1.924,0.396,3.99,0.846,6.068,1.321c-0.318,2.067-0.476,4.099-0.476,6.027c0,11.038,7.882,20.399,22.01,20.399
			c11.07,0,18.667-4.049,25.226-9.241c3.152,5.158,11.112,9.326,21.555,9.326c14.312,0,22.43-7.443,22.43-17.28
			c0-8.902-7.31-12.181-14.847-14.908c-6.126-2.214-11.238-3.417-11.238-7.748c0-3.55,2.795-5.173,7.584-5.173
			c3.107,0,5.44,0.669,6.686,1.019c1.236,3.092,3.792,6.516,8.156,6.516c3.693,0,5.352-2.92,5.352-5.611
			c0-7.657-12.754-8.459-12.754-24.88c0-10.211,5.778-18.634,17.745-18.634c8.314,0,13.744,5.272,13.744,13.782
			c0,7.016-4.256,19.506-4.256,19.506s-7.063,0-7.232,0c-1.39,0-2.21,0.568-2.524,1.868c-0.45,1.873-1.273,5.149-1.505,6.044
			c-0.304,1.173,0.378,2.061,1.682,2.061c0.264,0,7.062,0,7.062,0s-7.301,26.924-7.301,31.821c0,6.575,3.705,11.528,11.824,11.528
			c11.484,0,18.659-7.462,21.78-18.313c0.243-0.839-0.233-1.523-1.083-1.523c-1.472,0-3.708,0-4.381,0
			c-0.875,0-1.382,0.499-1.603,1.354c-0.99,3.851-3.442,7.905-8.272,7.905c-2.807,0-4.374-1.764-4.374-4.759
			c0-2.587,1.712-8.643,3.819-16.835C-4236.241,424.058-4234.454,416.781-4234.454,416.781z M-4324.998,416.321
			c4.061,0,5.99,2.701,5.99,5.921c0,5.446-4.224,8.766-10.829,8.766c-2.365,0-5.67-0.561-7.621-1.21
			C-4336.637,424.789-4333.012,416.321-4324.998,416.321z M-4420.521,416.321c4.444,0,5.988,2.701,5.988,5.921
			c0,5.446-4.222,8.766-10.827,8.766c-2.365,0-5.669-0.561-7.621-1.21C-4432.164,424.789-4428.95,416.321-4420.521,416.321z"/>
		<path fill="#CB2128" d="M-4596.25,365.823c-28.976,0-43.585,20.775-43.585,38.098c0,10.489,3.971,19.821,12.489,23.299
			c1.396,0.571,2.648,0.02,3.053-1.527c0.282-1.071,0.948-3.771,1.246-4.894c0.408-1.53,0.25-2.066-0.877-3.399
			c-2.456-2.897-4.026-6.648-4.026-11.96c0-15.413,11.532-29.21,30.027-29.21c16.378,0,25.376,10.007,25.376,23.372
			c0,17.585-7.782,32.426-19.335,32.426c-6.38,0-11.156-5.276-9.625-11.747c1.833-7.726,5.384-16.064,5.384-21.641
			c0-4.992-2.679-9.156-8.225-9.156c-6.522,0-11.761,6.747-11.761,15.786c0,5.756,1.945,9.65,1.945,9.65s-6.674,28.28-7.844,33.232
			c-2.331,9.863-0.351,21.955-0.183,23.176c0.098,0.724,1.028,0.896,1.449,0.349c0.602-0.785,8.37-10.376,11.011-19.957
			c0.747-2.713,4.29-16.764,4.29-16.764c2.119,4.042,8.312,7.602,14.897,7.602c19.605,0,32.906-17.873,32.906-41.797
			C-4557.641,382.671-4572.963,365.823-4596.25,365.823z"/>
	</g>
</g>
<g id="Prezi">
	<rect x="-4160" fill="#FFFFFF" width="500" height="500"/>
	<g>
		<path fill="#007DAF" d="M-4083.893,345.955c-19.942,0-36.107,17.304-36.107,38.649v67.258c0,0-0.141,5.995,4.868,5.995
			c5.008,0,4.527-5.995,4.527-5.995c0-15.852,12.512-28.704,27.947-28.704c0.305,0,0.606,0.014,0.909,0.024
			c18.942-1.189,33.962-18.003,33.962-38.578C-4047.786,363.259-4063.951,345.955-4083.893,345.955z M-4083.893,413.381
			c-14.81,0-26.816-12.851-26.816-28.705c0-15.852,12.006-28.704,26.816-28.704c14.81,0,26.816,12.852,26.816,28.704
			C-4057.077,400.53-4069.082,413.381-4083.893,413.381z"/>
		<path fill="#007DAF" d="M-3951.554,453.626h-0.002c-0.336-8.231-3.597-15.647-8.698-21.098l-0.004-0.018
			c-0.072-0.059-0.123-0.121-0.189-0.179c-0.266-0.28-0.532-0.557-0.807-0.825c-2.479-2.961-1.024-6.239-0.189-7.629
			c5.595-5.795,9.088-13.953,9.088-23.006c0-17.578-13.141-31.83-29.355-31.83c-16.215,0-29.356,14.252-29.356,31.83v51.858h0.082
			c-0.02,0.297-0.019,0.598-0.032,0.897h0.034c0,0-0.144,6.102,4.953,6.102c5.099,0,4.608-6.102,4.608-6.102h0.031
			c0.014-0.271,0.012-0.547,0.035-0.817c0.004-0.054,0.006-0.11,0.01-0.166c0.057-0.632,0.139-1.256,0.242-1.871
			c0.012-0.08,0.025-0.162,0.039-0.243c0.107-0.597,0.236-1.187,0.384-1.766c0.022-0.09,0.045-0.179,0.069-0.268
			c0.153-0.573,0.327-1.137,0.521-1.689c0.03-0.087,0.06-0.171,0.092-0.256c0.201-0.553,0.419-1.096,0.657-1.628
			c0.032-0.071,0.066-0.142,0.1-0.213c0.25-0.541,0.516-1.07,0.803-1.583c0.026-0.046,0.053-0.09,0.078-0.136
			c0.305-0.536,0.626-1.058,0.97-1.562c0.004-0.004,0.006-0.009,0.01-0.014c0.359-0.526,0.739-1.033,1.138-1.521
			c0.004-0.005,0.008-0.01,0.011-0.015c0.386-0.472,0.795-0.926,1.217-1.36c0.027-0.028,0.054-0.058,0.08-0.084
			c0.413-0.42,0.842-0.82,1.286-1.202c0.039-0.034,0.078-0.069,0.118-0.103c0.442-0.375,0.897-0.728,1.365-1.061
			c0.047-0.031,0.091-0.064,0.137-0.097c0.472-0.33,0.957-0.64,1.455-0.927c0.042-0.024,0.084-0.048,0.127-0.071
			c0.509-0.289,1.029-0.556,1.562-0.797c0.028-0.013,0.055-0.024,0.083-0.036c1.685-0.753,3.482-1.264,5.357-1.492
			c0.005,0,0.009-0.002,0.012-0.002c0.001,0,0.002,0,0.002,0c0.729-0.087,1.469-0.136,2.218-0.136c1.258,0,2.488,0.133,3.681,0.375
			c0.006,0.001,0.011,0.002,0.016,0.002c0.62,0.127,1.229,0.285,1.828,0.472c0.01,0.004,0.02,0.006,0.03,0.009
			c0.596,0.188,1.181,0.404,1.754,0.648c0.009,0.004,0.019,0.009,0.029,0.013c0.573,0.247,1.134,0.521,1.681,0.822
			c0.005,0.001,0.009,0.004,0.012,0.006c2.206,1.216,4.181,2.86,5.836,4.839c0.006,0.008,0.014,0.016,0.021,0.024
			c0.394,0.473,0.769,0.966,1.125,1.475c0.025,0.038,0.053,0.073,0.078,0.11c0.34,0.493,0.661,1.002,0.965,1.526
			c0.034,0.059,0.068,0.117,0.102,0.176c0.292,0.513,0.563,1.042,0.817,1.582c0.035,0.074,0.069,0.148,0.104,0.223
			c0.245,0.537,0.471,1.086,0.676,1.648c0.03,0.081,0.059,0.163,0.088,0.245c0.201,0.565,0.381,1.139,0.54,1.725
			c0.022,0.081,0.041,0.162,0.064,0.243c0.154,0.596,0.289,1.199,0.399,1.815c0.012,0.07,0.022,0.139,0.034,0.21
			c0.108,0.634,0.195,1.275,0.252,1.924c0.004,0.045,0.006,0.092,0.01,0.137c0.023,0.286,0.021,0.578,0.038,0.866h0.008
			c0,0-0.142,6.046,4.909,6.046C-3951.069,459.671-3951.554,453.626-3951.554,453.626z M-3981.214,423.188
			c-11.173,0-20.229-9.991-20.229-22.316c0-12.323,9.057-22.314,20.229-22.314c11.174,0,20.231,9.991,20.231,22.314
			C-3960.983,413.197-3970.04,423.188-3981.214,423.188z"/>
		<path fill="#007DAF" d="M-3700.294,375.27c0,0,0.489-6.101-4.608-6.101c-5.097,0-4.954,6.101-4.954,6.101v78.355
			c0,0-0.143,6.102,4.954,6.102c5.097,0,4.608-6.102,4.608-6.102V375.27z"/>
		<path fill="#007DAF" d="M-3876.977,369.041c-15.939,0-28.858,14.252-28.858,31.83v27.296c0,17.58,12.919,31.833,28.858,31.833
			c8.083,0,15.384-3.672,20.621-9.58l0.008,0.005c0.322-0.373,3.88-4.644,0.378-7.649c-3.409-2.923-6.76,1.115-7.216,1.701l0,0
			c-3.613,3.721-8.456,6.004-13.79,6.004c-7.651,0-14.308-4.686-17.745-11.596h0.012c-0.361-0.777-0.57-1.64-0.57-2.553
			c0-3.346,2.711-6.057,6.057-6.057c0.665,0,1.3,0.116,1.899,0.314c0.805,0.341,1.63,0.644,2.468,0.906
			c0.006,0.001,0.013,0.004,0.02,0.006c0.39,0.121,0.783,0.233,1.179,0.337c0.062,0.016,0.122,0.031,0.183,0.047
			c0.354,0.09,0.709,0.174,1.068,0.25c0.115,0.025,0.232,0.045,0.348,0.069c0.315,0.062,0.631,0.122,0.949,0.172
			c0.175,0.028,0.351,0.05,0.527,0.074c0.27,0.036,0.539,0.075,0.812,0.105c0.254,0.026,0.508,0.043,0.764,0.064
			c0.206,0.015,0.408,0.035,0.614,0.046c0.469,0.025,0.939,0.04,1.415,0.04c0.479,0,0.957-0.015,1.433-0.04
			c0.176-0.01,0.349-0.029,0.524-0.041c0.295-0.021,0.591-0.043,0.882-0.074c0.223-0.024,0.444-0.058,0.666-0.086
			c0.238-0.033,0.477-0.062,0.713-0.1c0.253-0.041,0.503-0.09,0.754-0.138c0.198-0.039,0.398-0.075,0.595-0.118
			c0.277-0.059,0.551-0.127,0.824-0.196c0.163-0.04,0.327-0.08,0.489-0.124c0.301-0.082,0.6-0.169,0.897-0.261
			c0.125-0.039,0.252-0.078,0.376-0.118c0.326-0.107,0.65-0.218,0.972-0.337c0.086-0.033,0.173-0.064,0.26-0.097
			c0.355-0.134,0.706-0.277,1.055-0.427c0.042-0.017,0.082-0.035,0.122-0.053c9.337-4.056,16.296-13.319,17.927-24.553
			c0-0.006,0.002-0.011,0.002-0.017c0.072-0.497,0.132-0.996,0.182-1.5c0.008-0.06,0.016-0.119,0.021-0.181
			c0.044-0.462,0.076-0.927,0.102-1.395c0.006-0.098,0.015-0.193,0.02-0.292c0.026-0.558,0.041-1.12,0.041-1.686
			C-3848.119,383.293-3861.038,369.041-3876.977,369.041z M-3856.839,402.984c-0.001,0.011-0.002,0.023-0.004,0.035
			c-0.062,0.7-0.152,1.39-0.27,2.069c-0.112,0.647-0.251,1.283-0.413,1.908c-0.004,0.014-0.006,0.029-0.01,0.044
			c-0.163,0.625-0.349,1.238-0.56,1.841c-0.004,0.012-0.009,0.025-0.013,0.036c-0.001,0.004-0.002,0.007-0.004,0.011
			c-0.135,0.383-0.279,0.76-0.432,1.132c-0.01,0.026-0.02,0.05-0.03,0.074c-0.646,1.563-1.451,3.027-2.394,4.371
			c-0.23,0.327-0.467,0.647-0.711,0.96c-0.004,0.005-0.009,0.011-0.014,0.017c-1.226,1.558-2.642,2.927-4.21,4.062
			c-0.036,0.026-0.073,0.053-0.11,0.078c-0.266,0.191-0.537,0.373-0.81,0.549c-0.06,0.038-0.119,0.075-0.179,0.113
			c-0.26,0.164-0.524,0.32-0.793,0.47c-0.062,0.036-0.127,0.074-0.191,0.108c-0.287,0.158-0.577,0.307-0.871,0.449
			c-0.043,0.021-0.083,0.043-0.125,0.063c-0.677,0.322-1.375,0.605-2.09,0.846c-0.079,0.026-0.161,0.049-0.24,0.075
			c-0.267,0.085-0.538,0.167-0.809,0.241c-0.119,0.033-0.238,0.063-0.359,0.092c-0.238,0.06-0.477,0.115-0.718,0.167
			c-0.134,0.028-0.268,0.054-0.401,0.078c-0.237,0.044-0.474,0.083-0.713,0.117c-0.134,0.02-0.268,0.041-0.404,0.058
			c-0.255,0.031-0.512,0.054-0.768,0.075c-0.12,0.009-0.238,0.021-0.359,0.03c-0.376,0.023-0.755,0.036-1.135,0.036
			c-0.381,0-0.76-0.014-1.135-0.036c-0.122-0.009-0.24-0.021-0.359-0.03c-0.257-0.021-0.514-0.044-0.769-0.075
			c-0.134-0.016-0.269-0.038-0.404-0.058c-0.238-0.034-0.476-0.073-0.711-0.117c-0.134-0.024-0.268-0.05-0.401-0.078
			c-0.241-0.051-0.48-0.107-0.719-0.167c-0.119-0.029-0.24-0.059-0.359-0.092c-0.271-0.074-0.542-0.155-0.809-0.241
			c-0.079-0.026-0.161-0.049-0.24-0.075c-0.715-0.241-1.412-0.523-2.09-0.846c-0.041-0.02-0.083-0.041-0.124-0.063
			c-0.294-0.142-0.585-0.291-0.872-0.449c-0.064-0.034-0.127-0.072-0.191-0.108c-0.267-0.151-0.532-0.306-0.793-0.47
			c-0.06-0.038-0.118-0.075-0.179-0.113c-0.273-0.177-0.543-0.359-0.811-0.549c-0.036-0.025-0.074-0.051-0.11-0.078
			c-1.568-1.135-2.985-2.504-4.21-4.062c-0.004-0.006-0.009-0.012-0.014-0.017c-0.245-0.312-0.482-0.632-0.711-0.96
			c-0.942-1.344-1.746-2.808-2.394-4.371c-0.01-0.024-0.02-0.048-0.03-0.074c-0.152-0.371-0.296-0.749-0.431-1.132
			c0-0.004-0.002-0.008-0.004-0.011c-0.004-0.011-0.009-0.024-0.012-0.036c-0.21-0.602-0.395-1.216-0.558-1.841
			c-0.005-0.015-0.008-0.03-0.011-0.044c-0.162-0.625-0.3-1.261-0.413-1.908c-0.117-0.679-0.208-1.369-0.27-2.069
			c-0.001-0.013-0.001-0.024-0.002-0.035c-0.06-0.695-0.093-1.399-0.093-2.111c0-12.323,9.056-22.314,20.231-22.314
			c11.173,0,20.229,9.991,20.229,22.314C-3856.748,401.585-3856.779,402.289-3856.839,402.984z"/>
		<path fill="#007DAF" d="M-3761.291,451.241h-12.594c-0.522-0.021-0.871,0-0.871,0h-15.915h-0.583c-4.51,0-8.166-3.687-8.166-8.239
			c0-1.919,0.656-3.681,1.748-5.082h-0.029l18.249-23.186h0.005l21.695-27.566l-0.015-0.011c1.501-1.824,2.404-4.16,2.404-6.707
			c0-5.832-4.728-10.559-10.56-10.559v-0.016h-2.82h-1.776h-8.87h-7.046h-0.085h-0.024h-13.356c0,0-6.102-0.122-6.102,4.179
			c0,4.301,6.102,3.888,6.102,3.888h12.594c0.522,0.021,0.871,0,0.871,0h7.046h0.583c4.51,0,8.166,3.686,8.166,8.238
			c0,1.919-0.656,3.681-1.748,5.081h0.029l-18.249,23.187h-0.005l-21.695,27.566l0.015,0.011c-1.502,1.824-2.404,4.16-2.404,6.707
			c0,5.832,4.729,10.561,10.56,10.561v0.015h13.466h15.915c0,0,0.032,0,0.085,0h13.38c0,0,6.101,0.122,6.101-4.179
			C-3755.19,450.827-3761.291,451.241-3761.291,451.241z"/>
	</g>
	<g>
		<path opacity="0.47" fill="#007DAF" d="M-3961.333,186.805c0,12.598,4.623,24.111,12.251,32.957v-65.914
			C-3956.71,162.695-3961.333,174.206-3961.333,186.805z"/>
		<path opacity="0.47" fill="#007DAF" d="M-3938.756,144.723v84.163c3.852,2.562,8.075,4.609,12.572,6.043V138.68
			C-3930.681,140.115-3934.904,142.162-3938.756,144.723z"/>
		<path opacity="0.47" fill="#007DAF" d="M-3860.311,186.805c0-11.373-3.761-21.865-10.103-30.308v60.617
			C-3864.072,208.671-3860.311,198.178-3860.311,186.805z"/>
		<path opacity="0.47" fill="#007DAF" d="M-3880.292,227.038v-80.466c-3.803-2.892-8.031-5.251-12.572-6.979v94.424
			C-3888.323,232.289-3884.096,229.93-3880.292,227.038z"/>
		<path opacity="0.47" fill="#007DAF" d="M-3904.536,136.698c-2.061-0.256-4.156-0.403-6.285-0.403
			c-2.131,0-4.226,0.148-6.286,0.403v100.215c2.061,0.255,4.155,0.402,6.286,0.402c2.13,0,4.224-0.147,6.285-0.402V136.698z"/>
		<path fill="#007DAF" d="M-3910.099,117.553c-38.279,0-69.311,31.032-69.311,69.309c0,38.279,31.031,69.31,69.311,69.31
			c38.279,0,69.311-31.031,69.311-69.31C-3840.788,148.585-3871.82,117.553-3910.099,117.553z M-3910.099,248.091
			c-33.815,0-61.229-27.413-61.229-61.229c0-33.815,27.414-61.228,61.229-61.228c33.816,0,61.229,27.413,61.229,61.228
			C-3848.87,220.678-3876.282,248.091-3910.099,248.091z"/>
		<path fill="#007DAF" d="M-3910.099,100.491c-47.702,0-86.373,38.67-86.373,86.371c0,47.702,38.67,86.372,86.373,86.372
			c47.702,0,86.372-38.671,86.372-86.372C-3823.727,139.162-3862.397,100.491-3910.099,100.491z M-3910.099,265.152
			c-43.238,0-78.289-35.052-78.289-78.29c0-43.237,35.05-78.289,78.289-78.289c43.238,0,78.289,35.052,78.289,78.289
			C-3831.81,230.101-3866.861,265.152-3910.099,265.152z"/>
		<path fill="#007DAF" d="M-3910.099,83.43c-57.124,0-103.432,46.308-103.432,103.432c0,57.126,46.308,103.434,103.432,103.434
			c57.124,0,103.432-46.308,103.432-103.434C-3806.667,129.738-3852.975,83.43-3910.099,83.43z M-3910.099,281.765
			c-52.413,0-94.901-42.489-94.901-94.903c0-52.411,42.488-94.901,94.901-94.901c52.413,0,94.901,42.49,94.901,94.901
			C-3815.198,239.276-3857.686,281.765-3910.099,281.765z"/>
		<polygon opacity="0.47" fill="#007DAF" points="-3910.046,72.45 -3897.242,72.766 -3893.923,40.853 -3910.724,40.437 		"/>
		<polygon opacity="0.47" fill="#007DAF" points="-3885.911,75.019 -3873.383,77.675 -3864.278,46.906 -3880.717,43.422 		"/>
		<polygon opacity="0.47" fill="#007DAF" points="-3863.636,82.127 -3852.167,87.825 -3835.671,60.304 -3850.722,52.827 		"/>
		<polygon opacity="0.47" fill="#007DAF" points="-3842.645,94.306 -3832.361,101.939 -3811.266,77.761 -3824.761,67.746 		"/>
		<polygon opacity="0.47" fill="#007DAF" points="-3825.035,110.384 -3816.605,120.027 -3790.86,100.877 -3801.921,88.226 		"/>
		<polygon opacity="0.47" fill="#007DAF" points="-3811.215,129.312 -3805.141,140.588 -3775.782,127.644 -3783.752,112.849 		"/>
		<polygon opacity="0.47" fill="#007DAF" points="-3801.216,150.865 -3797.96,163.253 -3766.382,157.571 -3770.651,141.318 		"/>
		<polygon opacity="0.47" fill="#007DAF" points="-3796.13,174.377 -3795.384,187.164 -3763.303,187.823 -3764.281,171.048 		"/>
		<polygon opacity="0.47" fill="#007DAF" points="-3796.387,198.942 -3797.596,211.692 -3765.991,217.23 -3764.405,200.5 		"/>
		<polygon opacity="0.47" fill="#007DAF" points="-3800.848,221.693 -3805.279,233.711 -3776.142,247.147 -3770.329,231.379 		"/>
		<polygon opacity="0.47" fill="#007DAF" points="-3811.116,244.289 -3817.339,255.482 -3790.611,273.235 -3782.446,258.547 		"/>
		<polygon opacity="0.47" fill="#007DAF" points="-3824.897,263.187 -3833.8,272.395 -3812.557,296.441 -3800.879,284.361 		"/>
		<polygon opacity="0.47" fill="#007DAF" points="-3842.448,279.256 -3852.988,286.534 -3836.889,314.291 -3823.063,304.741 		"/>
		<polygon opacity="0.47" fill="#007DAF" points="-3862.34,291.15 -3874.366,295.558 -3865.729,326.462 -3849.952,320.678 		"/>
		<polygon opacity="0.47" fill="#007DAF" points="-3885.086,298.696 -3897.755,300.569 -3895.583,332.58 -3878.957,330.126 		"/>
		<polygon opacity="0.47" fill="#007DAF" points="-3909.974,301.29 -3922.778,300.961 -3926.125,332.874 -3909.326,333.304 		"/>
		<polygon opacity="0.47" fill="#007DAF" points="-3933.641,298.853 -3946.046,295.671 -3956.445,326.025 -3940.167,330.202 		"/>
		<polygon opacity="0.47" fill="#007DAF" points="-3956.445,291.668 -3968.022,286.19 -3983.989,314.021 -3968.799,321.208 		"/>
		<polygon opacity="0.47" fill="#007DAF" points="-3977.242,279.696 -3987.415,271.915 -4008.857,295.785 -3995.51,305.994 		"/>
		<polygon opacity="0.47" fill="#007DAF" points="-3995.164,263.283 -4003.68,253.716 -4029.252,273.097 -4018.078,285.648 		"/>
		<polygon opacity="0.47" fill="#007DAF" points="-4009.09,244.769 -4014.97,233.393 -4044.548,245.835 -4036.83,260.763 		"/>
		<polygon opacity="0.47" fill="#007DAF" points="-4019.084,222.822 -4022.248,210.41 -4053.867,215.861 -4049.719,232.144 		"/>
		<polygon opacity="0.47" fill="#007DAF" points="-4024.237,199.731 -4024.643,186.929 -4056.697,185.421 -4056.161,202.215 		"/>
		<polygon opacity="0.47" fill="#007DAF" points="-4023.891,174.924 -4022.127,162.238 -4053.46,155.329 -4055.775,171.974 		"/>
		<polygon opacity="0.47" fill="#007DAF" points="-4019.111,151.822 -4014.769,139.775 -4044.001,126.547 -4049.701,142.356 		"/>
		<polygon opacity="0.47" fill="#007DAF" points="-4009.248,129.95 -4002.442,119.1 -4028.195,99.961 -4037.126,114.197 		"/>
		<polygon opacity="0.47" fill="#007DAF" points="-3995.364,110.542 -3986.538,101.26 -4007.973,77.385 -4019.554,89.561 		"/>
		<polygon opacity="0.47" fill="#007DAF" points="-3977.487,94.254 -3966.957,86.963 -3983.086,59.225 -3996.903,68.792 		"/>
		<polygon opacity="0.47" fill="#007DAF" points="-3956.792,82.392 -3944.837,77.795 -3953.96,47.031 -3969.643,53.064 		"/>
		<polygon opacity="0.47" fill="#007DAF" points="-3934.383,74.932 -3921.752,72.827 -3924.517,40.859 -3941.093,43.624 		"/>
	</g>
</g>
<g id="SkyDrive">
	<rect x="-3640" fill="#FFFFFF" width="500" height="500"/>
	<g>
		<path fill="#094AB1" d="M-3307.315,381.614c-3.549-1.312-3.734-6.211-0.285-7.414c2.933-1.021,5.223,0.317,5.503,3.213
			C-3301.758,380.929-3304.088,382.807-3307.315,381.614z"/>
		<path fill="#094AB1" d="M-3599.321,456.277v-6.873c6.244,3.972,12.568,5.96,18.978,5.96c6.812,0,11.98-1.409,15.509-4.228
			c3.526-2.818,5.292-6.762,5.292-11.831c0-4.46-1.187-8.018-3.56-10.674c-2.37-2.656-7.511-6.274-15.418-10.858
			c-8.84-5.15-14.434-9.458-16.787-12.925c-2.35-3.467-3.529-7.471-3.529-12.012c0-6.164,2.393-11.395,7.177-15.693
			c4.786-4.297,11.173-6.447,19.16-6.447c5.192,0,10.381,0.871,15.572,2.616v6.325c-5.109-2.312-10.563-3.467-16.362-3.467
			c-5.922,0-10.614,1.501-14.08,4.501c-3.469,3.001-5.2,6.812-5.2,11.435c0,4.46,1.184,8.008,3.557,10.644
			c2.373,2.636,7.491,6.224,15.358,10.766c8.15,4.623,13.575,8.728,16.271,12.317c2.696,3.59,4.045,7.716,4.045,12.379
			c0,6.691-2.322,12.145-6.966,16.361c-4.641,4.217-11.202,6.325-19.677,6.325c-3.001,0-6.456-0.466-10.369-1.398
			C-3594.264,458.567-3597.253,457.493-3599.321,456.277z"/>
		<polygon fill="#094AB1" points="-3508.425,459.378 -3538.228,428.601 -3538.471,428.601 -3538.471,459.378 -3544.067,459.378 
			-3544.067,367.168 -3538.471,367.168 -3538.471,426.595 -3538.228,426.595 -3509.945,397.094 -3502.708,397.094 
			-3532.267,427.264 -3500.335,459.378 		"/>
		<path fill="#094AB1" d="M-3466.712,472.09c-2.271,5.595-4.784,9.751-7.542,12.468c-2.758,2.717-6.304,4.076-10.643,4.076
			c-1.826,0-3.449-0.284-4.867-0.851v-5.597c1.461,0.568,3.164,0.851,5.109,0.851c4.986,0,8.92-3.446,11.798-10.339l5.779-13.808
			l-23.599-61.797h6.264l18.795,50.728c0.405,1.095,0.688,1.926,0.85,2.493c0.163,0.77,0.345,1.459,0.548,2.068h0.245l1.458-4.196
			l20.073-51.093h6.082L-3466.712,472.09z"/>
		<path fill="#094AB1" d="M-3427.025,459.378v-87.222h21.833c14.477,0,25.485,3.61,33.027,10.827
			c7.542,7.218,11.313,17.74,11.313,31.568c0,13.301-4.045,24.096-12.135,32.389c-8.087,8.292-19.249,12.439-33.48,12.439H-3427.025
			z M-3421.006,377.691v76.212h13.687c12.937,0,22.869-3.355,29.803-10.065c6.935-6.711,10.4-16.392,10.4-29.045
			c0-24.735-12.996-37.102-38.986-37.102H-3421.006z"/>
		<path fill="#094AB1" d="M-3320.465,402.933c-1.866-1.338-4.056-2.008-6.569-2.008c-4.907,0-9.023,2.535-12.349,7.604
			c-3.323,5.069-4.986,12.266-4.986,21.593v29.256h-5.474v-62.283h5.474v13.806h0.242c1.421-4.744,3.671-8.434,6.752-11.069
			c3.081-2.636,6.649-3.954,10.706-3.954c2.311,0,4.379,0.365,6.204,1.094V402.933z"/>
		<path fill="#094AB1" d="M-3305.991,381.401c-1.215,0-2.291-0.445-3.223-1.338c-0.933-0.892-1.398-2.027-1.398-3.406
			c0-1.338,0.477-2.423,1.429-3.253c0.953-0.831,2.017-1.248,3.192-1.248c1.258,0,2.362,0.406,3.318,1.217
			c0.953,0.812,1.429,1.906,1.429,3.285c0,1.298-0.468,2.413-1.4,3.346C-3303.578,380.935-3304.693,381.401-3305.991,381.401z
			 M-3308.727,459.378v-62.283h5.597v62.283H-3308.727z"/>
		<path fill="#094AB1" d="M-3262.744,459.378h-5.109l-24.087-62.283h6.264l18.553,49.571c0.89,2.393,1.52,4.563,1.885,6.508h0.243
			c0.527-2.555,1.115-4.643,1.763-6.264l19.161-49.815h6.082L-3262.744,459.378z"/>
		<path fill="#094AB1" d="M-3226.781,428.479c0,8.556,1.974,15.247,5.927,20.073c3.954,4.824,9.379,7.237,16.271,7.237
			c6.975,0,13.786-2.574,20.438-7.725v5.96c-6.45,4.583-13.646,6.873-21.594,6.873c-8.03,0-14.517-2.878-19.463-8.637
			c-4.946-5.756-7.422-13.888-7.422-24.389c0-9.083,2.587-16.736,7.756-22.961c5.172-6.224,11.893-9.336,20.165-9.336
			c7.745,0,13.684,2.717,17.82,8.15c4.136,5.434,6.204,12.853,6.204,22.262v2.493H-3226.781z M-3186.518,423.37
			c-0.242-7.178-1.965-12.753-5.169-16.727c-3.206-3.974-7.625-5.96-13.261-5.96c-5.839,0-10.674,1.957-14.505,5.869
			c-3.831,3.914-6.196,9.519-7.085,16.818H-3186.518z"/>
	</g>
	<path fill="#094AB1" d="M-3446.866,174.89c0,0-55.765,6.299-55.835,52.756c-0.07,46.457,31.426,60.097,55.835,59.97
		s211.811-0.914,226.772-0.914s40.819-8.615,40.094-44.465s-39.307-45.299-39.307-45.299s-6.232-87.615-91.305-55.619
		c0,0-31.97-43.233-79.388-32.39S-3446.866,174.89-3446.866,174.89z"/>
	<path fill="#094AB1" d="M-3512.22,269.378c0,0-36.192-85.479,51.195-106.125c0,0,15.927-52.738,58.744-66.22
		s74.006,2.131,96.207,25.821c0,0,13.408-5.187,25.408-6.187c0,0-14.833-76.667-87.333-76.667c-49.5,0-80.5,45.5-80.5,45.5
		s-88.5-40-102.5,70.5c0,0-48.5,9.5-49,54.5s41,59.581,55,59.541C-3531,270-3512.22,269.378-3512.22,269.378z"/>
</g>
<g id="Dropbox">
	<rect x="-3120" fill="#FFFFFF" width="500" height="500"/>
	<g>
		<linearGradient id="SVGID_1_" gradientUnits="userSpaceOnUse" x1="-2988.908" y1="459.928" x2="-2986.4307" y2="388.9858">
			<stop  offset="0.5399" style="stop-color:#231F20"/>
			<stop  offset="0.6805" style="stop-color:#312E2F"/>
			<stop  offset="0.9514" style="stop-color:#575656"/>
			<stop  offset="1" style="stop-color:#5E5E5E"/>
		</linearGradient>
		<path fill="url(#SVGID_1_)" stroke="#231F20" stroke-width="0.5" stroke-miterlimit="10" d="M-3005.094,459.363h19.415v-41.354
			c0,0,2.241-10.08,9.335-10.08h7.842v-18.294c0,0-14.936-1.866-18.297,15.68l-2.613,0.376l-0.747-14.191l-14.934-0.374V459.363z"/>
		<g>
			<linearGradient id="SVGID_2_" gradientUnits="userSpaceOnUse" x1="-2941.4373" y1="461.9999" x2="-2938.8162" y2="386.9373">
				<stop  offset="0.5399" style="stop-color:#231F20"/>
				<stop  offset="0.6805" style="stop-color:#312E2F"/>
				<stop  offset="0.9514" style="stop-color:#575656"/>
				<stop  offset="1" style="stop-color:#5E5E5E"/>
			</linearGradient>
			<path fill="url(#SVGID_2_)" stroke="#231F20" stroke-width="0.5" stroke-miterlimit="10" d="M-2940.124,386.906
				c-16.291,0-29.5,16.817-29.5,37.564c0,20.741,13.209,37.561,29.5,37.561c16.29,0,29.495-16.82,29.495-37.561
				C-2910.629,403.723-2923.834,386.906-2940.124,386.906z M-2940.124,450.122c-5.156,0-9.336-11.201-9.336-25.015
				c0-13.82,4.181-25.018,9.336-25.018c5.153,0,9.332,11.198,9.332,25.018C-2930.792,438.921-2934.971,450.122-2940.124,450.122z"/>
		</g>
		<g>
			<linearGradient id="SVGID_3_" gradientUnits="userSpaceOnUse" x1="-2746.9028" y1="464.6712" x2="-2744.2815" y2="389.6087">
				<stop  offset="0.5399" style="stop-color:#231F20"/>
				<stop  offset="0.6805" style="stop-color:#312E2F"/>
				<stop  offset="0.9514" style="stop-color:#575656"/>
				<stop  offset="1" style="stop-color:#5E5E5E"/>
			</linearGradient>
			<path fill="url(#SVGID_3_)" stroke="#231F20" stroke-width="0.5" stroke-miterlimit="10" d="M-2745.592,389.577
				c-16.291,0-29.497,16.817-29.497,37.561c0,20.744,13.206,37.564,29.497,37.564c16.291,0,29.497-16.82,29.497-37.564
				C-2716.095,406.395-2729.301,389.577-2745.592,389.577z M-2745.592,452.791c-5.153,0-9.333-11.198-9.333-25.015
				c0-13.817,4.179-25.016,9.333-25.016s9.333,11.198,9.333,25.016C-2736.26,441.593-2740.439,452.791-2745.592,452.791z"/>
		</g>
		<g>
			<linearGradient id="SVGID_4_" gradientUnits="userSpaceOnUse" x1="-2876.7852" y1="484.3136" x2="-2873.469" y2="389.3494">
				<stop  offset="0.5399" style="stop-color:#231F20"/>
				<stop  offset="0.6805" style="stop-color:#312E2F"/>
				<stop  offset="0.9514" style="stop-color:#575656"/>
				<stop  offset="1" style="stop-color:#5E5E5E"/>
			</linearGradient>
			<path fill="url(#SVGID_4_)" stroke="#231F20" stroke-width="0.5" stroke-miterlimit="10" d="M-2847.328,424.57
				c0,0,1.118-32.34-18.299-34.895c0,0-10.826-1.811-18.669,10.14l-1.12-10.14h-16.055v93.777h16.428v-28.752
				c0,0,10.455,7.019,12.321,7.432c1.869,0.41,7.095,0,7.095,0S-2843.969,457.163-2847.328,424.57z M-2874.225,451.617
				c-5.67,0-10.268-11.225-10.268-25.065c0-13.841,4.598-25.06,10.268-25.06s10.27,11.219,10.27,25.06
				C-2863.955,440.393-2868.555,451.617-2874.225,451.617z"/>
		</g>
		<g>
			
				<linearGradient id="SVGID_5_" gradientUnits="userSpaceOnUse" x1="-2810.5173" y1="-235.3553" x2="-2807.2256" y2="-141.0868" gradientTransform="matrix(1 0 0 -1 0 226.8516)">
				<stop  offset="0.5399" style="stop-color:#231F20"/>
				<stop  offset="0.6805" style="stop-color:#312E2F"/>
				<stop  offset="0.9514" style="stop-color:#575656"/>
				<stop  offset="1" style="stop-color:#5E5E5E"/>
			</linearGradient>
			<path fill="url(#SVGID_5_)" stroke="#231F20" stroke-width="0.5" stroke-miterlimit="10" d="M-2799.049,388.827
				c0,0-5.527-0.408-7.501,0c-1.974,0.413-13.027,7.432-13.027,7.432v-28.752h-17.375v93.777h16.98l1.184-10.138
				c8.29,11.948,19.739,10.138,19.739,10.138c20.533-2.555,19.349-34.892,19.349-34.892
				C-2776.153,393.794-2799.049,388.827-2799.049,388.827z M-2797.284,424.407c0,13.841-4.858,25.063-10.856,25.063
				c-5.995,0-10.856-11.222-10.856-25.063c0-13.844,4.861-25.063,10.856-25.063
				C-2802.142,399.344-2797.284,410.563-2797.284,424.407z"/>
		</g>
		<linearGradient id="SVGID_6_" gradientUnits="userSpaceOnUse" x1="-2688.688" y1="460.0928" x2="-2686.2473" y2="390.201">
			<stop  offset="0.5399" style="stop-color:#231F20"/>
			<stop  offset="1" style="stop-color:#5E5E5E"/>
		</linearGradient>
		<polygon fill="url(#SVGID_6_)" stroke="#231F20" stroke-width="0.5" stroke-miterlimit="10" points="-2659.716,391.127 
			-2677.265,391.127 -2686.647,406.937 -2694.814,391.127 -2714.042,391.127 -2696.593,423.701 -2717.59,459.084 -2700.412,459.084 
			-2688.392,439.011 -2677.639,459.084 -2659.716,459.084 -2678.56,422.596 		"/>
		<linearGradient id="SVGID_7_" gradientUnits="userSpaceOnUse" x1="-3046.8083" y1="459.532" x2="-3050.0386" y2="367.0265">
			<stop  offset="0.5399" style="stop-color:#231F20"/>
			<stop  offset="0.6805" style="stop-color:#312E2F"/>
			<stop  offset="0.9514" style="stop-color:#575656"/>
			<stop  offset="1" style="stop-color:#5E5E5E"/>
		</linearGradient>
		<path fill="url(#SVGID_7_)" stroke="#231F20" stroke-width="0.5" stroke-miterlimit="10" d="M-3015.718,400.749
			c0.026-3.603-0.446-7.109-1.484-10.459c-0.578-2.263-1.286-3.995-2.1-5.058c-3.835-7.153-11.052-13.217-23.173-17.159H-3080v91.29
			h37.525c0,0,0.013-0.013,0.016-0.019c0.071,0.005,0.138,0.019,0.208,0.019c13.281,0,24.214-15.901,25.777-36.406
			c0.323-2.59,0.583-5.316,0.75-8.143C-3015.427,409.753-3015.444,404.976-3015.718,400.749z M-3034.931,413.719
			c-1.462,25.202-14.221,33.043-14.221,33.043h-11.763v-66.088h12.992C-3043.895,381.234-3033.472,388.514-3034.931,413.719z"/>
	</g>
	<g>
		<linearGradient id="SVGID_8_" gradientUnits="userSpaceOnUse" x1="-2870.2244" y1="242.2356" x2="-2964.1372" y2="242.2356">
			<stop  offset="0" style="stop-color:#C1E0F6"/>
			<stop  offset="1" style="stop-color:#64B3E3"/>
		</linearGradient>
		<polygon opacity="0.8" fill="url(#SVGID_8_)" stroke="#79C3EC" stroke-miterlimit="10" points="-2964.137,155.421 
			-2870.224,211.519 -2870.224,329.05 -2964.137,266.329 		"/>
		<linearGradient id="SVGID_9_" gradientUnits="userSpaceOnUse" x1="-2808.8054" y1="318.2204" x2="-2835.6016" y2="166.2508">
			<stop  offset="0" style="stop-color:#C1E0F6"/>
			<stop  offset="1" style="stop-color:#64B3E3"/>
		</linearGradient>
		<polygon opacity="0.8" fill="url(#SVGID_9_)" stroke="#79C3EC" stroke-miterlimit="10" points="-2774.183,266.756 
			-2774.183,155.421 -2869.999,212.829 -2870.224,329.05 		"/>
		<linearGradient id="SVGID_10_" gradientUnits="userSpaceOnUse" x1="-3031.2239" y1="151.5176" x2="-2708.7761" y2="151.5176">
			<stop  offset="0" style="stop-color:#C1E0F6"/>
			<stop  offset="1" style="stop-color:#64B3E3"/>
		</linearGradient>
		<polygon opacity="0.9" fill="url(#SVGID_10_)" stroke="#79C3EC" stroke-miterlimit="10" points="-2869.364,94.19 
			-2803.939,39.333 -2708.776,100.135 -2771.228,152.18 -2708.776,205.709 -2805.429,263.702 -2869.364,214.632 -2933.306,263.702 
			-3031.224,205.709 -2963.798,154.409 -3031.224,103.11 -2933.306,39.333 		"/>
		<linearGradient id="SVGID_11_" gradientUnits="userSpaceOnUse" x1="-2853.2671" y1="197.3143" x2="-2922.0288" y2="118.2131">
			<stop  offset="0" style="stop-color:#ECF8FE"/>
			<stop  offset="1" style="stop-color:#C7EAFA"/>
		</linearGradient>
		<polygon opacity="0.7" fill="url(#SVGID_11_)" points="-2962.63,153.507 -2869.159,97.033 -2869.999,211.859 		"/>
		<linearGradient id="SVGID_12_" gradientUnits="userSpaceOnUse" x1="-2869.9988" y1="154.4458" x2="-2776.7979" y2="154.4458">
			<stop  offset="0" style="stop-color:#ECF8FE"/>
			<stop  offset="1" style="stop-color:#C7EAFA"/>
		</linearGradient>
		<polygon opacity="0.7" fill="url(#SVGID_12_)" points="-2869.159,97.033 -2776.798,150.103 -2869.999,211.859 		"/>
	</g>
</g>
<g id="Drive">
	<rect x="-2600" fill="#FFFFFF" width="500" height="500"/>
	<text transform="matrix(1 0 0 1 -2562.3184 459.6426)" fill="#666666" font-family="'Gotham-Medium'" font-size="77.7589">Google Drive</text>
	<g>
		<linearGradient id="SVGID_13_" gradientUnits="userSpaceOnUse" x1="-2358.9795" y1="127.1945" x2="-2418.6646" y2="176.9145">
			<stop  offset="0" style="stop-color:#008C47"/>
			<stop  offset="1" style="stop-color:#2EB571"/>
		</linearGradient>
		<polygon fill="url(#SVGID_13_)" points="-2406.214,40 -2528.143,249.883 -2473.758,349.352 -2350.745,137.59 		"/>
		<g>
			<linearGradient id="SVGID_14_" gradientUnits="userSpaceOnUse" x1="-2420.1506" y1="256.5492" x2="-2321.9158" y2="299.5008">
				<stop  offset="0" style="stop-color:#004AE3"/>
				<stop  offset="0.3354" style="stop-color:#286EF0"/>
				<stop  offset="0.5571" style="stop-color:#3E82F7"/>
				<stop  offset="1" style="stop-color:#3E82F7"/>
			</linearGradient>
			<polygon fill="url(#SVGID_14_)" points="-2171.857,248.869 -2415.79,249.563 -2473.758,349.352 -2230.411,349.303 			"/>
			<linearGradient id="SVGID_15_" gradientUnits="userSpaceOnUse" x1="-2250.2034" y1="262.1311" x2="-2269.3862" y2="203.9895">
				<stop  offset="0" style="stop-color:#E1A415"/>
				<stop  offset="1" style="stop-color:#FDD04A"/>
			</linearGradient>
			<polygon fill="url(#SVGID_15_)" points="-2294.247,40.332 -2406.214,40 -2287.308,249.199 -2171.857,248.869 			"/>
		</g>
	</g>
</g>
<g id="Copy">
	<rect x="-2080" fill="#FFFFFF" width="500" height="500"/>
	<g>
		<g>
			<polygon fill="#4EC8F4" points="-1711.494,205.636 -1738.26,195.58 -1810.152,242.796 -1851.512,269.961 -1835.15,310.898 
				-1655.06,330.92 -1645.405,324.568 			"/>
			<polygon fill="#984D9D" points="-1851.513,269.961 -1851.482,270.036 -1851.444,269.916 			"/>
			<polygon fill="#00ADEE" points="-1711.494,205.636 -1738.26,195.58 -1779.76,222.836 -1648.95,326.9 -1645.405,324.568 			"/>
			<polygon fill="#00ADEE" points="-1683.328,39.333 -1768.231,176.049 -1722.323,193.296 -1680.845,41.169 			"/>
			<path fill="#D6652D" d="M-1847.771,258.239l24.629-16.176L-1847.771,258.239z"/>
			<path fill="#F27233" d="M-1847.771,258.239L-1847.771,258.239L-1847.771,258.239z"/>
			<path fill="#F27233" d="M-1786.139,217.761l-37.003,24.302L-1786.139,217.761z"/>
			<polygon fill="#F48120" points="-1825.253,186.645 -1847.771,258.239 -1847.771,258.239 -1823.142,242.063 -1786.139,217.761 			
				"/>
			<polygon fill="#D96E1C" points="-1825.253,186.645 -1860.657,225.991 -1847.771,258.239 			"/>
			<polygon fill="#D96E1C" points="-1775.075,181.75 -1825.252,186.645 -1825.253,186.646 -1825.253,186.647 -1825.252,186.645 
				-1786.139,217.761 -1747.234,192.209 			"/>
			<polygon fill="#00ADEE" points="-2014.595,184.123 -2005.858,187.415 -1927.976,159.643 -1872.612,337.235 -1835.062,310.911 
				-1906.455,132.251 -1940.123,119.578 			"/>
			<polygon fill="#4EC8F4" points="-2014.595,184.123 -2005.618,187.502 -1927.927,159.8 -1940.13,119.581 			"/>
			<polygon fill="#0091C7" points="-1927.92,159.818 -1940.129,119.581 -1953.768,169.009 			"/>
			<polygon fill="#0097BF" points="-1872.612,337.234 -1872.612,337.235 -1872.611,337.234 			"/>
			<polygon fill="#EC1E24" points="-1872.618,337.234 -1872.612,337.234 -1872.615,337.224 			"/>
			<polygon fill="#0091C7" points="-1835.062,310.911 -1851.445,269.916 -1872.615,337.225 -1872.613,337.234 -1872.611,337.234 			
				"/>
		</g>
	</g>
	<g>
		<g>
			<path fill="#5F6C74" d="M-1793.885,457.915c-5.665,0-11.33-0.787-16.68-2.361v25.335l-14.477,5.665v-84.346
				c0-5.979,2.361-25.335,32.574-25.335c12.904,0,34.777,5.35,34.777,41.386C-1757.692,450.991-1777.362,457.915-1793.885,457.915
				 M-1792.469,389.463c-11.96,0-18.097,3.934-18.097,11.802v40.6c5.351,2.046,10.858,3.147,16.68,3.147
				c11.33,0,21.716-3.147,21.716-26.752C-1772.17,392.767-1783.027,389.463-1792.469,389.463"/>
			<path fill="#5F6C74" d="M-1837.047,417.425c0,33.428-20.183,40.523-37.054,40.523c-16.872,0-37.054-7.096-37.054-40.523
				c0-33.427,20.183-40.523,37.054-40.523C-1857.23,376.902-1837.047,383.997-1837.047,417.425 M-1851.553,417.425
				c0-24.44-10.722-27.751-22.548-27.751c-11.826,0-22.548,3.311-22.548,27.751c0,24.44,10.722,27.751,22.548,27.751
				C-1862.276,445.176-1851.553,441.865-1851.553,417.425"/>
			<path fill="#5F6C74" d="M-1938.823,444.854c-11.96,0-23.133-3.304-23.133-27.538c0-24.077,11.173-27.539,23.133-27.539
				c5.858,0,11.317,1.133,17.292,2.872l7.312-11.397c-9.552-2.658-17.396-4.378-25.863-4.378c-23.919,0-36.98,14.32-36.98,40.442
				c0,26.122,13.061,40.599,36.98,40.599c8.498,0,16.366-1.731,25.965-4.406v-0.019l-7.318-11.408
				C-1927.449,443.791-1932.934,444.854-1938.823,444.854"/>
			<path fill="#5F6C74" d="M-1698.359,378.132l-20.772,58.854l-21.086-58.854h-15.422l29.584,78.524
				c-2.833,8.655-7.904,17.351-15.736,18.096c-0.559,0.053-1.063,0.089-1.525,0.11l4.659,12.77
				c7.293-0.329,16.822-4.684,23.46-22.637l32.259-86.864H-1698.359z"/>
		</g>
	</g>
</g>
<g id="Snaggy">
	<rect x="-1560" fill="#FFFFFF" width="500" height="500"/>
	<rect x="-1520" y="40" fill="#2C3034" width="420" height="420"/>
	<g>
		<path fill="#E6FDFF" d="M-1448.231,225.439c-0.712-5.339-3.797-7.712-10.441-7.712c-6.288,0-9.61,1.305-9.61,4.983
			c0,3.204,3.322,4.865,9.492,6.526c20.408,5.577,27.053,6.645,27.053,20.29c0,10.441-8.899,18.154-25.867,18.154
			c-16.729,0-27.527-7.95-27.764-20.29h15.898c0,5.458,4.865,8.661,11.747,8.661c5.813,0,10.679-1.779,10.679-5.576
			c0-4.271-3.085-5.695-9.373-7.119c-22.663-4.983-26.816-10.797-26.816-20.646c0-8.78,6.764-16.493,25.036-16.493
			c16.729,0,24.087,7.238,24.798,19.222H-1448.231z"/>
		<path fill="#E6FDFF" d="M-1390.566,266.136v-35.358c0-9.018-2.609-11.509-9.967-11.509c-8.068,0-11.983,4.509-11.983,13.408v33.46
			h-15.425V207.76h14.713v8.543c3.56-6.526,9.492-10.085,18.865-10.085c11.154,0,19.341,6.763,19.341,19.459v40.46H-1390.566z"/>
		<path fill="#E6FDFF" d="M-1332.308,266.136c-0.475-1.424-0.831-3.441-0.949-5.221c-3.679,4.034-9.849,6.764-17.679,6.764
			c-13.289,0-19.459-6.526-19.459-16.019c0-16.849,11.271-18.747,26.814-20.883c7.713-1.068,9.849-2.61,9.849-6.645
			c0-3.797-3.797-6.051-9.849-6.051c-7,0-9.848,3.441-10.56,8.662h-14.356c0.236-12.103,6.881-20.527,25.629-20.527
			c18.51,0,24.916,8.306,24.916,23.019v36.901H-1332.308z M-1333.375,237.541c-1.543,1.543-4.271,2.373-9.967,3.441
			c-8.781,1.661-11.629,4.152-11.629,9.137c0,4.39,2.611,6.525,7.476,6.525c7.95,0,13.882-5.814,14.001-12.695L-1333.375,237.541z"
			/>
		<path fill="#E6FDFF" d="M-1271.084,258.305c-2.135,5.221-8.424,8.306-16.018,8.306c-19.222,0-25.866-14.713-25.866-30.02
			c0-18.153,11.391-30.375,25.511-30.375c7.355,0,12.695,2.848,16.373,8.78v-7.238h15.426v58.971
			c0,17.561-12.814,27.053-29.07,27.053s-28.239-9.374-28.239-24.443h14.356c0,7.001,5.103,11.154,12.814,11.154
			c8.188,0,14.713-4.865,14.713-12.578V258.305z M-1270.609,238.372c0-12.696-4.39-18.747-13.17-18.747
			c-8.662,0-13.17,5.814-13.17,17.798c0,10.441,5.576,17.086,13.17,17.086C-1276.305,254.509-1270.609,248.22-1270.609,238.372z"/>
		<path fill="#8FD3FF" d="M-1208.791,258.305c-2.135,5.221-8.424,8.306-16.018,8.306c-19.222,0-25.866-14.713-25.866-30.02
			c0-18.153,11.391-30.375,25.511-30.375c7.355,0,12.695,2.848,16.373,8.78v-7.238h15.426v58.971
			c0,17.561-12.814,27.053-29.07,27.053s-28.239-9.374-28.239-24.443h14.356c0,7.001,5.103,11.154,12.814,11.154
			c8.188,0,14.713-4.865,14.713-12.578V258.305z M-1208.316,238.372c0-12.696-4.39-18.747-13.17-18.747
			c-8.662,0-13.17,5.814-13.17,17.798c0,10.441,5.576,17.086,13.17,17.086C-1214.012,254.509-1208.316,248.22-1208.316,238.372z"/>
		<path fill="#8FD3FF" d="M-1150.057,258.424c-2.135,5.221-8.543,8.307-15.78,8.307c-12.222,0-21.357-8.307-21.357-21.121v-37.85
			h15.425v35.596c0,7.238,3.322,10.916,9.848,10.916c7.001,0,11.865-4.627,11.865-10.916V207.76h15.426v59.92
			c0,16.492-11.865,26.104-26.816,26.104c-17.086,0-25.747-9.374-25.747-24.443h14.356c0,6.883,4.035,11.154,12.104,11.154
			c5.576,0,10.678-4.865,10.678-12.578V258.424z"/>
	</g>
</g>
<g id="Blackboard">
	<rect x="-1040" fill="#FFFFFF" width="500" height="500"/>
	<g>
		<polygon fill-rule="evenodd" clip-rule="evenodd" fill="#004A4B" points="-1001.107,381.931 -581.102,381.931 -581.102,325.6 
			-1001.107,325.6 -1001.107,381.931 		"/>
		<polygon fill-rule="evenodd" clip-rule="evenodd" fill="#626366" points="-1001.107,191.199 -986.283,191.199 -986.283,183.293 
			-1001.107,183.293 -1001.107,191.199 		"/>
		<polygon fill-rule="evenodd" clip-rule="evenodd" fill="#626366" points="-1001.107,83.481 -581.102,83.481 -581.102,72.61 
			-1001.107,72.61 -1001.107,83.481 		"/>
		<polygon fill-rule="evenodd" clip-rule="evenodd" fill="#626366" points="-1001.107,309.789 -581.102,309.789 -581.102,298.918 
			-1001.107,298.918 -1001.107,309.789 		"/>
		<polygon fill-rule="evenodd" clip-rule="evenodd" fill="#626366" points="-975.413,191.199 -960.588,191.199 -960.588,183.293 
			-975.413,183.293 -975.413,191.199 		"/>
		<polygon fill-rule="evenodd" clip-rule="evenodd" fill="#626366" points="-950.706,191.199 -934.894,191.199 -934.894,183.293 
			-950.706,183.293 -950.706,191.199 		"/>
		<polygon fill-rule="evenodd" clip-rule="evenodd" fill="#626366" points="-824.211,191.199 -808.398,191.199 -808.398,183.293 
			-824.211,183.293 -824.211,191.199 		"/>
		<polygon fill-rule="evenodd" clip-rule="evenodd" fill="#626366" points="-798.516,191.199 -783.693,191.199 -783.693,183.293 
			-798.516,183.293 -798.516,191.199 		"/>
		<polygon fill-rule="evenodd" clip-rule="evenodd" fill="#626366" points="-773.81,191.199 -757.998,191.199 -757.998,183.293 
			-773.81,183.293 -773.81,191.199 		"/>
		<polygon fill-rule="evenodd" clip-rule="evenodd" fill="#626366" points="-748.116,191.199 -733.292,191.199 -733.292,183.293 
			-748.116,183.293 -748.116,191.199 		"/>
		<polygon fill-rule="evenodd" clip-rule="evenodd" fill="#626366" points="-697.716,191.199 -682.891,191.199 -682.891,183.293 
			-697.716,183.293 -697.716,191.199 		"/>
		<polygon fill-rule="evenodd" clip-rule="evenodd" fill="#626366" points="-672.02,191.199 -657.197,191.199 -657.197,183.293 
			-672.02,183.293 -672.02,191.199 		"/>
		<polygon fill-rule="evenodd" clip-rule="evenodd" fill="#626366" points="-647.315,191.199 -631.503,191.199 -631.503,183.293 
			-647.315,183.293 -647.315,191.199 		"/>
		<polygon fill-rule="evenodd" clip-rule="evenodd" fill="#626366" points="-621.62,191.199 -606.796,191.199 -606.796,183.293 
			-621.62,183.293 -621.62,191.199 		"/>
		<polygon fill-rule="evenodd" clip-rule="evenodd" fill="#626366" points="-596.915,191.199 -581.102,191.199 -581.102,183.293 
			-596.915,183.293 -596.915,191.199 		"/>
		<path fill-rule="evenodd" clip-rule="evenodd" fill="#FFFFFF" d="M-989.248,334.495h10.871c7.906,0,11.859,4.941,11.859,9.883
			c0,3.952-1.977,5.93-5.929,7.906l0,0c5.929,0.988,8.895,4.941,8.895,9.883c0,4.942-2.966,9.882-12.848,9.882h-12.848V334.495
			L-989.248,334.495z M-984.306,350.307h3.953c4.94,0,7.906-1.977,7.906-5.93c0-2.966-0.99-4.942-6.918-4.942h-4.941V350.307
			L-984.306,350.307z M-984.306,367.108h6.917c6.917,0,8.894-2.964,8.894-5.93c0-2.964-2.965-5.929-8.894-5.929h-6.917V367.108
			L-984.306,367.108z"/>
		<polygon fill-rule="evenodd" clip-rule="evenodd" fill="#FFFFFF" points="-940.824,334.495 -935.883,334.495 -935.883,372.048 
			-940.824,372.048 -940.824,334.495 		"/>
		<path fill-rule="evenodd" clip-rule="evenodd" fill="#FFFFFF" d="M-892.4,371.06c-1.976,0.988-2.964,1.977-4.941,1.977
			c-1.977,0-2.964-0.988-3.953-2.964c-1.977,1.976-3.953,2.964-6.917,2.964c-2.965,0-5.93-2.964-5.93-5.929
			c0-4.942,4.941-6.919,8.894-7.906l3.953-1.977v-0.988c0-3.954-0.989-4.941-3.953-4.941c-2.964,0-5.929,0.988-7.905,3.952v-4.941
			c1.976-1.977,3.952-3.954,7.905-3.954c4.942,0,8.895,2.965,8.895,8.895v12.847c0,0.99,0.988,0.99,0.988,0.99
			c0.988,0,1.976,0,2.964-0.99V371.06L-892.4,371.06z M-901.294,360.189c-3.953,0.988-7.906,2.965-7.906,5.93
			c0,1.977,1.976,2.967,3.952,2.967c0.989,0,2.964,0,3.953-1.978V360.189L-901.294,360.189z"/>
		<path fill-rule="evenodd" clip-rule="evenodd" fill="#FFFFFF" d="M-851.882,354.26c-2.965-1.977-4.941-2.964-6.917-2.964
			c-4.941,0-7.907,2.964-7.907,8.893c0,4.942,2.966,7.906,8.895,7.906c1.976,0,3.954,0,5.93-1.977v4.941
			c-0.989,0.988-4.941,1.977-6.917,1.977c-7.907,0-12.847-4.941-12.847-12.848c0-7.906,4.94-13.835,11.858-13.835
			c2.965,0,4.941,0.989,7.906,1.977V354.26L-851.882,354.26z"/>
		<path fill-rule="evenodd" clip-rule="evenodd" fill="#FFFFFF" d="M-817.293,359.201l12.848,12.847h-6.919l-12.847-12.847
			l11.859-11.859h5.93L-817.293,359.201L-817.293,359.201z M-829.152,334.495h4.941v37.554h-4.941V334.495L-829.152,334.495z"/>
		<path fill-rule="evenodd" clip-rule="evenodd" fill="#FFFFFF" d="M-779.74,349.318c1.977-1.976,3.953-2.965,6.919-2.965
			c5.929,0,10.87,5.93,10.87,12.848c0,8.894-4.941,13.835-13.835,13.835c-2.964,0-6.918-0.988-8.894-1.977v-36.565h4.941V349.318
			L-779.74,349.318z M-779.74,367.108c0.989,0.988,2.966,0.988,4.941,0.988c4.941,0,7.906-2.964,7.906-7.906
			c0-5.929-2.965-8.893-6.917-8.893c-1.977,0-3.953,0.988-5.93,2.964V367.108L-779.74,367.108z"/>
		<path fill-rule="evenodd" clip-rule="evenodd" fill="#FFFFFF" d="M-713.528,359.201c0,7.906-5.929,13.835-13.835,13.835
			c-7.905,0-13.835-5.929-13.835-13.835c0-6.918,5.93-12.848,13.835-12.848C-719.457,346.353-713.528,352.283-713.528,359.201
			L-713.528,359.201z M-736.256,359.201c0,5.93,3.952,8.894,8.893,8.894c4.942,0,8.895-2.964,8.895-8.894
			c0-4.941-3.952-7.906-8.895-7.906C-732.305,351.296-736.256,354.26-736.256,359.201L-736.256,359.201z"/>
		<path fill-rule="evenodd" clip-rule="evenodd" fill="#FFFFFF" d="M-671.033,371.06c-2.964,0.988-3.953,1.977-4.941,1.977
			c-1.976,0-3.952-0.988-3.952-2.964c-1.977,1.976-4.942,2.964-6.918,2.964c-3.952,0-5.929-2.964-5.929-5.929
			c0-4.942,3.953-6.919,7.906-7.906l4.942-1.977v-0.988c0-3.954-1.977-4.941-4.942-4.941c-2.964,0-4.941,0.988-7.906,3.952v-4.941
			c1.977-1.977,4.942-3.954,8.894-3.954c4.941,0,8.894,2.965,8.894,8.895v12.847c0,0.99,0,0.99,0.989,0.99
			c0.989,0,1.977,0,2.964-0.99V371.06L-671.033,371.06z M-679.927,360.189c-3.953,0.988-7.906,2.965-7.906,5.93
			c0,1.977,0.987,2.967,2.964,2.967c1.977,0,3.954,0,4.942-1.978V360.189L-679.927,360.189z"/>
		<path fill-rule="evenodd" clip-rule="evenodd" fill="#FFFFFF" d="M-644.35,347.342v5.928l0,0c2.966-4.941,4.941-6.917,6.917-6.917
			c2.964,0,4.941,0.989,6.918,2.965l-2.965,4.941c-1.976-1.977-3.953-2.964-4.941-2.964c-2.963,0-5.929,3.952-5.929,7.906v12.847
			h-4.941v-24.706H-644.35L-644.35,347.342z"/>
		<path fill-rule="evenodd" clip-rule="evenodd" fill="#FFFFFF" d="M-589.008,372.048h-10.871c-7.905,0-12.846-4.941-12.846-12.847
			c0-6.918,5.93-12.848,12.846-12.848c1.977,0,3.954,0.989,5.93,0.989v-12.848h4.941V372.048L-589.008,372.048z M-593.95,352.283
			c-1.976-0.988-2.965-0.988-4.94-0.988c-4.942,0-7.906,2.964-7.906,8.893c0,4.942,1.976,7.906,7.906,7.906h4.94V352.283
			L-593.95,352.283z"/>
		<path fill-rule="evenodd" clip-rule="evenodd" fill="#231F20" d="M-931.929,138.822c0-37.553-28.659-22.729-28.659-35.577
			c0-4.942,2.965-3.953,4.94-3.953c0.99,0,2.965,0.988,15.813,0.988c23.718,0,46.447-0.988,69.177-0.988
			c67.201,0,67.201,40.519,67.201,46.448c0,17.788-9.882,32.612-29.648,38.541v0.988c33.601,7.906,43.482,22.73,43.482,47.436
			c0,36.566-24.706,59.295-69.177,59.295c-40.519,0-54.353-0.989-68.188-0.989c-6.918,0-13.837,0.989-19.766,0.989
			c-5.93,0-8.895,0-8.895-3.952c0-8.895,23.719-1.977,23.719-28.66V138.822L-931.929,138.822z M-898.329,168.469
			c0,12.847,2.965,14.824,18.777,15.812h15.812c20.751,0,28.66-10.87,28.66-30.635c0-25.694-19.766-42.494-44.472-42.494
			c-17.788,0-18.777,9.881-18.777,25.694V168.469L-898.329,168.469z M-898.329,247.53c0,25.694,6.919,33.599,33.6,33.599
			c26.682,0,40.518-17.788,40.518-44.47c0-15.813-7.906-40.518-57.318-40.518c-15.812,0-16.8,6.917-16.8,20.753V247.53
			L-898.329,247.53z"/>
		<path fill-rule="evenodd" clip-rule="evenodd" fill="#231F20" d="M-728.351,125.976c0-19.766-16.8-7.908-16.8-17.789
			c0-6.917,12.846-2.965,38.542-18.776c1.978-0.988,2.965-1.977,4.941-1.977c2.965,0,1.977,5.93,1.977,7.906v107.718
			c10.87-9.883,22.729-18.777,36.564-18.777c31.624,0,43.483,27.67,43.483,46.446c0,41.509-23.718,63.249-57.318,63.249
			c-24.706,0-32.611-10.87-36.566-10.87c-4.941,0-7.906,10.87-13.835,10.87c-1.976,0-2.964-0.988-2.964-2.965
			c0-1.976,1.977-7.905,1.977-21.74V125.976L-728.351,125.976z M-699.691,256.423c0,22.73,20.752,27.671,28.658,27.671
			c22.73,0,27.671-21.742,27.671-39.529c0-20.753-9.882-40.518-35.577-40.518c-7.906,0-20.752,4.941-20.752,14.824V256.423
			L-699.691,256.423z"/>
		<polygon fill-rule="evenodd" clip-rule="evenodd" fill="#231F20" points="-973.437,418.496 -968.495,404.661 -963.552,404.661 
			-972.447,427.39 -974.424,427.39 -980.353,411.578 -986.283,427.39 -987.271,427.39 -996.165,404.661 -992.212,404.661 
			-986.283,418.496 -981.342,404.661 -978.377,404.661 -973.437,418.496 		"/>
		<polygon fill-rule="evenodd" clip-rule="evenodd" fill="#231F20" points="-939.836,418.496 -934.894,404.661 -930.941,404.661 
			-939.836,427.39 -940.824,427.39 -946.753,411.578 -952.683,427.39 -953.67,427.39 -962.565,404.661 -958.612,404.661 
			-953.67,418.496 -948.73,404.661 -945.765,404.661 -939.836,418.496 		"/>
		<polygon fill-rule="evenodd" clip-rule="evenodd" fill="#231F20" points="-907.224,418.496 -902.283,404.661 -897.341,404.661 
			-906.236,427.39 -907.224,427.39 -913.152,411.578 -919.082,427.39 -921.059,427.39 -929.954,404.661 -925.013,404.661 
			-920.071,418.496 -915.129,404.661 -912.165,404.661 -907.224,418.496 		"/>
		<path fill-rule="evenodd" clip-rule="evenodd" fill="#231F20" d="M-891.41,424.425c0,0.988-0.991,2.965-2.966,2.965
			c-0.988,0-2.965-1.977-2.965-2.965c0-1.977,1.977-2.965,2.965-2.965C-892.4,421.461-891.41,422.449-891.41,424.425
			L-891.41,424.425z"/>
		<path fill-rule="evenodd" clip-rule="evenodd" fill="#231F20" d="M-881.529,410.59c1.977-1.977,2.964-1.977,4.941-1.977
			c2.964,0,4.942,2.964,4.942,6.918c0,4.941-1.977,7.906-5.93,7.906c-0.989,0-2.966-0.988-3.953-0.988V410.59L-881.529,410.59z
			 M-881.529,392.802h-3.952v32.611c1.976,0.988,4.94,1.977,6.917,1.977c6.919,0,10.871-4.941,10.871-11.859
			c0-6.918-2.965-10.87-7.906-10.87c-2.965,0-3.953,0-5.929,1.977V392.802L-881.529,392.802z"/>
		<polygon fill-rule="evenodd" clip-rule="evenodd" fill="#231F20" points="-861.765,392.802 -857.811,392.802 -857.811,426.401 
			-861.765,426.401 -861.765,392.802 		"/>
		<path fill-rule="evenodd" clip-rule="evenodd" fill="#231F20" d="M-841.999,422.449c-0.99,0.988-2.965,1.977-3.953,1.977
			c-1.977,0-2.965-1.977-2.965-2.965c0-2.964,2.965-3.955,6.918-5.929V422.449L-841.999,422.449z M-835.081,422.449
			c-0.989,0.988-1.977,1.977-2.966,1.977c0,0,0-0.988,0-1.977v-10.871c0-4.94-3.952-6.917-7.905-6.917
			c-2.965,0-4.941,0.988-5.93,2.964v3.952c0.988-1.976,3.952-2.964,5.93-2.964c1.976,0,3.953,0.988,3.953,3.953v0.989l-3.953,0.988
			c-2.965,1.977-6.919,2.963-6.919,6.917c0,2.965,1.977,5.93,4.941,5.93c1.977,0,3.953-0.989,5.93-1.977
			c0,0.988,0.987,1.977,2.964,1.977c0.988,0,1.977-0.989,3.954-1.977V422.449L-835.081,422.449z"/>
		<path fill-rule="evenodd" clip-rule="evenodd" fill="#231F20" d="M-816.303,410.59c-1.978-1.977-3.954-1.977-4.943-1.977
			c-3.953,0-6.917,2.964-6.917,6.918c0,4.941,2.964,7.906,6.917,7.906c1.977,0,3.953-0.988,5.93-1.977v4.941
			c-1.977,0-3.954,0.989-5.93,0.989c-6.917,0-10.87-4.941-10.87-10.87c0-7.906,3.953-11.859,9.883-11.859
			c2.964,0,3.953,0,5.93,0.988V410.59L-816.303,410.59z"/>
		<path fill-rule="evenodd" clip-rule="evenodd" fill="#231F20" d="M-801.48,415.532l10.871,10.87h-5.93l-9.883-10.87l8.895-10.87
			h4.941L-801.48,415.532L-801.48,415.532z M-810.375,392.802h3.952v33.599h-3.952V392.802L-810.375,392.802z"/>
		<path fill-rule="evenodd" clip-rule="evenodd" fill="#231F20" d="M-783.693,410.59c0.988-1.977,2.965-1.977,3.952-1.977
			c3.953,0,5.93,2.964,5.93,6.918c0,4.941-2.965,7.906-5.93,7.906c-0.988,0-2.965-0.988-3.952-0.988V410.59L-783.693,410.59z
			 M-783.693,392.802h-3.952v32.611c1.977,0.988,4.94,1.977,6.917,1.977c6.918,0,10.87-4.941,10.87-11.859
			c0-6.918-3.952-10.87-8.894-10.87c-1.977,0-3.954,0-4.941,1.977V392.802L-783.693,392.802z"/>
		<path fill-rule="evenodd" clip-rule="evenodd" fill="#231F20" d="M-755.033,408.614c3.952,0,6.917,2.964,6.917,6.918
			c0,4.941-2.964,7.906-6.917,7.906c-3.953,0-6.919-2.964-6.919-7.906C-761.952,411.578-758.986,408.614-755.033,408.614
			L-755.033,408.614z M-755.033,404.661c-5.93,0-10.871,4.941-10.871,10.87c0,6.917,4.942,11.859,10.871,11.859
			c6.917,0,10.87-4.941,10.87-11.859C-744.163,408.614-749.104,404.661-755.033,404.661L-755.033,404.661z"/>
		<path fill-rule="evenodd" clip-rule="evenodd" fill="#231F20" d="M-730.327,422.449c-0.99,0.988-1.977,1.977-2.965,1.977
			c-1.976,0-2.964-1.977-2.964-2.965c0-2.964,2.964-3.955,5.929-5.929V422.449L-730.327,422.449z M-723.409,422.449
			c-0.989,0.988-0.989,1.977-1.977,1.977c0,0-0.988-0.988-0.988-1.977v-10.871c0-4.94-2.965-6.917-6.918-6.917
			c-2.964,0-4.941,0.988-6.918,2.964v3.952c1.977-1.976,4.942-2.964,6.918-2.964c1.975,0,2.965,0.988,2.965,3.953v0.989
			l-2.965,0.988c-2.964,1.977-6.918,2.963-6.918,6.917c0,2.965,1.977,5.93,4.942,5.93c1.976,0,3.951-0.989,4.941-1.977
			c0.988,0.988,1.977,1.977,2.964,1.977c1.977,0,1.977-0.989,3.954-1.977V422.449L-723.409,422.449z"/>
		<path fill-rule="evenodd" clip-rule="evenodd" fill="#231F20" d="M-714.515,404.661v4.941l0,0c1.976-3.953,3.952-4.941,5.93-4.941
			c1.977,0,2.964,0,4.942,1.977l-1.977,3.952c-0.987-0.988-2.964-1.977-3.952-1.977c-2.966,0-4.942,2.964-4.942,6.918v10.87h-3.953
			v-21.74H-714.515L-714.515,404.661z"/>
		<path fill-rule="evenodd" clip-rule="evenodd" fill="#231F20" d="M-686.845,423.437h-3.952c-4.942,0-5.93-2.964-5.93-7.906
			c0-3.954,1.977-6.918,5.93-6.918c0.988,0,2.965,0,3.952,0V423.437L-686.845,423.437z M-682.891,392.802h-3.954v12.846
			c-1.977-0.988-2.964-0.988-3.952-0.988c-5.93,0-9.883,3.952-9.883,10.87c0,6.917,2.964,10.87,8.895,10.87h8.895V392.802
			L-682.891,392.802z"/>
		<path fill-rule="evenodd" clip-rule="evenodd" fill="#231F20" d="M-672.02,424.425c0,0.988-0.988,2.965-1.977,2.965
			c-1.977,0-2.965-1.977-2.965-2.965c0-1.977,0.988-2.965,2.965-2.965C-673.008,421.461-672.02,422.449-672.02,424.425
			L-672.02,424.425z"/>
		<path fill-rule="evenodd" clip-rule="evenodd" fill="#231F20" d="M-651.268,410.59c-1.977-1.977-2.964-1.977-4.943-1.977
			c-3.95,0-5.928,2.964-5.928,6.918c0,4.941,1.978,7.906,6.919,7.906c0.988,0,2.964-0.988,4.941-1.977v4.941
			c-0.988,0-3.952,0.989-5.931,0.989c-5.928,0-9.881-4.941-9.881-10.87c0-7.906,2.965-11.859,9.881-11.859
			c1.979,0,2.966,0,4.943,0.988V410.59L-651.268,410.59z"/>
		<path fill-rule="evenodd" clip-rule="evenodd" fill="#231F20" d="M-635.455,408.614c3.952,0,6.917,2.964,6.917,6.918
			c0,4.941-2.965,7.906-6.917,7.906c-3.954,0-6.918-2.964-6.918-7.906C-642.373,411.578-639.409,408.614-635.455,408.614
			L-635.455,408.614z M-635.455,404.661c-5.929,0-10.871,4.941-10.871,10.87c0,6.917,4.942,11.859,10.871,11.859
			c5.928,0,10.87-4.941,10.87-11.859C-624.585,408.614-629.527,404.661-635.455,404.661L-635.455,404.661z"/>
		<path fill-rule="evenodd" clip-rule="evenodd" fill="#231F20" d="M-615.691,404.661v2.964c1.976-1.977,3.953-2.964,5.93-2.964
			c2.965,0,4.941,0.988,5.93,3.952c1.976-2.965,3.952-3.952,6.917-3.952c3.953,0,6.918,2.964,6.918,7.906v13.835h-3.953v-12.846
			c0-3.954-1.976-5.93-3.953-5.93c-1.977,0-2.965,1.977-4.941,2.965v15.811h-3.952v-12.846c0-3.954-1.976-5.93-3.953-5.93
			c-1.977,0-2.966,0.988-4.941,2.965v15.811h-3.953v-21.74H-615.691L-615.691,404.661z"/>
	</g>
</g>
<g id="SLS">
	<rect x="-520" fill="#FFFFFF" width="500" height="500"/>
	<text transform="matrix(1 0 0 1 -335.1582 185.3135)"><tspan x="0" y="0" fill="#534741" font-family="'Arial-Black'" font-size="82.9639">Social</tspan><tspan x="-115.291" y="99.557" fill="#534741" font-family="'Arial-Black'" font-size="82.9639">Learning</tspan><tspan x="-0.081" y="199.113" fill="#534741" font-family="'Arial-Black'" font-size="82.9639">Space</tspan></text>
	<rect x="-480" y="40" fill-rule="evenodd" clip-rule="evenodd" fill="#00A99D" width="14" height="420"/>
</g>
<g id="Cacoo">
	<rect fill="#FFFFFF" width="500" height="500"/>
	<g>
		<path fill="#00A6E8" d="M357.929,187.295c-0.925-0.782-1.962-1.334-2.918-2.05c1.035-0.643,2.115-1.15,3.121-1.862
			c16.538-11.73,25.365-30.329,25.365-49.198c0-12.04-3.591-24.189-11.071-34.734c-30.137-42.502-80.943-64.856-132.591-58.333
			c-37.358,4.719-70.643,23.701-93.722,53.449c-19.373,24.976-29.61,55.022-29.61,86.121c0,5.957,0.375,11.952,1.135,17.96
			c4.723,37.367,23.709,70.656,53.461,93.722c29.748,23.085,66.712,33.195,104.076,28.471c35.071-4.43,66.973-21.728,89.815-48.718
			c9.279-10.963,14.253-24.576,14.253-38.784c0-1.687-0.069-3.384-0.215-5.085C377.7,212.232,370.201,197.684,357.929,187.295z
			 M274.219,169.087c3.682,5.19,8.098,9.532,12.934,13.169c-5.159,3.216-9.933,7.221-14.065,12.105
			c-3.306,3.902-7.919,6.401-13.009,7.046c-11.262,1.419-21.581-6.583-23.005-17.843c-0.698-5.539,0.74-10.8,4.16-15.212
			c3.417-4.401,8.15-7.102,13.682-7.797C262.42,159.606,269.815,162.878,274.219,169.087z"/>
		<path fill="#FFFFFF" d="M350.641,194.922c-4.81-4.069-10.249-7.109-16.046-9.054v-4.989c5.95-1.4,11.737-3.933,17.025-7.682
			c22-15.606,27.207-46.198,11.611-68.199c-27.733-39.108-74.472-59.672-121.982-53.67c-34.37,4.341-64.992,21.804-86.226,49.175
			c-17.823,22.973-27.24,50.613-27.24,79.227c0,5.481,0.345,10.996,1.044,16.519c4.343,34.378,21.81,64.997,49.18,86.233
			c27.379,21.236,61.382,30.531,95.749,26.189c32.273-4.079,61.616-19.991,82.627-44.813c8.437-9.969,12.49-22.631,11.408-35.652
			C366.71,215.183,360.617,203.362,350.641,194.922z M281.694,200.671c-5.126,6.057-12.305,9.945-20.205,10.944
			c-17.424,2.201-33.397-10.189-35.601-27.623c-1.066-8.444,1.219-16.801,6.436-23.527c5.22-6.724,12.737-11.014,21.175-12.075
			c11.645-1.471,23.108,3.584,29.923,13.191c7.006,9.888,17.042,16.371,27.967,19.111c-0.076,0.777-0.122,1.56-0.122,2.354
			c0,0.32,0.036,0.631,0.05,0.949C299.756,185.832,289.328,191.636,281.694,200.671z"/>
		<path fill="#00A6E8" d="M243.99,74.024c-28.57,3.608-54.022,18.124-71.672,40.874c-17.651,22.754-25.386,51.022-21.776,79.586
			c3.612,28.574,18.128,54.034,40.881,71.679c22.753,17.651,51.017,25.384,79.583,21.771c26.826-3.386,51.206-16.609,68.666-37.236
			c9.644-11.396,8.225-28.445-3.173-38.087c-11.396-9.644-28.447-8.229-38.089,3.166c-8.683,10.268-20.822,16.848-34.176,18.533
			c-29.404,3.713-56.35-17.19-60.064-46.588c-1.801-14.253,2.055-28.345,10.856-39.695c8.802-11.342,21.491-18.582,35.737-20.38
			c19.664-2.482,39.018,6.045,50.51,22.251c8.636,12.179,25.508,15.049,37.685,6.421c12.175-8.635,15.047-25.505,6.411-37.68
			C322.323,86.133,283.481,69.037,243.99,74.024z"/>
	</g>
	<g>
		<path fill="#00A6E8" d="M410.348,361.846c-9.094,0-17.611,2.504-24.913,6.847c-5.743,1.701-12.851,3.805-20.387,6.036
			c-8.706-7.994-20.306-12.883-33.031-12.883c-14.728,0-27.942,6.554-36.913,16.888c-0.7-0.506-1.4-1.01-2.093-1.511
			c-4.291-4.565-9.399-8.241-15.035-10.853c-0.069-0.05-0.116-0.084-0.116-0.084c-2.049-1.475-4.45-2.345-6.943-2.545
			c-4.322-1.239-8.854-1.896-13.488-1.896c-16.567,0-31.227,8.292-40.075,20.936c-8.87-12.632-23.528-20.936-39.968-20.936
			c-10.862,0-20.905,3.564-29.029,9.579c-0.613-1.287-1.333-2.543-2.186-3.744c-12.498-17.627-33.578-26.905-55.003-24.195
			c-15.497,1.957-29.307,9.83-38.883,22.173C44.247,376.015,40,388.486,40,401.384c0,2.47,0.154,4.961,0.465,7.453
			c1.967,15.5,9.839,29.309,22.185,38.883c12.341,9.574,27.676,13.772,43.175,11.807c10.216-1.287,19.776-5.218,27.848-11.313
			l19.166,4.787c7.22,4.209,15.603,6.633,24.546,6.633c1.014,0,2.024-0.045,3.032-0.113c1.144,0.021,2.286-0.096,3.402-0.358
			c2.815-0.401,5.592-1.04,8.305-1.898c3.169,1.521,6.67,2.369,10.273,2.369c9.413,0,17.567-5.472,21.454-13.401
			c8.766,8.297,20.583,13.401,33.577,13.401c12.271,0,24-4.564,33.028-12.862c1.557-1.428,2.892-3.032,4.001-4.767
			c8.975,10.764,22.476,17.629,37.558,17.629c16.008,0,30.242-7.729,39.166-19.653c8.926,11.923,23.161,19.653,39.167,19.653
			c26.964,0,48.904-21.929,48.904-48.89C459.252,383.782,437.312,361.846,410.348,361.846z M105.435,396.569
			c1.525,2.157,3.36,3.956,5.361,5.465c-2.142,1.336-4.121,2.994-5.831,5.023c-1.371,1.615-3.288,2.658-5.395,2.923
			c-4.678,0.593-8.96-2.727-9.548-7.406c-0.291-2.291,0.307-4.478,1.725-6.305c1.416-1.825,3.382-2.946,5.675-3.237
			C100.536,392.637,103.603,393.995,105.435,396.569z"/>
		<path fill="#FFFFFF" d="M410.348,366.12c-8.935,0-17.255,2.674-24.217,7.252c-6.218,1.841-13.945,4.128-22.079,6.536
			c-8.061-8.483-19.437-13.788-32.036-13.788c-14.966,0-28.21,7.481-36.214,18.893c-1.638-1.182-3.3-2.382-4.935-3.563
			c-4.678-5.422-10.571-9.589-17.157-12.201c-0.41-0.196-0.833-0.364-1.267-0.496c-4.738-1.711-9.803-2.633-15.014-2.633
			c-15.996,0-30.033,8.536-37.798,21.293c-1.014,0.864-2.041,1.738-3.074,2.618c-7.399-14.169-22.241-23.911-39.172-23.911
			c-12.297,0-23.433,5.049-31.455,13.178c-0.381-3.253-1.544-6.458-3.568-9.315c-11.509-16.224-30.897-24.758-50.611-22.267
			c-14.252,1.801-26.963,9.04-35.768,20.404c-8.815,11.357-12.672,25.463-10.87,39.717c1.802,14.264,9.041,26.972,20.406,35.776
			c11.357,8.816,25.463,12.667,39.722,10.864c9.97-1.257,19.265-5.245,26.962-11.45l23.641,5.903
			c6.379,3.574,13.723,5.622,21.541,5.622c0.296,0,0.591-0.015,0.886-0.021l0.194,0.049c1.88,0.468,3.865,0.324,5.66-0.417
			l0.633-0.261c2.697-0.47,5.349-1.183,7.917-2.132c2.922,1.741,6.251,2.782,9.723,2.782c10.319,0,18.742-8.186,19.164-18.404
			c8.036,11.135,21.114,18.404,35.867,18.404c11.093,0,21.7-4.131,29.865-11.626c3.268-3,5.349-6.948,5.996-11.278
			c7.537,13.641,22.069,22.904,38.726,22.904c16.997,0,31.767-9.647,39.164-23.744c7.398,14.099,22.176,23.744,39.169,23.744
			c24.387,0,44.22-19.835,44.22-44.214C454.568,385.955,434.735,366.12,410.348,366.12z M120.823,402.758
			c-4.796,0.761-9.12,3.168-12.291,6.914c-2.128,2.515-5.107,4.127-8.383,4.547c-7.225,0.908-13.854-4.232-14.771-11.457
			c-0.445-3.506,0.511-6.975,2.674-9.772c2.162-2.781,5.283-4.564,8.784-5.004c4.833-0.612,9.584,1.486,12.413,5.471
			c2.907,4.1,7.072,6.781,11.604,7.915c-0.033,0.324-0.05,0.653-0.05,0.986C120.803,402.493,120.818,402.624,120.823,402.758z"/>
		<path fill="#7ED2F6" d="M208.329,408.966v23.859c3.634-3.095,9.656-8.224,16.07-13.687c-0.764-2.802-1.18-5.747-1.18-8.791
			c0-7.209,2.296-13.876,6.185-19.329C222.691,396.735,214.83,403.43,208.329,408.966z"/>
		<path fill="#7ED2F6" d="M394.827,380.268c-8.549,2.531-22.806,6.75-37.307,11.043c3.667,4.797,6.007,10.652,6.484,17.019
			l12.701-3.761C378.648,393.952,385.504,385.037,394.827,380.268z"/>
		<g>
			<path fill="#7ED2F6" d="M299.924,410.742c0-3.608,0.609-7.075,1.714-10.315c-5.618-4.056-19.501-14.078-19.501-14.078
				l-4.962,18.819c0,0,20.198,14.581,25.411,18.345C300.878,419.596,299.924,415.279,299.924,410.742z"/>
		</g>
		<g>
			<path fill="#7ED2F6" d="M180.409,445.701l0.258,0.064l0.132-0.055C180.669,445.711,180.54,445.703,180.409,445.701z"/>
			<path fill="#7ED2F6" d="M145.654,418.303c-11.248-2.811-20.941-5.232-20.941-5.232l-4.399,17.624l43.928,10.969
				C155.113,436.945,148.235,428.484,145.654,418.303z"/>
		</g>
		<path fill="#00A6E8" d="M375.216,410.744c0,19.375,15.76,35.132,35.132,35.132c19.38,0,35.138-15.757,35.138-35.132
			c0-19.375-15.758-35.136-35.138-35.136C390.976,375.608,375.216,391.37,375.216,410.744z M395.46,410.744
			c0-8.21,6.676-14.894,14.888-14.894c8.219,0,14.9,6.684,14.9,14.894c0,8.213-6.68,14.899-14.9,14.899
			C402.136,425.643,395.46,418.957,395.46,410.744z"/>
		<path fill="#00A6E8" d="M296.885,410.744c0,19.375,15.757,35.132,35.131,35.132c19.369,0,35.136-15.757,35.136-35.132
			c0-19.375-15.767-35.136-35.136-35.136C312.642,375.608,296.885,391.37,296.885,410.744z M317.112,410.744
			c0-8.21,6.691-14.894,14.904-14.894c8.215,0,14.901,6.684,14.901,14.894c0,8.213-6.685,14.899-14.901,14.899
			C323.804,425.643,317.112,418.957,317.112,410.744z"/>
		<path fill="#00A6E8" d="M222.295,410.744c0,19.375,15.76,35.132,35.133,35.132c8.812,0,17.237-3.279,23.722-9.237
			c4.12-3.78,4.392-10.184,0.611-14.3c-3.777-4.112-10.18-4.382-14.296-0.604c-2.741,2.516-6.307,3.907-10.037,3.907
			c-8.211,0-14.895-6.685-14.895-14.899c0-8.21,6.683-14.894,14.895-14.894c5.491,0,10.514,3.013,13.116,7.871
			c2.639,4.929,8.761,6.782,13.695,4.151c4.925-2.641,6.781-8.766,4.15-13.7c-6.128-11.45-17.993-18.564-30.961-18.564
			C238.055,375.608,222.295,391.37,222.295,410.744z"/>
		<path fill="#00A6E8" d="M92.889,357.129c-11.846,1.506-22.41,7.524-29.733,16.966c-7.322,9.438-10.528,21.165-9.033,33.019
			c1.5,11.85,7.52,22.412,16.961,29.732c9.436,7.325,21.165,10.533,33.015,9.031c11.13-1.402,21.246-6.889,28.489-15.449
			c4.002-4.725,3.407-11.796-1.316-15.8c-4.733-4.003-11.801-3.408-15.806,1.315c-3.599,4.257-8.635,6.993-14.175,7.688
			c-12.199,1.543-23.381-7.13-24.918-19.327c-0.748-5.91,0.853-11.758,4.501-16.467c3.655-4.707,8.919-7.713,14.826-8.453
			c8.161-1.031,16.189,2.505,20.957,9.228c3.583,5.056,10.578,6.244,15.634,2.666c5.051-3.583,6.239-10.583,2.659-15.633
			C125.389,362.159,109.274,355.068,92.889,357.129z"/>
		<path fill="#00A6E8" d="M212.485,410.158c-0.314-19.11-15.928-34.55-35.1-34.55c-19.375,0-35.139,15.762-35.139,35.136
			c0,19.375,15.764,35.132,35.139,35.132c6.072,0,11.788-1.552,16.78-4.269c1.832,2.576,4.831,4.269,8.233,4.269
			c5.59,0,10.12-4.531,10.12-10.116v-25.016C212.518,410.494,212.506,410.31,212.485,410.158z M177.385,425.643
			c-8.215,0-14.9-6.685-14.9-14.899c0-8.21,6.684-14.894,14.9-14.894c8.21,0,14.894,6.684,14.894,14.894
			C192.279,418.957,185.595,425.643,177.385,425.643z"/>
	</g>
</g>
</svg>
