<?xml version="1.0" encoding="utf-8"?>
<!-- Generator: Adobe Illustrator 17.0.0, SVG Export Plug-In . SVG Version: 6.00 Build 0)  -->
<!DOCTYPE svg PUBLIC "-//W3C//DTD SVG 1.1//EN" "http://www.w3.org/Graphics/SVG/1.1/DTD/svg11.dtd">
<svg version="1.1" xmlns="http://www.w3.org/2000/svg" xmlns:xlink="http://www.w3.org/1999/xlink" x="0px" y="0px" viewBox="0 0 500 500" enable-background="new 0 0 500 500" xml:space="preserve">
<g id="Guides">
</g>
<g id="Pinterest">
</g>
<g id="Prezi">
</g>
<g id="SkyDrive">
</g>
<g id="Dropbox">
	<rect fill="#FFFFFF" width="500" height="500"/>
	<g>
		<linearGradient id="SVGID_1_" gradientUnits="userSpaceOnUse" x1="131.0921" y1="459.928" x2="133.5694" y2="388.9858">
			<stop  offset="0.5399" style="stop-color:#231F20"/>
			<stop  offset="0.6805" style="stop-color:#312E2F"/>
			<stop  offset="0.9514" style="stop-color:#575656"/>
			<stop  offset="1" style="stop-color:#5E5E5E"/>
		</linearGradient>
		<path fill="url(#SVGID_1_)" stroke="#231F20" stroke-width="0.5" stroke-miterlimit="10" d="M114.906,459.363h19.415v-41.354
			c0,0,2.241-10.08,9.335-10.08h7.842v-18.294c0,0-14.936-1.866-18.296,15.68l-2.613,0.376l-0.747-14.191l-14.934-0.374V459.363z"/>
		<g>
			<linearGradient id="SVGID_2_" gradientUnits="userSpaceOnUse" x1="178.5627" y1="461.9999" x2="181.1839" y2="386.9373">
				<stop  offset="0.5399" style="stop-color:#231F20"/>
				<stop  offset="0.6805" style="stop-color:#312E2F"/>
				<stop  offset="0.9514" style="stop-color:#575656"/>
				<stop  offset="1" style="stop-color:#5E5E5E"/>
			</linearGradient>
			<path fill="url(#SVGID_2_)" stroke="#231F20" stroke-width="0.5" stroke-miterlimit="10" d="M179.876,386.906
				c-16.291,0-29.5,16.817-29.5,37.564c0,20.741,13.209,37.561,29.5,37.561c16.29,0,29.495-16.82,29.495-37.561
				C209.371,403.723,196.165,386.906,179.876,386.906z M179.876,450.122c-5.156,0-9.337-11.201-9.337-25.015
				c0-13.82,4.181-25.018,9.337-25.018c5.153,0,9.332,11.198,9.332,25.018C189.208,438.921,185.029,450.122,179.876,450.122z"/>
		</g>
		<g>
			<linearGradient id="SVGID_3_" gradientUnits="userSpaceOnUse" x1="373.0973" y1="464.6712" x2="375.7185" y2="389.6087">
				<stop  offset="0.5399" style="stop-color:#231F20"/>
				<stop  offset="0.6805" style="stop-color:#312E2F"/>
				<stop  offset="0.9514" style="stop-color:#575656"/>
				<stop  offset="1" style="stop-color:#5E5E5E"/>
			</linearGradient>
			<path fill="url(#SVGID_3_)" stroke="#231F20" stroke-width="0.5" stroke-miterlimit="10" d="M374.408,389.577
				c-16.291,0-29.497,16.817-29.497,37.561c0,20.744,13.206,37.564,29.497,37.564c16.291,0,29.497-16.82,29.497-37.564
				C403.905,406.395,390.699,389.577,374.408,389.577z M374.408,452.791c-5.153,0-9.332-11.198-9.332-25.015
				c0-13.817,4.179-25.016,9.332-25.016c5.153,0,9.332,11.198,9.332,25.016C383.74,441.593,379.561,452.791,374.408,452.791z"/>
		</g>
		<g>
			<linearGradient id="SVGID_4_" gradientUnits="userSpaceOnUse" x1="243.2148" y1="484.3136" x2="246.531" y2="389.3494">
				<stop  offset="0.5399" style="stop-color:#231F20"/>
				<stop  offset="0.6805" style="stop-color:#312E2F"/>
				<stop  offset="0.9514" style="stop-color:#575656"/>
				<stop  offset="1" style="stop-color:#5E5E5E"/>
			</linearGradient>
			<path fill="url(#SVGID_4_)" stroke="#231F20" stroke-width="0.5" stroke-miterlimit="10" d="M272.672,424.57
				c0,0,1.118-32.34-18.299-34.895c0,0-10.826-1.811-18.669,10.14l-1.12-10.14h-16.055v93.777h16.428v-28.752
				c0,0,10.455,7.019,12.321,7.432c1.869,0.41,7.095,0,7.095,0S276.031,457.163,272.672,424.57z M245.775,451.617
				c-5.67,0-10.268-11.225-10.268-25.065c0-13.841,4.598-25.06,10.268-25.06s10.269,11.219,10.269,25.06
				C256.045,440.393,251.445,451.617,245.775,451.617z"/>
		</g>
		<g>
			
				<linearGradient id="SVGID_5_" gradientUnits="userSpaceOnUse" x1="309.4826" y1="-235.3553" x2="312.7745" y2="-141.0868" gradientTransform="matrix(1 0 0 -1 0 226.8516)">
				<stop  offset="0.5399" style="stop-color:#231F20"/>
				<stop  offset="0.6805" style="stop-color:#312E2F"/>
				<stop  offset="0.9514" style="stop-color:#575656"/>
				<stop  offset="1" style="stop-color:#5E5E5E"/>
			</linearGradient>
			<path fill="url(#SVGID_5_)" stroke="#231F20" stroke-width="0.5" stroke-miterlimit="10" d="M320.951,388.827
				c0,0-5.527-0.408-7.501,0c-1.974,0.413-13.027,7.432-13.027,7.432v-28.752h-17.375v93.777h16.981l1.184-10.138
				c8.29,11.948,19.739,10.138,19.739,10.138c20.533-2.555,19.349-34.892,19.349-34.892
				C343.847,393.794,320.951,388.827,320.951,388.827z M322.716,424.407c0,13.841-4.858,25.063-10.856,25.063
				c-5.995,0-10.856-11.222-10.856-25.063c0-13.844,4.861-25.063,10.856-25.063C317.858,399.344,322.716,410.563,322.716,424.407z"
				/>
		</g>
		<linearGradient id="SVGID_6_" gradientUnits="userSpaceOnUse" x1="431.312" y1="460.0928" x2="433.7527" y2="390.201">
			<stop  offset="0.5399" style="stop-color:#231F20"/>
			<stop  offset="1" style="stop-color:#5E5E5E"/>
		</linearGradient>
		<polygon fill="url(#SVGID_6_)" stroke="#231F20" stroke-width="0.5" stroke-miterlimit="10" points="460.284,391.127 
			442.735,391.127 433.353,406.937 425.186,391.127 405.958,391.127 423.407,423.701 402.41,459.084 419.588,459.084 
			431.608,439.011 442.361,459.084 460.284,459.084 441.44,422.596 		"/>
		<linearGradient id="SVGID_7_" gradientUnits="userSpaceOnUse" x1="73.1918" y1="459.532" x2="69.9614" y2="367.0265">
			<stop  offset="0.5399" style="stop-color:#231F20"/>
			<stop  offset="0.6805" style="stop-color:#312E2F"/>
			<stop  offset="0.9514" style="stop-color:#575656"/>
			<stop  offset="1" style="stop-color:#5E5E5E"/>
		</linearGradient>
		<path fill="url(#SVGID_7_)" stroke="#231F20" stroke-width="0.5" stroke-miterlimit="10" d="M104.282,400.749
			c0.026-3.603-0.446-7.109-1.484-10.459c-0.578-2.263-1.286-3.995-2.1-5.058c-3.835-7.153-11.052-13.217-23.173-17.159H40v91.29
			h37.525c0,0,0.013-0.013,0.016-0.019c0.071,0.005,0.138,0.019,0.208,0.019c13.281,0,24.214-15.901,25.777-36.406
			c0.324-2.59,0.583-5.316,0.75-8.143C104.573,409.753,104.556,404.976,104.282,400.749z M85.069,413.719
			c-1.462,25.202-14.221,33.043-14.221,33.043H59.085v-66.088h12.992C76.105,381.234,86.528,388.514,85.069,413.719z"/>
	</g>
	<g>
		<linearGradient id="SVGID_8_" gradientUnits="userSpaceOnUse" x1="249.7757" y1="242.2356" x2="155.8627" y2="242.2356">
			<stop  offset="0" style="stop-color:#C1E0F6"/>
			<stop  offset="1" style="stop-color:#64B3E3"/>
		</linearGradient>
		<polygon opacity="0.8" fill="url(#SVGID_8_)" stroke="#79C3EC" stroke-miterlimit="10" points="155.863,155.421 249.776,211.519 
			249.776,329.05 155.863,266.329 		"/>
		<linearGradient id="SVGID_9_" gradientUnits="userSpaceOnUse" x1="311.1947" y1="318.2204" x2="284.3983" y2="166.2508">
			<stop  offset="0" style="stop-color:#C1E0F6"/>
			<stop  offset="1" style="stop-color:#64B3E3"/>
		</linearGradient>
		<polygon opacity="0.8" fill="url(#SVGID_9_)" stroke="#79C3EC" stroke-miterlimit="10" points="345.817,266.756 345.817,155.421 
			250.001,212.829 249.776,329.05 		"/>
		<linearGradient id="SVGID_10_" gradientUnits="userSpaceOnUse" x1="88.7761" y1="151.5176" x2="411.2239" y2="151.5176">
			<stop  offset="0" style="stop-color:#C1E0F6"/>
			<stop  offset="1" style="stop-color:#64B3E3"/>
		</linearGradient>
		<polygon opacity="0.9" fill="url(#SVGID_10_)" stroke="#79C3EC" stroke-miterlimit="10" points="250.636,94.19 316.06,39.333 
			411.224,100.135 348.772,152.18 411.224,205.709 314.571,263.702 250.636,214.632 186.694,263.702 88.776,205.709 
			156.202,154.409 88.776,103.11 186.694,39.333 		"/>
		<linearGradient id="SVGID_11_" gradientUnits="userSpaceOnUse" x1="266.7328" y1="197.3143" x2="197.9712" y2="118.2131">
			<stop  offset="0" style="stop-color:#ECF8FE"/>
			<stop  offset="1" style="stop-color:#C7EAFA"/>
		</linearGradient>
		<polygon opacity="0.7" fill="url(#SVGID_11_)" points="157.37,153.507 250.841,97.033 250.001,211.859 		"/>
		<linearGradient id="SVGID_12_" gradientUnits="userSpaceOnUse" x1="250.0012" y1="154.4458" x2="343.2022" y2="154.4458">
			<stop  offset="0" style="stop-color:#ECF8FE"/>
			<stop  offset="1" style="stop-color:#C7EAFA"/>
		</linearGradient>
		<polygon opacity="0.7" fill="url(#SVGID_12_)" points="250.841,97.033 343.202,150.103 250.001,211.859 		"/>
	</g>
</g>
<g id="Drive">
</g>
<g id="Copy">
</g>
<g id="Snaggy">
</g>
<g id="Blackboard">
</g>
<g id="SLS">
</g>
</svg>
