<?xml version="1.0" encoding="utf-8"?>
<!-- Generator: Adobe Illustrator 17.0.0, SVG Export Plug-In . SVG Version: 6.00 Build 0)  -->
<!DOCTYPE svg PUBLIC "-//W3C//DTD SVG 1.1//EN" "http://www.w3.org/Graphics/SVG/1.1/DTD/svg11.dtd">
<svg version="1.1" xmlns="http://www.w3.org/2000/svg" xmlns:xlink="http://www.w3.org/1999/xlink" x="0px" y="0px" viewBox="0 0 500 500" enable-background="new 0 0 500 500" xml:space="preserve">
<g id="Guides">
</g>
<g id="Pinterest">
	<rect fill="#FFFFFF" width="500" height="500"/>
	<g>
		<path fill="#CB2128" d="M250.005,40c-84.904,0-153.742,68.832-153.742,153.74c0,62.952,37.855,117.034,92.024,140.811
			c-0.433-10.735-0.078-23.622,2.676-35.302c2.956-12.481,19.782-83.772,19.782-83.772s-4.912-9.816-4.912-24.325
			c0-22.782,13.205-39.798,29.65-39.798c13.984,0,20.739,10.503,20.739,23.081c0,14.058-8.965,35.085-13.576,54.56
			c-3.852,16.308,8.177,29.61,24.266,29.61c29.128,0,48.746-37.411,48.746-81.738c0-33.695-22.695-58.915-63.971-58.915
			c-46.636,0-75.689,34.778-75.689,73.625c0,13.394,3.949,22.84,10.135,30.154c2.844,3.36,3.239,4.711,2.21,8.569
			c-0.737,2.829-2.431,9.639-3.132,12.338c-1.024,3.894-4.178,5.286-7.698,3.848c-21.48-8.769-31.484-32.292-31.484-58.735
			c0-43.672,36.832-96.039,109.878-96.039c58.696,0,97.327,42.475,97.327,88.068c0,60.309-33.528,105.366-82.952,105.366
			c-16.598,0-32.21-8.973-37.558-19.163c0,0-8.925,35.422-10.816,42.261c-3.259,11.854-9.64,23.7-15.473,32.934
			c13.828,4.082,28.433,6.305,43.571,6.305c84.898,0,153.732-68.832,153.732-153.742C403.737,108.832,334.902,40,250.005,40z"/>
	</g>
	<g>
		<path fill="#CB2128" d="M136.523,403.25c4.554,0,8.923-3.791,9.683-8.469c0.899-4.553-2.189-8.343-6.739-8.343
			c-4.552,0-8.922,3.791-9.692,8.343C128.887,399.458,131.847,403.25,136.523,403.25z"/>
		<path fill="#CB2128" d="M445.546,416.781c0,0,9.993,0,10.187,0c1.396,0,2.213-0.567,2.529-1.87
			c0.45-1.875,1.269-5.148,1.504-6.043c0.302-1.173-0.381-2.061-1.681-2.061c-0.312,0-5.101,0-10.052,0
			c0.724-2.881,3.544-12.233,3.544-18.331c0-12.177-10.34-22.536-25.012-22.536c-16.57,0-27.35,11.12-27.35,26.768
			c0,4.564,1.702,9.884,3.813,13.184c-0.882-0.051-1.791-0.077-2.729-0.077c-12.591,0-20.521,6.83-20.521,16.768
			c0,9.327,7.354,12.952,14.276,15.363c6.149,2.143,11.811,3.14,11.811,7.944c0,3.239-3.116,5.139-9.212,5.139
			c-7.234,0-11.211-3.407-12.222-4.699c0.685-0.539,1.705-1.821,1.705-3.958c0-2.989-2.098-5.427-5.998-5.427
			c-3.299,0-6.088,2.69-6.787,6.23c-5.298,4.335-11.081,7.144-19.282,7.144c-8.075,0-12.267-4.201-12.267-13.138
			c1.893,0.575,6.823,1.268,10.081,1.268c13.673,0,22.993-6.213,22.993-18.654c0-6.69-5.873-13.717-17.493-13.717h-0.026
			c-15.283,0-23.843,9.681-27.58,20.329c-1.047-0.252-2.097-0.5-3.147-0.734c0.836-2.363,1.436-5.1,1.436-8.134
			c0-5.259-3.256-11.461-11.971-11.461c-6.07,0-11.828,3.976-15.82,9.936c0.992-3.887,1.65-6.476,1.694-6.65
			c0.259-1.017-0.164-2.149-1.749-2.149c-2.037,0-8.945,0-8.945,0c-1.274,0-2.174,0.45-2.537,1.902
			c-0.243,0.968-3.316,13.027-6.309,24.767c-1.885,7.321-11.633,16.434-23.885,16.434c-8.077,0-12.265-4.477-12.265-13.417
			c2.113,0.841,6.823,1.548,10.079,1.548c14.229,0,22.993-6.213,22.993-18.654c0-6.69-5.873-13.717-17.493-13.717h-0.025
			c-17.209,0-27.75,13.366-29.538,28.521c-0.743,6.3-6.06,14.951-11.825,14.951c-2.807,0-4.374-1.764-4.374-4.759
			c0-2.587,1.821-8.91,3.816-16.835c0.669-2.651,1.683-6.694,2.807-11.177c5.081,0,9.162,0,9.357,0c1.392,0,2.21-0.567,2.526-1.87
			c0.448-1.875,1.269-5.148,1.502-6.043c0.302-1.173-0.377-2.061-1.682-2.061c-0.308,0-9.2,0-9.2,0s4.236-16.9,4.336-17.334
			c0.407-1.719-1.029-2.71-2.535-2.394c0,0-7.111,1.392-8.43,1.667c-1.326,0.268-2.354,0.996-2.833,2.907
			c-0.061,0.244-3.766,15.153-3.766,15.153s-7.218,0-7.387,0c-1.392,0-2.211,0.568-2.523,1.868c-0.45,1.873-1.275,5.149-1.503,6.044
			c-0.306,1.173,0.377,2.061,1.679,2.061c0.266,0,3.302,0,7.245,0c-0.052,0.207-2.617,9.966-4.691,18.704
			c-0.977,4.202-4.248,14.034-9.604,14.034c-3.199,0-4.552-1.613-4.552-5.076c0-5.452,5.367-19.1,5.367-25.293
			c0-8.272-4.438-13.065-13.529-13.065c-5.731,0-11.674,3.7-14.192,6.948c0,0,0.763-2.658,1.025-3.681
			c0.279-1.08-0.3-2.14-1.718-2.14c-2.032,0-6.96,0-8.89,0c-1.892,0-2.415,1.011-2.692,2.124c-0.111,0.446-3.313,13.026-6.389,25.1
			c-2.104,8.269-7.214,15.178-12.678,15.178c-2.81,0-4.06-1.763-4.06-4.758c0-2.588,1.672-8.972,3.667-16.897
			c2.427-9.648,4.568-17.591,4.797-18.52c0.299-1.19-0.233-2.226-1.766-2.226c-1.922,0-6.912,0-8.944,0
			c-1.619,0-2.199,0.85-2.54,2.031c0,0-2.517,9.529-5.183,20.136c-1.936,7.698-4.074,15.54-4.074,19.223
			c0,6.575,2.953,11.53,11.068,11.53c6.264,0,11.221-3.176,15.006-7.222c-0.557,2.19-0.911,3.577-0.948,3.718
			c-0.326,1.252,0.069,2.36,1.544,2.36c2.032,0,7.148,0,9.152,0c1.593,0,2.206-0.641,2.538-2.03
			c0.32-1.325,7.156-28.211,7.156-28.211c1.807-7.223,6.274-12.004,12.561-12.004c2.981,0,5.561,1.974,5.261,5.81
			c-0.332,4.221-5.421,19.379-5.421,26.033c0,5.036,1.867,11.551,11.348,11.551c6.462,0,11.22-3.098,14.678-7.096
			c1.266,4.243,4.622,7.096,10.777,7.096c10.229,0,16.395-6.067,20.018-12.161c3.005,7.08,10.046,12.159,20.37,12.159
			c10.523,0,18.666-4.436,24.437-10.467c-1.037,4.067-1.74,6.828-1.8,7.059c-0.327,1.272,0.226,2.271,1.719,2.271
			c1.992,0,8.198,0,9.058,0c1.24,0,2.123-0.631,2.445-1.934c0.159-0.64,1.468-5.697,3.316-12.883
			c3.535-13.752,9.218-28.02,17.754-28.02c3.011,0,4.245,1.683,4.245,4.335c0,1.25-0.363,2.331-0.677,2.91
			c-4.139-0.823-7.468,1.22-7.468,5.639c0,2.879,3.029,5.495,7.117,5.495c3.124,0,5.707-0.765,7.766-2.153
			c1.924,0.396,3.99,0.846,6.068,1.321c-0.318,2.067-0.476,4.099-0.476,6.027c0,11.038,7.882,20.399,22.01,20.399
			c11.07,0,18.667-4.049,25.226-9.241c3.153,5.158,11.112,9.326,21.555,9.326c14.312,0,22.43-7.443,22.43-17.28
			c0-8.902-7.309-12.181-14.847-14.908c-6.127-2.214-11.238-3.417-11.238-7.748c0-3.55,2.795-5.173,7.584-5.173
			c3.107,0,5.44,0.669,6.686,1.019c1.236,3.092,3.792,6.516,8.156,6.516c3.693,0,5.351-2.92,5.351-5.611
			c0-7.657-12.755-8.459-12.755-24.88c0-10.211,5.778-18.634,17.745-18.634c8.315,0,13.744,5.272,13.744,13.782
			c0,7.016-4.256,19.506-4.256,19.506s-7.063,0-7.232,0c-1.39,0-2.21,0.568-2.524,1.868c-0.45,1.873-1.273,5.149-1.505,6.044
			c-0.304,1.173,0.378,2.061,1.682,2.061c0.264,0,7.062,0,7.062,0s-7.301,26.924-7.301,31.821c0,6.575,3.705,11.528,11.824,11.528
			c11.484,0,18.659-7.462,21.78-18.313c0.243-0.839-0.233-1.523-1.083-1.523c-1.472,0-3.708,0-4.381,0
			c-0.875,0-1.382,0.499-1.603,1.354c-0.99,3.851-3.442,7.905-8.272,7.905c-2.807,0-4.374-1.764-4.374-4.759
			c0-2.587,1.713-8.643,3.819-16.835C443.759,424.058,445.546,416.781,445.546,416.781z M355.002,416.321
			c4.061,0,5.99,2.701,5.99,5.921c0,5.446-4.224,8.766-10.829,8.766c-2.365,0-5.67-0.561-7.62-1.21
			C343.363,424.789,346.988,416.321,355.002,416.321z M259.478,416.321c4.444,0,5.988,2.701,5.988,5.921
			c0,5.446-4.222,8.766-10.827,8.766c-2.364,0-5.67-0.561-7.621-1.21C247.836,424.789,251.05,416.321,259.478,416.321z"/>
		<path fill="#CB2128" d="M83.75,365.823c-28.976,0-43.586,20.775-43.586,38.098c0,10.489,3.971,19.821,12.489,23.299
			c1.396,0.571,2.648,0.02,3.053-1.527c0.282-1.071,0.948-3.771,1.246-4.894c0.408-1.53,0.25-2.066-0.877-3.399
			c-2.456-2.897-4.026-6.648-4.026-11.96c0-15.413,11.531-29.21,30.027-29.21c16.378,0,25.376,10.007,25.376,23.372
			c0,17.585-7.782,32.426-19.335,32.426c-6.38,0-11.156-5.276-9.625-11.747c1.833-7.726,5.384-16.064,5.384-21.641
			c0-4.992-2.679-9.156-8.225-9.156c-6.522,0-11.761,6.747-11.761,15.786c0,5.756,1.945,9.65,1.945,9.65s-6.674,28.28-7.844,33.232
			c-2.33,9.863-0.35,21.955-0.183,23.176c0.098,0.724,1.028,0.896,1.449,0.349c0.601-0.785,8.37-10.376,11.011-19.957
			c0.747-2.713,4.29-16.764,4.29-16.764c2.119,4.042,8.312,7.602,14.897,7.602c19.605,0,32.906-17.873,32.906-41.797
			C122.36,382.671,107.037,365.823,83.75,365.823z"/>
	</g>
</g>
<g id="Prezi">
</g>
<g id="SkyDrive">
</g>
<g id="Dropbox">
</g>
<g id="Drive">
</g>
<g id="Copy">
</g>
<g id="Snaggy">
</g>
<g id="Blackboard">
</g>
<g id="SLS">
</g>
</svg>
