<?xml version="1.0" encoding="utf-8"?>
<!-- Generator: Adobe Illustrator 17.0.0, SVG Export Plug-In . SVG Version: 6.00 Build 0)  -->
<!DOCTYPE svg PUBLIC "-//W3C//DTD SVG 1.1//EN" "http://www.w3.org/Graphics/SVG/1.1/DTD/svg11.dtd">
<svg version="1.1" xmlns="http://www.w3.org/2000/svg" xmlns:xlink="http://www.w3.org/1999/xlink" x="0px" y="0px" viewBox="0 0 500 500" enable-background="new 0 0 500 500" xml:space="preserve">
<g id="Guides">
</g>
<g id="Pinterest">
</g>
<g id="Prezi">
	<rect fill="#FFFFFF" width="500" height="500"/>
	<g>
		<path fill="#007DAF" d="M76.107,345.955C56.166,345.955,40,363.259,40,384.604v67.258c0,0-0.141,5.995,4.868,5.995
			c5.008,0,4.527-5.995,4.527-5.995c0-15.852,12.512-28.704,27.947-28.704c0.305,0,0.607,0.014,0.91,0.024
			c18.942-1.189,33.962-18.003,33.962-38.578C112.214,363.259,96.049,345.955,76.107,345.955z M76.107,413.381
			c-14.81,0-26.816-12.851-26.816-28.705c0-15.852,12.006-28.704,26.816-28.704c14.81,0,26.816,12.852,26.816,28.704
			C102.923,400.53,90.918,413.381,76.107,413.381z"/>
		<path fill="#007DAF" d="M208.446,453.626h-0.003c-0.336-8.231-3.597-15.647-8.698-21.098l-0.004-0.018
			c-0.072-0.059-0.123-0.121-0.189-0.179c-0.266-0.28-0.532-0.557-0.807-0.825c-2.479-2.961-1.024-6.239-0.189-7.629
			c5.595-5.795,9.088-13.953,9.088-23.006c0-17.578-13.141-31.83-29.355-31.83c-16.215,0-29.356,14.252-29.356,31.83v51.858h0.082
			c-0.02,0.297-0.019,0.598-0.033,0.897h0.034c0,0-0.144,6.102,4.953,6.102c5.099,0,4.608-6.102,4.608-6.102h0.031
			c0.014-0.271,0.012-0.547,0.035-0.817c0.004-0.054,0.006-0.11,0.01-0.166c0.057-0.632,0.139-1.256,0.242-1.871
			c0.013-0.08,0.025-0.162,0.039-0.243c0.107-0.597,0.236-1.187,0.384-1.766c0.023-0.09,0.045-0.179,0.069-0.268
			c0.153-0.573,0.327-1.137,0.521-1.689c0.03-0.087,0.06-0.171,0.092-0.256c0.201-0.553,0.419-1.096,0.657-1.628
			c0.033-0.071,0.067-0.142,0.1-0.213c0.25-0.541,0.516-1.07,0.803-1.583c0.026-0.046,0.053-0.09,0.078-0.136
			c0.305-0.536,0.626-1.058,0.97-1.562c0.004-0.004,0.006-0.009,0.01-0.014c0.359-0.526,0.739-1.033,1.138-1.521
			c0.004-0.005,0.008-0.01,0.011-0.015c0.386-0.472,0.795-0.926,1.217-1.36c0.027-0.028,0.054-0.058,0.08-0.084
			c0.413-0.42,0.842-0.82,1.286-1.202c0.039-0.034,0.078-0.069,0.118-0.103c0.442-0.375,0.897-0.728,1.365-1.061
			c0.046-0.031,0.09-0.064,0.137-0.097c0.472-0.33,0.957-0.64,1.455-0.927c0.041-0.024,0.084-0.048,0.127-0.071
			c0.509-0.289,1.029-0.556,1.562-0.797c0.028-0.013,0.055-0.024,0.083-0.036c1.685-0.753,3.483-1.264,5.357-1.492
			c0.005,0,0.009-0.002,0.013-0.002c0.001,0,0.002,0,0.002,0c0.729-0.087,1.469-0.136,2.218-0.136c1.258,0,2.488,0.133,3.681,0.375
			c0.006,0.001,0.011,0.002,0.016,0.002c0.62,0.127,1.23,0.285,1.828,0.472c0.01,0.004,0.02,0.006,0.03,0.009
			c0.596,0.188,1.181,0.404,1.754,0.648c0.009,0.004,0.019,0.009,0.029,0.013c0.573,0.247,1.134,0.521,1.681,0.822
			c0.005,0.001,0.009,0.004,0.013,0.006c2.205,1.216,4.181,2.86,5.836,4.839c0.006,0.008,0.014,0.016,0.021,0.024
			c0.394,0.473,0.769,0.966,1.125,1.475c0.025,0.038,0.053,0.073,0.078,0.11c0.34,0.493,0.661,1.002,0.965,1.526
			c0.034,0.059,0.068,0.117,0.102,0.176c0.292,0.513,0.563,1.042,0.817,1.582c0.035,0.074,0.069,0.148,0.104,0.223
			c0.245,0.537,0.471,1.086,0.676,1.648c0.03,0.081,0.059,0.163,0.088,0.245c0.201,0.565,0.381,1.139,0.539,1.725
			c0.023,0.081,0.041,0.162,0.064,0.243c0.154,0.596,0.289,1.199,0.399,1.815c0.013,0.07,0.023,0.139,0.034,0.21
			c0.108,0.634,0.195,1.275,0.252,1.924c0.004,0.045,0.006,0.092,0.01,0.137c0.023,0.286,0.021,0.578,0.038,0.866h0.008
			c0,0-0.142,6.046,4.909,6.046C208.931,459.671,208.446,453.626,208.446,453.626z M178.786,423.188
			c-11.173,0-20.229-9.991-20.229-22.316c0-12.323,9.057-22.314,20.229-22.314c11.174,0,20.231,9.991,20.231,22.314
			C199.016,413.197,189.96,423.188,178.786,423.188z"/>
		<path fill="#007DAF" d="M459.706,375.27c0,0,0.489-6.101-4.608-6.101s-4.954,6.101-4.954,6.101v78.355
			c0,0-0.143,6.102,4.954,6.102s4.608-6.102,4.608-6.102V375.27z"/>
		<path fill="#007DAF" d="M283.023,369.041c-15.939,0-28.858,14.252-28.858,31.83v27.296c0,17.58,12.919,31.833,28.858,31.833
			c8.083,0,15.384-3.672,20.621-9.58l0.007,0.005c0.322-0.373,3.88-4.644,0.378-7.649c-3.409-2.923-6.759,1.115-7.216,1.701l0,0
			c-3.613,3.721-8.456,6.004-13.79,6.004c-7.651,0-14.308-4.686-17.745-11.596h0.012c-0.361-0.777-0.569-1.64-0.569-2.553
			c0-3.346,2.711-6.057,6.057-6.057c0.665,0,1.3,0.116,1.899,0.314c0.805,0.341,1.63,0.644,2.468,0.906
			c0.006,0.001,0.013,0.004,0.02,0.006c0.39,0.121,0.783,0.233,1.179,0.337c0.062,0.016,0.122,0.031,0.183,0.047
			c0.354,0.09,0.709,0.174,1.068,0.25c0.115,0.025,0.232,0.045,0.348,0.069c0.315,0.062,0.631,0.122,0.95,0.172
			c0.174,0.028,0.351,0.05,0.527,0.074c0.27,0.036,0.539,0.075,0.812,0.105c0.253,0.026,0.508,0.043,0.764,0.064
			c0.206,0.015,0.408,0.035,0.614,0.046c0.469,0.025,0.94,0.04,1.415,0.04c0.479,0,0.957-0.015,1.433-0.04
			c0.176-0.01,0.349-0.029,0.524-0.041c0.295-0.021,0.591-0.043,0.882-0.074c0.223-0.024,0.444-0.058,0.666-0.086
			c0.238-0.033,0.477-0.062,0.713-0.1c0.253-0.041,0.503-0.09,0.754-0.138c0.198-0.039,0.398-0.075,0.595-0.118
			c0.277-0.059,0.551-0.127,0.824-0.196c0.163-0.04,0.327-0.08,0.489-0.124c0.301-0.082,0.6-0.169,0.897-0.261
			c0.126-0.039,0.252-0.078,0.376-0.118c0.326-0.107,0.65-0.218,0.972-0.337c0.087-0.033,0.173-0.064,0.26-0.097
			c0.355-0.134,0.706-0.277,1.055-0.427c0.041-0.017,0.082-0.035,0.122-0.053c9.338-4.056,16.297-13.319,17.927-24.553
			c0-0.006,0.002-0.011,0.002-0.017c0.072-0.497,0.132-0.996,0.182-1.5c0.008-0.06,0.016-0.119,0.021-0.181
			c0.044-0.462,0.077-0.927,0.102-1.395c0.006-0.098,0.015-0.193,0.02-0.292c0.026-0.558,0.041-1.12,0.041-1.686
			C311.881,383.293,298.962,369.041,283.023,369.041z M303.161,402.984c-0.001,0.011-0.002,0.023-0.004,0.035
			c-0.062,0.7-0.152,1.39-0.27,2.069c-0.112,0.647-0.251,1.283-0.413,1.908c-0.004,0.014-0.006,0.029-0.01,0.044
			c-0.163,0.625-0.349,1.238-0.559,1.841c-0.004,0.012-0.009,0.025-0.013,0.036c-0.001,0.004-0.002,0.007-0.004,0.011
			c-0.136,0.383-0.279,0.76-0.432,1.132c-0.01,0.026-0.02,0.05-0.03,0.074c-0.646,1.563-1.452,3.027-2.394,4.371
			c-0.23,0.327-0.467,0.647-0.711,0.96c-0.004,0.005-0.009,0.011-0.014,0.017c-1.226,1.558-2.642,2.927-4.21,4.062
			c-0.036,0.026-0.073,0.053-0.11,0.078c-0.266,0.191-0.537,0.373-0.81,0.549c-0.06,0.038-0.119,0.075-0.179,0.113
			c-0.26,0.164-0.524,0.32-0.793,0.47c-0.063,0.036-0.127,0.074-0.191,0.108c-0.287,0.158-0.577,0.307-0.871,0.449
			c-0.043,0.021-0.083,0.043-0.125,0.063c-0.678,0.322-1.375,0.605-2.09,0.846c-0.079,0.026-0.161,0.049-0.24,0.075
			c-0.267,0.085-0.538,0.167-0.809,0.241c-0.119,0.033-0.238,0.063-0.359,0.092c-0.238,0.06-0.477,0.115-0.718,0.167
			c-0.134,0.028-0.268,0.054-0.401,0.078c-0.237,0.044-0.474,0.083-0.713,0.117c-0.134,0.02-0.268,0.041-0.404,0.058
			c-0.255,0.031-0.512,0.054-0.768,0.075c-0.12,0.009-0.238,0.021-0.359,0.03c-0.376,0.023-0.755,0.036-1.135,0.036
			c-0.381,0-0.76-0.014-1.135-0.036c-0.122-0.009-0.24-0.021-0.359-0.03c-0.257-0.021-0.514-0.044-0.769-0.075
			c-0.134-0.016-0.268-0.038-0.404-0.058c-0.238-0.034-0.476-0.073-0.711-0.117c-0.134-0.024-0.268-0.05-0.401-0.078
			c-0.241-0.051-0.48-0.107-0.719-0.167c-0.119-0.029-0.24-0.059-0.359-0.092c-0.271-0.074-0.542-0.155-0.809-0.241
			c-0.079-0.026-0.161-0.049-0.24-0.075c-0.715-0.241-1.411-0.523-2.09-0.846c-0.041-0.02-0.083-0.041-0.124-0.063
			c-0.294-0.142-0.585-0.291-0.872-0.449c-0.064-0.034-0.127-0.072-0.191-0.108c-0.267-0.151-0.532-0.306-0.793-0.47
			c-0.06-0.038-0.118-0.075-0.179-0.113c-0.273-0.177-0.543-0.359-0.81-0.549c-0.036-0.025-0.074-0.051-0.11-0.078
			c-1.568-1.135-2.985-2.504-4.21-4.062c-0.004-0.006-0.009-0.012-0.014-0.017c-0.245-0.312-0.482-0.632-0.711-0.96
			c-0.942-1.344-1.746-2.808-2.394-4.371c-0.01-0.024-0.02-0.048-0.03-0.074c-0.152-0.371-0.296-0.749-0.432-1.132
			c0-0.004-0.002-0.008-0.004-0.011c-0.004-0.011-0.009-0.024-0.013-0.036c-0.21-0.602-0.395-1.216-0.558-1.841
			c-0.005-0.015-0.007-0.03-0.011-0.044c-0.162-0.625-0.3-1.261-0.413-1.908c-0.117-0.679-0.208-1.369-0.27-2.069
			c-0.001-0.013-0.001-0.024-0.003-0.035c-0.06-0.695-0.093-1.399-0.093-2.111c0-12.323,9.057-22.314,20.231-22.314
			c11.173,0,20.229,9.991,20.229,22.314C303.252,401.585,303.221,402.289,303.161,402.984z"/>
		<path fill="#007DAF" d="M398.709,451.241h-12.594c-0.522-0.021-0.871,0-0.871,0h-15.915h-0.583c-4.51,0-8.166-3.687-8.166-8.239
			c0-1.919,0.656-3.681,1.748-5.082h-0.029l18.249-23.186h0.005l21.695-27.566l-0.015-0.011c1.502-1.824,2.404-4.16,2.404-6.707
			c0-5.832-4.728-10.559-10.559-10.559v-0.016h-2.82h-1.776h-8.87h-7.046h-0.085h-0.024h-13.356c0,0-6.102-0.122-6.102,4.179
			c0,4.301,6.102,3.888,6.102,3.888h12.594c0.522,0.021,0.871,0,0.871,0h7.046h0.583c4.51,0,8.166,3.686,8.166,8.238
			c0,1.919-0.656,3.681-1.747,5.081h0.029l-18.249,23.187h-0.005l-21.695,27.566l0.015,0.011c-1.502,1.824-2.404,4.16-2.404,6.707
			c0,5.832,4.728,10.561,10.559,10.561v0.015h13.466h15.915c0,0,0.033,0,0.085,0h13.38c0,0,6.101,0.122,6.101-4.179
			C404.81,450.827,398.709,451.241,398.709,451.241z"/>
	</g>
	<g>
		<path opacity="0.47" fill="#007DAF" d="M198.667,186.805c0,12.598,4.623,24.111,12.251,32.957v-65.914
			C203.29,162.695,198.667,174.206,198.667,186.805z"/>
		<path opacity="0.47" fill="#007DAF" d="M221.244,144.723v84.163c3.852,2.562,8.075,4.609,12.572,6.043V138.68
			C229.319,140.115,225.096,142.162,221.244,144.723z"/>
		<path opacity="0.47" fill="#007DAF" d="M299.689,186.805c0-11.373-3.761-21.865-10.103-30.308v60.617
			C295.928,208.671,299.689,198.178,299.689,186.805z"/>
		<path opacity="0.47" fill="#007DAF" d="M279.708,227.038v-80.466c-3.803-2.892-8.031-5.251-12.572-6.979v94.424
			C271.677,232.289,275.904,229.93,279.708,227.038z"/>
		<path opacity="0.47" fill="#007DAF" d="M255.464,136.698c-2.061-0.256-4.156-0.403-6.285-0.403c-2.131,0-4.225,0.148-6.286,0.403
			v100.215c2.061,0.255,4.155,0.402,6.286,0.402c2.13,0,4.224-0.147,6.285-0.402V136.698z"/>
		<path fill="#007DAF" d="M249.901,117.553c-38.279,0-69.31,31.032-69.31,69.309c0,38.279,31.032,69.31,69.31,69.31
			s69.311-31.031,69.311-69.31C319.212,148.585,288.18,117.553,249.901,117.553z M249.901,248.091
			c-33.815,0-61.229-27.413-61.229-61.229c0-33.815,27.414-61.228,61.229-61.228c33.817,0,61.229,27.413,61.229,61.228
			C311.13,220.678,283.718,248.091,249.901,248.091z"/>
		<path fill="#007DAF" d="M249.901,100.491c-47.702,0-86.372,38.67-86.372,86.371c0,47.702,38.67,86.372,86.372,86.372
			s86.372-38.671,86.372-86.372C336.273,139.162,297.603,100.491,249.901,100.491z M249.901,265.152
			c-43.238,0-78.289-35.052-78.289-78.29c0-43.237,35.05-78.289,78.289-78.289c43.238,0,78.289,35.052,78.289,78.289
			C328.19,230.101,293.139,265.152,249.901,265.152z"/>
		<path fill="#007DAF" d="M249.901,83.43c-57.124,0-103.432,46.308-103.432,103.432c0,57.126,46.308,103.434,103.432,103.434
			s103.432-46.308,103.432-103.434C353.333,129.738,307.025,83.43,249.901,83.43z M249.901,281.765
			c-52.413,0-94.901-42.489-94.901-94.903c0-52.411,42.488-94.901,94.901-94.901s94.901,42.49,94.901,94.901
			C344.802,239.276,302.314,281.765,249.901,281.765z"/>
		<polygon opacity="0.47" fill="#007DAF" points="249.954,72.45 262.758,72.766 266.077,40.853 249.276,40.437 		"/>
		<polygon opacity="0.47" fill="#007DAF" points="274.089,75.019 286.617,77.675 295.722,46.906 279.283,43.422 		"/>
		<polygon opacity="0.47" fill="#007DAF" points="296.364,82.127 307.833,87.825 324.329,60.304 309.278,52.827 		"/>
		<polygon opacity="0.47" fill="#007DAF" points="317.355,94.306 327.639,101.939 348.734,77.761 335.239,67.746 		"/>
		<polygon opacity="0.47" fill="#007DAF" points="334.965,110.384 343.395,120.027 369.14,100.877 358.079,88.226 		"/>
		<polygon opacity="0.47" fill="#007DAF" points="348.785,129.312 354.859,140.588 384.218,127.644 376.248,112.849 		"/>
		<polygon opacity="0.47" fill="#007DAF" points="358.784,150.865 362.04,163.253 393.618,157.571 389.349,141.318 		"/>
		<polygon opacity="0.47" fill="#007DAF" points="363.87,174.377 364.616,187.164 396.697,187.823 395.719,171.048 		"/>
		<polygon opacity="0.47" fill="#007DAF" points="363.612,198.942 362.404,211.692 394.009,217.23 395.595,200.5 		"/>
		<polygon opacity="0.47" fill="#007DAF" points="359.152,221.693 354.721,233.711 383.858,247.147 389.671,231.379 		"/>
		<polygon opacity="0.47" fill="#007DAF" points="348.883,244.289 342.661,255.482 369.389,273.235 377.554,258.547 		"/>
		<polygon opacity="0.47" fill="#007DAF" points="335.103,263.187 326.2,272.395 347.443,296.441 359.121,284.361 		"/>
		<polygon opacity="0.47" fill="#007DAF" points="317.552,279.256 307.012,286.534 323.111,314.291 336.937,304.741 		"/>
		<polygon opacity="0.47" fill="#007DAF" points="297.66,291.15 285.634,295.558 294.271,326.462 310.048,320.678 		"/>
		<polygon opacity="0.47" fill="#007DAF" points="274.914,298.696 262.245,300.569 264.417,332.58 281.043,330.126 		"/>
		<polygon opacity="0.47" fill="#007DAF" points="250.026,301.29 237.222,300.961 233.874,332.874 250.674,333.304 		"/>
		<polygon opacity="0.47" fill="#007DAF" points="226.359,298.853 213.954,295.671 203.555,326.025 219.833,330.202 		"/>
		<polygon opacity="0.47" fill="#007DAF" points="203.555,291.668 191.978,286.19 176.011,314.021 191.201,321.208 		"/>
		<polygon opacity="0.47" fill="#007DAF" points="182.758,279.696 172.585,271.915 151.143,295.785 164.49,305.994 		"/>
		<polygon opacity="0.47" fill="#007DAF" points="164.836,263.283 156.32,253.716 130.747,273.097 141.922,285.648 		"/>
		<polygon opacity="0.47" fill="#007DAF" points="150.91,244.769 145.03,233.393 115.452,245.835 123.17,260.763 		"/>
		<polygon opacity="0.47" fill="#007DAF" points="140.916,222.822 137.752,210.41 106.132,215.861 110.282,232.144 		"/>
		<polygon opacity="0.47" fill="#007DAF" points="135.763,199.731 135.357,186.929 103.303,185.421 103.839,202.215 		"/>
		<polygon opacity="0.47" fill="#007DAF" points="136.109,174.924 137.873,162.238 106.539,155.329 104.225,171.974 		"/>
		<polygon opacity="0.47" fill="#007DAF" points="140.889,151.822 145.231,139.775 115.999,126.547 110.299,142.356 		"/>
		<polygon opacity="0.47" fill="#007DAF" points="150.752,129.95 157.558,119.1 131.805,99.961 122.874,114.197 		"/>
		<polygon opacity="0.47" fill="#007DAF" points="164.636,110.542 173.462,101.26 152.027,77.385 140.446,89.561 		"/>
		<polygon opacity="0.47" fill="#007DAF" points="182.513,94.254 193.043,86.963 176.914,59.225 163.097,68.792 		"/>
		<polygon opacity="0.47" fill="#007DAF" points="203.209,82.392 215.163,77.795 206.04,47.031 190.357,53.064 		"/>
		<polygon opacity="0.47" fill="#007DAF" points="225.617,74.932 238.248,72.827 235.483,40.859 218.907,43.624 		"/>
	</g>
</g>
<g id="SkyDrive">
</g>
<g id="Dropbox">
</g>
<g id="Drive">
</g>
<g id="Copy">
</g>
<g id="Snaggy">
</g>
<g id="Blackboard">
</g>
<g id="SLS">
</g>
</svg>
