<?xml version="1.0" encoding="utf-8"?>
<!-- Generator: Adobe Illustrator 17.0.0, SVG Export Plug-In . SVG Version: 6.00 Build 0)  -->
<!DOCTYPE svg PUBLIC "-//W3C//DTD SVG 1.1//EN" "http://www.w3.org/Graphics/SVG/1.1/DTD/svg11.dtd">
<svg version="1.1" xmlns="http://www.w3.org/2000/svg" xmlns:xlink="http://www.w3.org/1999/xlink" x="0px" y="0px" viewBox="0 0 500 500" enable-background="new 0 0 500 500" xml:space="preserve">
<g id="Guides">
</g>
<g id="Pinterest">
	<rect x="-1040" fill="#FFFFFF" width="500" height="500"/>
	<g>
		<path fill="#CB2128" d="M-789.995,40c-84.904,0-153.742,68.832-153.742,153.74c0,62.952,37.855,117.034,92.024,140.811
			c-0.433-10.735-0.078-23.622,2.676-35.302c2.956-12.481,19.782-83.772,19.782-83.772s-4.912-9.816-4.912-24.325
			c0-22.782,13.205-39.798,29.65-39.798c13.984,0,20.739,10.503,20.739,23.081c0,14.058-8.965,35.085-13.576,54.56
			c-3.852,16.308,8.177,29.61,24.266,29.61c29.128,0,48.746-37.411,48.746-81.738c0-33.695-22.695-58.915-63.971-58.915
			c-46.636,0-75.689,34.778-75.689,73.625c0,13.394,3.949,22.84,10.135,30.154c2.844,3.36,3.239,4.711,2.21,8.569
			c-0.737,2.829-2.431,9.639-3.132,12.338c-1.024,3.894-4.178,5.286-7.698,3.848c-21.48-8.769-31.484-32.292-31.484-58.735
			c0-43.672,36.832-96.039,109.878-96.039c58.696,0,97.327,42.475,97.327,88.068c0,60.309-33.529,105.366-82.952,105.366
			c-16.598,0-32.21-8.973-37.558-19.163c0,0-8.925,35.422-10.816,42.261c-3.259,11.854-9.64,23.7-15.473,32.934
			c13.828,4.082,28.433,6.305,43.571,6.305c84.898,0,153.732-68.832,153.732-153.742C-636.263,108.832-705.098,40-789.995,40z"/>
	</g>
	<g>
		<path fill="#CB2128" d="M-903.477,403.25c4.554,0,8.923-3.791,9.683-8.469c0.899-4.553-2.189-8.343-6.739-8.343
			c-4.552,0-8.922,3.791-9.692,8.343C-911.113,399.458-908.153,403.25-903.477,403.25z"/>
		<path fill="#CB2128" d="M-594.454,416.781c0,0,9.993,0,10.187,0c1.396,0,2.213-0.567,2.529-1.87
			c0.45-1.875,1.269-5.148,1.503-6.043c0.302-1.173-0.381-2.061-1.681-2.061c-0.312,0-5.101,0-10.052,0
			c0.724-2.881,3.544-12.233,3.544-18.331c0-12.177-10.34-22.536-25.012-22.536c-16.57,0-27.35,11.12-27.35,26.768
			c0,4.564,1.702,9.884,3.813,13.184c-0.882-0.051-1.791-0.077-2.729-0.077c-12.591,0-20.521,6.83-20.521,16.768
			c0,9.327,7.354,12.952,14.276,15.363c6.149,2.143,11.811,3.14,11.811,7.944c0,3.239-3.116,5.139-9.212,5.139
			c-7.235,0-11.211-3.407-12.222-4.699c0.685-0.539,1.705-1.821,1.705-3.958c0-2.989-2.098-5.427-5.998-5.427
			c-3.299,0-6.088,2.69-6.787,6.23c-5.298,4.335-11.081,7.144-19.282,7.144c-8.075,0-12.267-4.201-12.267-13.138
			c1.893,0.575,6.823,1.268,10.081,1.268c13.673,0,22.993-6.213,22.993-18.654c0-6.69-5.873-13.717-17.493-13.717h-0.026
			c-15.283,0-23.843,9.681-27.58,20.329c-1.047-0.252-2.097-0.5-3.147-0.734c0.836-2.363,1.436-5.1,1.436-8.134
			c0-5.259-3.256-11.461-11.971-11.461c-6.07,0-11.828,3.976-15.82,9.936c0.992-3.887,1.65-6.476,1.694-6.65
			c0.259-1.017-0.164-2.149-1.749-2.149c-2.037,0-8.945,0-8.945,0c-1.274,0-2.174,0.45-2.537,1.902
			c-0.243,0.968-3.316,13.027-6.309,24.767c-1.885,7.321-11.633,16.434-23.885,16.434c-8.077,0-12.265-4.477-12.265-13.417
			c2.113,0.841,6.823,1.548,10.079,1.548c14.229,0,22.993-6.213,22.993-18.654c0-6.69-5.873-13.717-17.493-13.717h-0.025
			c-17.209,0-27.75,13.366-29.538,28.521c-0.743,6.3-6.06,14.951-11.825,14.951c-2.807,0-4.374-1.764-4.374-4.759
			c0-2.587,1.821-8.91,3.816-16.835c0.669-2.651,1.683-6.694,2.807-11.177c5.081,0,9.162,0,9.357,0c1.392,0,2.21-0.567,2.526-1.87
			c0.448-1.875,1.269-5.148,1.502-6.043c0.302-1.173-0.377-2.061-1.682-2.061c-0.308,0-9.2,0-9.2,0s4.236-16.9,4.336-17.334
			c0.407-1.719-1.029-2.71-2.535-2.394c0,0-7.111,1.392-8.43,1.667c-1.326,0.268-2.354,0.996-2.833,2.907
			c-0.061,0.244-3.766,15.153-3.766,15.153s-7.218,0-7.387,0c-1.392,0-2.211,0.568-2.523,1.868c-0.45,1.873-1.275,5.149-1.503,6.044
			c-0.306,1.173,0.377,2.061,1.68,2.061c0.266,0,3.302,0,7.245,0c-0.052,0.207-2.617,9.966-4.691,18.704
			c-0.977,4.202-4.248,14.034-9.604,14.034c-3.199,0-4.552-1.613-4.552-5.076c0-5.452,5.367-19.1,5.367-25.293
			c0-8.272-4.438-13.065-13.529-13.065c-5.731,0-11.674,3.7-14.192,6.948c0,0,0.763-2.658,1.025-3.681
			c0.279-1.08-0.3-2.14-1.718-2.14c-2.032,0-6.96,0-8.89,0c-1.892,0-2.415,1.011-2.692,2.124c-0.111,0.446-3.313,13.026-6.389,25.1
			c-2.104,8.269-7.214,15.178-12.678,15.178c-2.81,0-4.06-1.763-4.06-4.758c0-2.588,1.672-8.972,3.667-16.897
			c2.427-9.648,4.568-17.591,4.797-18.52c0.299-1.19-0.233-2.226-1.766-2.226c-1.922,0-6.912,0-8.944,0
			c-1.619,0-2.199,0.85-2.54,2.031c0,0-2.517,9.529-5.183,20.136c-1.936,7.698-4.074,15.54-4.074,19.223
			c0,6.575,2.953,11.53,11.068,11.53c6.264,0,11.221-3.176,15.006-7.222c-0.557,2.19-0.911,3.577-0.948,3.718
			c-0.326,1.252,0.069,2.36,1.544,2.36c2.032,0,7.148,0,9.152,0c1.593,0,2.206-0.641,2.538-2.03
			c0.32-1.325,7.156-28.211,7.156-28.211c1.807-7.223,6.274-12.004,12.561-12.004c2.981,0,5.561,1.974,5.261,5.81
			c-0.332,4.221-5.421,19.379-5.421,26.033c0,5.036,1.867,11.551,11.348,11.551c6.462,0,11.22-3.098,14.678-7.096
			c1.266,4.243,4.622,7.096,10.777,7.096c10.229,0,16.395-6.067,20.018-12.161c3.005,7.08,10.047,12.159,20.37,12.159
			c10.523,0,18.666-4.436,24.437-10.467c-1.037,4.067-1.74,6.828-1.8,7.059c-0.327,1.272,0.226,2.271,1.719,2.271
			c1.992,0,8.198,0,9.058,0c1.24,0,2.123-0.631,2.446-1.934c0.159-0.64,1.468-5.697,3.316-12.883
			c3.535-13.752,9.218-28.02,17.754-28.02c3.011,0,4.245,1.683,4.245,4.335c0,1.25-0.363,2.331-0.677,2.91
			c-4.139-0.823-7.468,1.22-7.468,5.639c0,2.879,3.029,5.495,7.117,5.495c3.124,0,5.707-0.765,7.766-2.153
			c1.924,0.396,3.99,0.846,6.068,1.321c-0.318,2.067-0.476,4.099-0.476,6.027c0,11.038,7.882,20.399,22.01,20.399
			c11.07,0,18.667-4.049,25.226-9.241c3.153,5.158,11.112,9.326,21.555,9.326c14.312,0,22.43-7.443,22.43-17.28
			c0-8.902-7.309-12.181-14.847-14.908c-6.127-2.214-11.238-3.417-11.238-7.748c0-3.55,2.795-5.173,7.584-5.173
			c3.107,0,5.44,0.669,6.686,1.019c1.236,3.092,3.792,6.516,8.156,6.516c3.693,0,5.351-2.92,5.351-5.611
			c0-7.657-12.755-8.459-12.755-24.88c0-10.211,5.778-18.634,17.745-18.634c8.315,0,13.744,5.272,13.744,13.782
			c0,7.016-4.256,19.506-4.256,19.506s-7.063,0-7.232,0c-1.39,0-2.21,0.568-2.524,1.868c-0.45,1.873-1.273,5.149-1.505,6.044
			c-0.304,1.173,0.378,2.061,1.682,2.061c0.264,0,7.062,0,7.062,0s-7.301,26.924-7.301,31.821c0,6.575,3.705,11.528,11.824,11.528
			c11.484,0,18.659-7.462,21.78-18.313c0.243-0.839-0.233-1.523-1.083-1.523c-1.472,0-3.708,0-4.381,0
			c-0.875,0-1.382,0.499-1.603,1.354c-0.99,3.851-3.442,7.905-8.272,7.905c-2.807,0-4.374-1.764-4.374-4.759
			c0-2.587,1.713-8.643,3.819-16.835C-596.241,424.058-594.454,416.781-594.454,416.781z M-684.998,416.321
			c4.061,0,5.99,2.701,5.99,5.921c0,5.446-4.224,8.766-10.829,8.766c-2.365,0-5.67-0.561-7.62-1.21
			C-696.637,424.789-693.012,416.321-684.998,416.321z M-780.522,416.321c4.444,0,5.988,2.701,5.988,5.921
			c0,5.446-4.222,8.766-10.827,8.766c-2.365,0-5.67-0.561-7.621-1.21C-792.164,424.789-788.95,416.321-780.522,416.321z"/>
		<path fill="#CB2128" d="M-956.25,365.823c-28.976,0-43.586,20.775-43.586,38.098c0,10.489,3.971,19.821,12.489,23.299
			c1.396,0.571,2.648,0.02,3.053-1.527c0.282-1.071,0.948-3.771,1.246-4.894c0.408-1.53,0.25-2.066-0.877-3.399
			c-2.456-2.897-4.026-6.648-4.026-11.96c0-15.413,11.531-29.21,30.027-29.21c16.378,0,25.376,10.007,25.376,23.372
			c0,17.585-7.782,32.426-19.335,32.426c-6.38,0-11.156-5.276-9.625-11.747c1.833-7.726,5.384-16.064,5.384-21.641
			c0-4.992-2.679-9.156-8.225-9.156c-6.522,0-11.761,6.747-11.761,15.786c0,5.756,1.945,9.65,1.945,9.65s-6.674,28.28-7.844,33.232
			c-2.33,9.863-0.35,21.955-0.183,23.176c0.098,0.724,1.028,0.896,1.449,0.349c0.601-0.785,8.37-10.376,11.011-19.957
			c0.747-2.713,4.29-16.764,4.29-16.764c2.119,4.042,8.312,7.602,14.897,7.602c19.605,0,32.906-17.873,32.906-41.797
			C-917.64,382.671-932.963,365.823-956.25,365.823z"/>
	</g>
</g>
<g id="Prezi">
	<rect x="-520" fill="#FFFFFF" width="500" height="500"/>
	<g>
		<path fill="#007DAF" d="M-443.893,345.955c-19.942,0-36.107,17.304-36.107,38.649v67.258c0,0-0.141,5.995,4.868,5.995
			c5.008,0,4.527-5.995,4.527-5.995c0-15.852,12.512-28.704,27.947-28.704c0.305,0,0.607,0.014,0.91,0.024
			c18.942-1.189,33.962-18.003,33.962-38.578C-407.786,363.259-423.951,345.955-443.893,345.955z M-443.893,413.381
			c-14.81,0-26.816-12.851-26.816-28.705c0-15.852,12.006-28.704,26.816-28.704c14.81,0,26.816,12.852,26.816,28.704
			C-417.077,400.53-429.082,413.381-443.893,413.381z"/>
		<path fill="#007DAF" d="M-311.554,453.626h-0.003c-0.336-8.231-3.597-15.647-8.698-21.098l-0.004-0.018
			c-0.072-0.059-0.123-0.121-0.189-0.179c-0.266-0.28-0.532-0.557-0.807-0.825c-2.479-2.961-1.024-6.239-0.189-7.629
			c5.595-5.795,9.088-13.953,9.088-23.006c0-17.578-13.141-31.83-29.355-31.83c-16.215,0-29.356,14.252-29.356,31.83v51.858h0.082
			c-0.02,0.297-0.019,0.598-0.033,0.897h0.034c0,0-0.144,6.102,4.953,6.102c5.099,0,4.608-6.102,4.608-6.102h0.031
			c0.014-0.271,0.012-0.547,0.035-0.817c0.004-0.054,0.006-0.11,0.01-0.166c0.057-0.632,0.139-1.256,0.242-1.871
			c0.013-0.08,0.025-0.162,0.039-0.243c0.107-0.597,0.236-1.187,0.384-1.766c0.023-0.09,0.045-0.179,0.069-0.268
			c0.153-0.573,0.327-1.137,0.521-1.689c0.03-0.087,0.06-0.171,0.092-0.256c0.201-0.553,0.419-1.096,0.657-1.628
			c0.033-0.071,0.067-0.142,0.1-0.213c0.25-0.541,0.516-1.07,0.803-1.583c0.026-0.046,0.053-0.09,0.078-0.136
			c0.305-0.536,0.626-1.058,0.97-1.562c0.004-0.004,0.006-0.009,0.01-0.014c0.359-0.526,0.739-1.033,1.138-1.521
			c0.004-0.005,0.008-0.01,0.011-0.015c0.386-0.472,0.795-0.926,1.217-1.36c0.027-0.028,0.054-0.058,0.08-0.084
			c0.413-0.42,0.842-0.82,1.286-1.202c0.039-0.034,0.078-0.069,0.118-0.103c0.442-0.375,0.897-0.728,1.365-1.061
			c0.047-0.031,0.09-0.064,0.137-0.097c0.472-0.33,0.957-0.64,1.455-0.927c0.041-0.024,0.084-0.048,0.127-0.071
			c0.509-0.289,1.029-0.556,1.562-0.797c0.028-0.013,0.055-0.024,0.083-0.036c1.685-0.753,3.483-1.264,5.357-1.492
			c0.005,0,0.009-0.002,0.013-0.002c0.001,0,0.002,0,0.002,0c0.729-0.087,1.469-0.136,2.218-0.136c1.258,0,2.488,0.133,3.681,0.375
			c0.006,0.001,0.011,0.002,0.016,0.002c0.62,0.127,1.23,0.285,1.828,0.472c0.01,0.004,0.02,0.006,0.03,0.009
			c0.596,0.188,1.181,0.404,1.754,0.648c0.009,0.004,0.019,0.009,0.029,0.013c0.573,0.247,1.134,0.521,1.681,0.822
			c0.005,0.001,0.009,0.004,0.013,0.006c2.205,1.216,4.181,2.86,5.836,4.839c0.006,0.008,0.014,0.016,0.021,0.024
			c0.394,0.473,0.769,0.966,1.125,1.475c0.025,0.038,0.053,0.073,0.078,0.11c0.34,0.493,0.661,1.002,0.965,1.526
			c0.034,0.059,0.068,0.117,0.102,0.176c0.292,0.513,0.563,1.042,0.817,1.582c0.035,0.074,0.069,0.148,0.104,0.223
			c0.245,0.537,0.471,1.086,0.676,1.648c0.03,0.081,0.059,0.163,0.088,0.245c0.201,0.565,0.381,1.139,0.539,1.725
			c0.023,0.081,0.041,0.162,0.064,0.243c0.154,0.596,0.289,1.199,0.399,1.815c0.013,0.07,0.023,0.139,0.034,0.21
			c0.108,0.634,0.194,1.275,0.252,1.924c0.004,0.045,0.006,0.092,0.01,0.137c0.023,0.286,0.021,0.578,0.038,0.866h0.008
			c0,0-0.142,6.046,4.909,6.046C-311.069,459.671-311.554,453.626-311.554,453.626z M-341.214,423.188
			c-11.173,0-20.229-9.991-20.229-22.316c0-12.323,9.057-22.314,20.229-22.314c11.174,0,20.231,9.991,20.231,22.314
			C-320.983,413.197-330.04,423.188-341.214,423.188z"/>
		<path fill="#007DAF" d="M-60.294,375.27c0,0,0.489-6.101-4.608-6.101s-4.954,6.101-4.954,6.101v78.355
			c0,0-0.143,6.102,4.954,6.102s4.608-6.102,4.608-6.102V375.27z"/>
		<path fill="#007DAF" d="M-236.977,369.041c-15.939,0-28.858,14.252-28.858,31.83v27.296c0,17.58,12.919,31.833,28.858,31.833
			c8.083,0,15.384-3.672,20.621-9.58l0.007,0.005c0.322-0.373,3.88-4.644,0.378-7.649c-3.409-2.923-6.759,1.115-7.216,1.701l0,0
			c-3.613,3.721-8.456,6.004-13.79,6.004c-7.651,0-14.308-4.686-17.745-11.596h0.012c-0.361-0.777-0.569-1.64-0.569-2.553
			c0-3.346,2.711-6.057,6.057-6.057c0.665,0,1.3,0.116,1.899,0.314c0.805,0.341,1.63,0.644,2.468,0.906
			c0.006,0.001,0.013,0.004,0.02,0.006c0.39,0.121,0.783,0.233,1.179,0.337c0.062,0.016,0.122,0.031,0.183,0.047
			c0.354,0.09,0.709,0.174,1.068,0.25c0.115,0.025,0.232,0.045,0.348,0.069c0.315,0.062,0.631,0.122,0.95,0.172
			c0.174,0.028,0.351,0.05,0.527,0.074c0.27,0.036,0.539,0.075,0.812,0.105c0.253,0.026,0.508,0.043,0.764,0.064
			c0.206,0.015,0.408,0.035,0.614,0.046c0.469,0.025,0.94,0.04,1.415,0.04c0.479,0,0.957-0.015,1.433-0.04
			c0.176-0.01,0.349-0.029,0.524-0.041c0.295-0.021,0.591-0.043,0.882-0.074c0.223-0.024,0.444-0.058,0.666-0.086
			c0.238-0.033,0.477-0.062,0.713-0.1c0.253-0.041,0.503-0.09,0.754-0.138c0.198-0.039,0.398-0.075,0.595-0.118
			c0.277-0.059,0.551-0.127,0.824-0.196c0.163-0.04,0.327-0.08,0.489-0.124c0.301-0.082,0.6-0.169,0.897-0.261
			c0.126-0.039,0.252-0.078,0.376-0.118c0.326-0.107,0.65-0.218,0.972-0.337c0.087-0.033,0.173-0.064,0.26-0.097
			c0.355-0.134,0.706-0.277,1.055-0.427c0.041-0.017,0.082-0.035,0.122-0.053c9.338-4.056,16.297-13.319,17.927-24.553
			c0-0.006,0.002-0.011,0.002-0.017c0.072-0.497,0.132-0.996,0.182-1.5c0.008-0.06,0.016-0.119,0.021-0.181
			c0.044-0.462,0.077-0.927,0.102-1.395c0.006-0.098,0.015-0.193,0.02-0.292c0.026-0.558,0.041-1.12,0.041-1.686
			C-208.119,383.293-221.038,369.041-236.977,369.041z M-216.839,402.984c-0.001,0.011-0.002,0.023-0.004,0.035
			c-0.062,0.7-0.152,1.39-0.27,2.069c-0.112,0.647-0.251,1.283-0.413,1.908c-0.004,0.014-0.006,0.029-0.01,0.044
			c-0.163,0.625-0.349,1.238-0.559,1.841c-0.004,0.012-0.009,0.025-0.013,0.036c-0.001,0.004-0.002,0.007-0.004,0.011
			c-0.136,0.383-0.279,0.76-0.432,1.132c-0.01,0.026-0.02,0.05-0.03,0.074c-0.646,1.563-1.452,3.027-2.394,4.371
			c-0.23,0.327-0.467,0.647-0.711,0.96c-0.004,0.005-0.009,0.011-0.014,0.017c-1.226,1.558-2.642,2.927-4.21,4.062
			c-0.036,0.026-0.073,0.053-0.11,0.078c-0.266,0.191-0.537,0.373-0.81,0.549c-0.06,0.038-0.119,0.075-0.179,0.113
			c-0.26,0.164-0.524,0.32-0.793,0.47c-0.063,0.036-0.127,0.074-0.191,0.108c-0.287,0.158-0.577,0.307-0.871,0.449
			c-0.043,0.021-0.083,0.043-0.125,0.063c-0.678,0.322-1.375,0.605-2.09,0.846c-0.079,0.026-0.161,0.049-0.24,0.075
			c-0.267,0.085-0.538,0.167-0.809,0.241c-0.119,0.033-0.238,0.063-0.359,0.092c-0.238,0.06-0.477,0.115-0.718,0.167
			c-0.134,0.028-0.268,0.054-0.401,0.078c-0.237,0.044-0.474,0.083-0.713,0.117c-0.134,0.02-0.268,0.041-0.404,0.058
			c-0.255,0.031-0.512,0.054-0.768,0.075c-0.12,0.009-0.238,0.021-0.359,0.03c-0.376,0.023-0.755,0.036-1.135,0.036
			c-0.381,0-0.76-0.014-1.135-0.036c-0.122-0.009-0.24-0.021-0.359-0.03c-0.257-0.021-0.514-0.044-0.769-0.075
			c-0.134-0.016-0.268-0.038-0.404-0.058c-0.238-0.034-0.476-0.073-0.711-0.117c-0.134-0.024-0.268-0.05-0.401-0.078
			c-0.241-0.051-0.48-0.107-0.719-0.167c-0.119-0.029-0.24-0.059-0.359-0.092c-0.271-0.074-0.542-0.155-0.809-0.241
			c-0.079-0.026-0.161-0.049-0.24-0.075c-0.715-0.241-1.411-0.523-2.09-0.846c-0.041-0.02-0.083-0.041-0.124-0.063
			c-0.294-0.142-0.585-0.291-0.872-0.449c-0.064-0.034-0.127-0.072-0.191-0.108c-0.267-0.151-0.532-0.306-0.793-0.47
			c-0.06-0.038-0.118-0.075-0.179-0.113c-0.273-0.177-0.543-0.359-0.81-0.549c-0.036-0.025-0.074-0.051-0.11-0.078
			c-1.568-1.135-2.985-2.504-4.21-4.062c-0.004-0.006-0.009-0.012-0.014-0.017c-0.245-0.312-0.482-0.632-0.711-0.96
			c-0.942-1.344-1.746-2.808-2.394-4.371c-0.01-0.024-0.02-0.048-0.03-0.074c-0.152-0.371-0.296-0.749-0.432-1.132
			c0-0.004-0.002-0.008-0.004-0.011c-0.004-0.011-0.009-0.024-0.013-0.036c-0.21-0.602-0.395-1.216-0.558-1.841
			c-0.005-0.015-0.007-0.03-0.011-0.044c-0.162-0.625-0.3-1.261-0.413-1.908c-0.117-0.679-0.208-1.369-0.27-2.069
			c-0.001-0.013-0.001-0.024-0.003-0.035c-0.06-0.695-0.093-1.399-0.093-2.111c0-12.323,9.057-22.314,20.231-22.314
			c11.173,0,20.229,9.991,20.229,22.314C-216.748,401.585-216.779,402.289-216.839,402.984z"/>
		<path fill="#007DAF" d="M-121.291,451.241h-12.594c-0.522-0.021-0.871,0-0.871,0h-15.915h-0.583c-4.51,0-8.166-3.687-8.166-8.239
			c0-1.919,0.656-3.681,1.748-5.082h-0.029l18.249-23.186h0.005l21.695-27.566l-0.015-0.011c1.502-1.824,2.404-4.16,2.404-6.707
			c0-5.832-4.728-10.559-10.559-10.559v-0.016h-2.82h-1.776h-8.87h-7.046h-0.085h-0.024h-13.356c0,0-6.102-0.122-6.102,4.179
			c0,4.301,6.102,3.888,6.102,3.888h12.594c0.522,0.021,0.871,0,0.871,0h7.046h0.583c4.51,0,8.166,3.686,8.166,8.238
			c0,1.919-0.656,3.681-1.747,5.081h0.029l-18.249,23.187h-0.005l-21.695,27.566l0.015,0.011c-1.502,1.824-2.404,4.16-2.404,6.707
			c0,5.832,4.728,10.561,10.559,10.561v0.015h13.466h15.915c0,0,0.033,0,0.085,0h13.38c0,0,6.101,0.122,6.101-4.179
			C-115.19,450.827-121.291,451.241-121.291,451.241z"/>
	</g>
	<g>
		<path opacity="0.47" fill="#007DAF" d="M-321.333,186.805c0,12.598,4.623,24.111,12.251,32.957v-65.914
			C-316.71,162.695-321.333,174.206-321.333,186.805z"/>
		<path opacity="0.47" fill="#007DAF" d="M-298.756,144.723v84.163c3.852,2.562,8.075,4.609,12.572,6.043V138.68
			C-290.681,140.115-294.904,142.162-298.756,144.723z"/>
		<path opacity="0.47" fill="#007DAF" d="M-220.311,186.805c0-11.373-3.761-21.865-10.103-30.308v60.617
			C-224.072,208.671-220.311,198.178-220.311,186.805z"/>
		<path opacity="0.47" fill="#007DAF" d="M-240.292,227.038v-80.466c-3.803-2.892-8.031-5.251-12.572-6.979v94.424
			C-248.323,232.289-244.096,229.93-240.292,227.038z"/>
		<path opacity="0.47" fill="#007DAF" d="M-264.536,136.698c-2.061-0.256-4.156-0.403-6.285-0.403c-2.131,0-4.225,0.148-6.286,0.403
			v100.215c2.061,0.255,4.155,0.402,6.286,0.402c2.13,0,4.224-0.147,6.285-0.402V136.698z"/>
		<path fill="#007DAF" d="M-270.099,117.553c-38.279,0-69.31,31.032-69.31,69.309c0,38.279,31.032,69.31,69.31,69.31
			s69.311-31.031,69.311-69.31C-200.788,148.585-231.82,117.553-270.099,117.553z M-270.099,248.091
			c-33.815,0-61.229-27.413-61.229-61.229c0-33.815,27.414-61.228,61.229-61.228c33.817,0,61.229,27.413,61.229,61.228
			C-208.87,220.678-236.282,248.091-270.099,248.091z"/>
		<path fill="#007DAF" d="M-270.099,100.491c-47.702,0-86.372,38.67-86.372,86.371c0,47.702,38.67,86.372,86.372,86.372
			s86.372-38.671,86.372-86.372C-183.727,139.162-222.397,100.491-270.099,100.491z M-270.099,265.152
			c-43.238,0-78.289-35.052-78.289-78.29c0-43.237,35.05-78.289,78.289-78.289c43.238,0,78.289,35.052,78.289,78.289
			C-191.81,230.101-226.861,265.152-270.099,265.152z"/>
		<path fill="#007DAF" d="M-270.099,83.43c-57.124,0-103.432,46.308-103.432,103.432c0,57.126,46.308,103.434,103.432,103.434
			s103.432-46.308,103.432-103.434C-166.667,129.738-212.975,83.43-270.099,83.43z M-270.099,281.765
			c-52.413,0-94.901-42.489-94.901-94.903c0-52.411,42.488-94.901,94.901-94.901s94.901,42.49,94.901,94.901
			C-175.198,239.276-217.686,281.765-270.099,281.765z"/>
		<polygon opacity="0.47" fill="#007DAF" points="-270.046,72.45 -257.242,72.766 -253.923,40.853 -270.724,40.437 		"/>
		<polygon opacity="0.47" fill="#007DAF" points="-245.911,75.019 -233.383,77.675 -224.278,46.906 -240.717,43.422 		"/>
		<polygon opacity="0.47" fill="#007DAF" points="-223.636,82.127 -212.167,87.825 -195.671,60.304 -210.722,52.827 		"/>
		<polygon opacity="0.47" fill="#007DAF" points="-202.645,94.306 -192.361,101.939 -171.266,77.761 -184.761,67.746 		"/>
		<polygon opacity="0.47" fill="#007DAF" points="-185.035,110.384 -176.605,120.027 -150.86,100.877 -161.921,88.226 		"/>
		<polygon opacity="0.47" fill="#007DAF" points="-171.215,129.312 -165.141,140.588 -135.782,127.644 -143.752,112.849 		"/>
		<polygon opacity="0.47" fill="#007DAF" points="-161.216,150.865 -157.96,163.253 -126.382,157.571 -130.651,141.318 		"/>
		<polygon opacity="0.47" fill="#007DAF" points="-156.13,174.377 -155.384,187.164 -123.303,187.823 -124.281,171.048 		"/>
		<polygon opacity="0.47" fill="#007DAF" points="-156.388,198.942 -157.596,211.692 -125.991,217.23 -124.405,200.5 		"/>
		<polygon opacity="0.47" fill="#007DAF" points="-160.848,221.693 -165.279,233.711 -136.142,247.147 -130.329,231.379 		"/>
		<polygon opacity="0.47" fill="#007DAF" points="-171.117,244.289 -177.339,255.482 -150.611,273.235 -142.446,258.547 		"/>
		<polygon opacity="0.47" fill="#007DAF" points="-184.897,263.187 -193.8,272.395 -172.557,296.441 -160.879,284.361 		"/>
		<polygon opacity="0.47" fill="#007DAF" points="-202.448,279.256 -212.988,286.534 -196.889,314.291 -183.063,304.741 		"/>
		<polygon opacity="0.47" fill="#007DAF" points="-222.34,291.15 -234.366,295.558 -225.729,326.462 -209.952,320.678 		"/>
		<polygon opacity="0.47" fill="#007DAF" points="-245.086,298.696 -257.755,300.569 -255.583,332.58 -238.957,330.126 		"/>
		<polygon opacity="0.47" fill="#007DAF" points="-269.974,301.29 -282.778,300.961 -286.126,332.874 -269.326,333.304 		"/>
		<polygon opacity="0.47" fill="#007DAF" points="-293.641,298.853 -306.046,295.671 -316.445,326.025 -300.167,330.202 		"/>
		<polygon opacity="0.47" fill="#007DAF" points="-316.445,291.668 -328.022,286.19 -343.989,314.021 -328.799,321.208 		"/>
		<polygon opacity="0.47" fill="#007DAF" points="-337.242,279.696 -347.415,271.915 -368.857,295.785 -355.51,305.994 		"/>
		<polygon opacity="0.47" fill="#007DAF" points="-355.164,263.283 -363.68,253.716 -389.253,273.097 -378.078,285.648 		"/>
		<polygon opacity="0.47" fill="#007DAF" points="-369.09,244.769 -374.97,233.393 -404.548,245.835 -396.83,260.763 		"/>
		<polygon opacity="0.47" fill="#007DAF" points="-379.084,222.822 -382.248,210.41 -413.867,215.861 -409.718,232.144 		"/>
		<polygon opacity="0.47" fill="#007DAF" points="-384.237,199.731 -384.643,186.929 -416.697,185.421 -416.161,202.215 		"/>
		<polygon opacity="0.47" fill="#007DAF" points="-383.891,174.924 -382.127,162.238 -413.461,155.329 -415.775,171.974 		"/>
		<polygon opacity="0.47" fill="#007DAF" points="-379.111,151.822 -374.769,139.775 -404.001,126.547 -409.701,142.356 		"/>
		<polygon opacity="0.47" fill="#007DAF" points="-369.248,129.95 -362.442,119.1 -388.195,99.961 -397.126,114.197 		"/>
		<polygon opacity="0.47" fill="#007DAF" points="-355.364,110.542 -346.538,101.26 -367.973,77.385 -379.554,89.561 		"/>
		<polygon opacity="0.47" fill="#007DAF" points="-337.487,94.254 -326.957,86.963 -343.086,59.225 -356.903,68.792 		"/>
		<polygon opacity="0.47" fill="#007DAF" points="-316.791,82.392 -304.837,77.795 -313.96,47.031 -329.643,53.064 		"/>
		<polygon opacity="0.47" fill="#007DAF" points="-294.383,74.932 -281.752,72.827 -284.517,40.859 -301.093,43.624 		"/>
	</g>
</g>
<g id="SkyDrive">
	<rect fill="#FFFFFF" width="500" height="500"/>
	<g>
		<path fill="#094AB1" d="M332.685,381.614c-3.549-1.312-3.734-6.211-0.285-7.414c2.932-1.021,5.223,0.317,5.503,3.213
			C338.242,380.929,335.911,382.807,332.685,381.614z"/>
		<path fill="#094AB1" d="M40.679,456.277v-6.873c6.244,3.972,12.568,5.96,18.978,5.96c6.812,0,11.981-1.409,15.509-4.228
			c3.526-2.818,5.291-6.762,5.291-11.831c0-4.46-1.187-8.018-3.56-10.674c-2.37-2.656-7.511-6.274-15.418-10.858
			c-8.84-5.15-14.434-9.458-16.787-12.925c-2.35-3.467-3.529-7.471-3.529-12.012c0-6.164,2.393-11.395,7.177-15.693
			c4.786-4.297,11.173-6.447,19.16-6.447c5.192,0,10.38,0.871,15.572,2.616v6.325c-5.109-2.312-10.563-3.467-16.362-3.467
			c-5.922,0-10.614,1.501-14.08,4.501c-3.469,3.001-5.2,6.812-5.2,11.435c0,4.46,1.184,8.008,3.557,10.644
			c2.373,2.636,7.491,6.224,15.358,10.766c8.15,4.623,13.575,8.728,16.271,12.317c2.696,3.59,4.045,7.716,4.045,12.379
			c0,6.691-2.322,12.145-6.966,16.361c-4.641,4.217-11.202,6.325-19.677,6.325c-3.001,0-6.455-0.466-10.369-1.398
			C45.736,458.567,42.747,457.493,40.679,456.277z"/>
		<polygon fill="#094AB1" points="131.575,459.378 101.772,428.601 101.529,428.601 101.529,459.378 95.932,459.378 95.932,367.168 
			101.529,367.168 101.529,426.595 101.772,426.595 130.055,397.094 137.292,397.094 107.734,427.264 139.665,459.378 		"/>
		<path fill="#094AB1" d="M173.288,472.09c-2.271,5.595-4.784,9.751-7.542,12.468c-2.758,2.717-6.304,4.076-10.643,4.076
			c-1.826,0-3.449-0.284-4.866-0.851v-5.597c1.461,0.568,3.163,0.851,5.109,0.851c4.986,0,8.92-3.446,11.798-10.339l5.779-13.808
			l-23.599-61.797h6.264l18.796,50.728c0.405,1.095,0.688,1.926,0.85,2.493c0.163,0.77,0.345,1.459,0.548,2.068h0.245l1.458-4.196
			l20.073-51.093h6.082L173.288,472.09z"/>
		<path fill="#094AB1" d="M212.975,459.378v-87.222h21.833c14.477,0,25.485,3.61,33.027,10.827
			c7.542,7.218,11.313,17.74,11.313,31.568c0,13.301-4.045,24.096-12.135,32.389c-8.087,8.292-19.249,12.439-33.48,12.439H212.975z
			 M218.994,377.691v76.212h13.687c12.936,0,22.869-3.355,29.803-10.065c6.935-6.711,10.4-16.392,10.4-29.045
			c0-24.735-12.996-37.102-38.986-37.102H218.994z"/>
		<path fill="#094AB1" d="M319.535,402.933c-1.865-1.338-4.056-2.008-6.569-2.008c-4.906,0-9.023,2.535-12.349,7.604
			c-3.323,5.069-4.986,12.266-4.986,21.593v29.256h-5.474v-62.283h5.474v13.806h0.243c1.421-4.744,3.671-8.434,6.752-11.069
			c3.081-2.636,6.649-3.954,10.706-3.954c2.311,0,4.379,0.365,6.204,1.094V402.933z"/>
		<path fill="#094AB1" d="M334.009,381.401c-1.215,0-2.291-0.445-3.224-1.338c-0.933-0.892-1.398-2.027-1.398-3.406
			c0-1.338,0.476-2.423,1.429-3.253c0.953-0.831,2.017-1.248,3.192-1.248c1.258,0,2.362,0.406,3.318,1.217
			c0.953,0.812,1.429,1.906,1.429,3.285c0,1.298-0.468,2.413-1.401,3.346C336.422,380.935,335.307,381.401,334.009,381.401z
			 M331.273,459.378v-62.283h5.597v62.283H331.273z"/>
		<path fill="#094AB1" d="M377.256,459.378h-5.109l-24.087-62.283h6.264l18.553,49.571c0.89,2.393,1.52,4.563,1.885,6.508h0.243
			c0.528-2.555,1.115-4.643,1.763-6.264l19.161-49.815h6.082L377.256,459.378z"/>
		<path fill="#094AB1" d="M413.219,428.479c0,8.556,1.974,15.247,5.927,20.073c3.954,4.824,9.379,7.237,16.271,7.237
			c6.974,0,13.786-2.574,20.438-7.725v5.96c-6.45,4.583-13.646,6.873-21.594,6.873c-8.03,0-14.517-2.878-19.463-8.637
			c-4.946-5.756-7.422-13.888-7.422-24.389c0-9.083,2.587-16.736,7.756-22.961c5.172-6.224,11.892-9.336,20.165-9.336
			c7.745,0,13.684,2.717,17.82,8.15c4.136,5.434,6.204,12.853,6.204,22.262v2.493H413.219z M453.482,423.37
			c-0.242-7.178-1.965-12.753-5.169-16.727c-3.206-3.974-7.625-5.96-13.261-5.96c-5.839,0-10.674,1.957-14.505,5.869
			c-3.831,3.914-6.196,9.519-7.086,16.818H453.482z"/>
	</g>
	<path fill="#094AB1" d="M193.134,174.89c0,0-55.765,6.299-55.835,52.756c-0.07,46.457,31.426,60.097,55.835,59.97
		s211.811-0.914,226.772-0.914s40.819-8.615,40.094-44.465s-39.307-45.299-39.307-45.299s-6.232-87.615-91.305-55.619
		c0,0-31.97-43.233-79.388-32.39S193.134,174.89,193.134,174.89z"/>
	<path fill="#094AB1" d="M127.78,269.378c0,0-36.192-85.479,51.195-106.125c0,0,15.927-52.738,58.744-66.22
		s74.006,2.131,96.207,25.821c0,0,13.408-5.187,25.408-6.187c0,0-14.833-76.667-87.333-76.667c-49.5,0-80.5,45.5-80.5,45.5
		S103,45.5,89,156c0,0-48.5,9.5-49,54.5s41,59.581,55,59.541C109,270,127.78,269.378,127.78,269.378z"/>
</g>
<g id="Dropbox">
	<rect x="520" fill="#FFFFFF" width="500" height="500"/>
	<g>
		<linearGradient id="SVGID_1_" gradientUnits="userSpaceOnUse" x1="651.0921" y1="459.928" x2="653.5695" y2="388.9858">
			<stop  offset="0.5399" style="stop-color:#231F20"/>
			<stop  offset="0.6805" style="stop-color:#312E2F"/>
			<stop  offset="0.9514" style="stop-color:#575656"/>
			<stop  offset="1" style="stop-color:#5E5E5E"/>
		</linearGradient>
		<path fill="url(#SVGID_1_)" stroke="#231F20" stroke-width="0.5" stroke-miterlimit="10" d="M634.906,459.363h19.415v-41.354
			c0,0,2.241-10.08,9.335-10.08h7.842v-18.294c0,0-14.936-1.866-18.296,15.68l-2.613,0.376l-0.747-14.191l-14.934-0.374V459.363z"/>
		<g>
			<linearGradient id="SVGID_2_" gradientUnits="userSpaceOnUse" x1="698.5627" y1="461.9999" x2="701.1839" y2="386.9373">
				<stop  offset="0.5399" style="stop-color:#231F20"/>
				<stop  offset="0.6805" style="stop-color:#312E2F"/>
				<stop  offset="0.9514" style="stop-color:#575656"/>
				<stop  offset="1" style="stop-color:#5E5E5E"/>
			</linearGradient>
			<path fill="url(#SVGID_2_)" stroke="#231F20" stroke-width="0.5" stroke-miterlimit="10" d="M699.876,386.906
				c-16.291,0-29.5,16.817-29.5,37.564c0,20.741,13.209,37.561,29.5,37.561c16.29,0,29.495-16.82,29.495-37.561
				C729.371,403.723,716.165,386.906,699.876,386.906z M699.876,450.122c-5.156,0-9.336-11.201-9.336-25.015
				c0-13.82,4.181-25.018,9.336-25.018c5.153,0,9.332,11.198,9.332,25.018C709.208,438.921,705.029,450.122,699.876,450.122z"/>
		</g>
		<g>
			<linearGradient id="SVGID_3_" gradientUnits="userSpaceOnUse" x1="893.0973" y1="464.6712" x2="895.7185" y2="389.6087">
				<stop  offset="0.5399" style="stop-color:#231F20"/>
				<stop  offset="0.6805" style="stop-color:#312E2F"/>
				<stop  offset="0.9514" style="stop-color:#575656"/>
				<stop  offset="1" style="stop-color:#5E5E5E"/>
			</linearGradient>
			<path fill="url(#SVGID_3_)" stroke="#231F20" stroke-width="0.5" stroke-miterlimit="10" d="M894.408,389.577
				c-16.291,0-29.497,16.817-29.497,37.561c0,20.744,13.206,37.564,29.497,37.564s29.497-16.82,29.497-37.564
				C923.905,406.395,910.699,389.577,894.408,389.577z M894.408,452.791c-5.153,0-9.332-11.198-9.332-25.015
				c0-13.817,4.179-25.016,9.332-25.016s9.332,11.198,9.332,25.016C903.74,441.593,899.561,452.791,894.408,452.791z"/>
		</g>
		<g>
			<linearGradient id="SVGID_4_" gradientUnits="userSpaceOnUse" x1="763.2148" y1="484.3136" x2="766.531" y2="389.3494">
				<stop  offset="0.5399" style="stop-color:#231F20"/>
				<stop  offset="0.6805" style="stop-color:#312E2F"/>
				<stop  offset="0.9514" style="stop-color:#575656"/>
				<stop  offset="1" style="stop-color:#5E5E5E"/>
			</linearGradient>
			<path fill="url(#SVGID_4_)" stroke="#231F20" stroke-width="0.5" stroke-miterlimit="10" d="M792.672,424.57
				c0,0,1.118-32.34-18.299-34.895c0,0-10.826-1.811-18.669,10.14l-1.12-10.14h-16.055v93.777h16.428v-28.752
				c0,0,10.455,7.019,12.321,7.432c1.869,0.41,7.095,0,7.095,0S796.031,457.163,792.672,424.57z M765.775,451.617
				c-5.67,0-10.268-11.225-10.268-25.065c0-13.841,4.598-25.06,10.268-25.06s10.269,11.219,10.269,25.06
				C776.045,440.393,771.445,451.617,765.775,451.617z"/>
		</g>
		<g>
			
				<linearGradient id="SVGID_5_" gradientUnits="userSpaceOnUse" x1="829.4826" y1="-235.3553" x2="832.7745" y2="-141.0868" gradientTransform="matrix(1 0 0 -1 0 226.8516)">
				<stop  offset="0.5399" style="stop-color:#231F20"/>
				<stop  offset="0.6805" style="stop-color:#312E2F"/>
				<stop  offset="0.9514" style="stop-color:#575656"/>
				<stop  offset="1" style="stop-color:#5E5E5E"/>
			</linearGradient>
			<path fill="url(#SVGID_5_)" stroke="#231F20" stroke-width="0.5" stroke-miterlimit="10" d="M840.951,388.827
				c0,0-5.527-0.408-7.501,0c-1.974,0.413-13.027,7.432-13.027,7.432v-28.752h-17.375v93.777h16.981l1.184-10.138
				c8.29,11.948,19.739,10.138,19.739,10.138c20.533-2.555,19.349-34.892,19.349-34.892
				C863.847,393.794,840.951,388.827,840.951,388.827z M842.716,424.407c0,13.841-4.858,25.063-10.856,25.063
				c-5.995,0-10.856-11.222-10.856-25.063c0-13.844,4.861-25.063,10.856-25.063C837.858,399.344,842.716,410.563,842.716,424.407z"
				/>
		</g>
		<linearGradient id="SVGID_6_" gradientUnits="userSpaceOnUse" x1="951.312" y1="460.0928" x2="953.7526" y2="390.201">
			<stop  offset="0.5399" style="stop-color:#231F20"/>
			<stop  offset="1" style="stop-color:#5E5E5E"/>
		</linearGradient>
		<polygon fill="url(#SVGID_6_)" stroke="#231F20" stroke-width="0.5" stroke-miterlimit="10" points="980.284,391.127 
			962.735,391.127 953.353,406.937 945.186,391.127 925.958,391.127 943.407,423.701 922.41,459.084 939.588,459.084 
			951.608,439.011 962.361,459.084 980.284,459.084 961.44,422.596 		"/>
		<linearGradient id="SVGID_7_" gradientUnits="userSpaceOnUse" x1="593.1918" y1="459.532" x2="589.9614" y2="367.0265">
			<stop  offset="0.5399" style="stop-color:#231F20"/>
			<stop  offset="0.6805" style="stop-color:#312E2F"/>
			<stop  offset="0.9514" style="stop-color:#575656"/>
			<stop  offset="1" style="stop-color:#5E5E5E"/>
		</linearGradient>
		<path fill="url(#SVGID_7_)" stroke="#231F20" stroke-width="0.5" stroke-miterlimit="10" d="M624.282,400.749
			c0.026-3.603-0.446-7.109-1.484-10.459c-0.578-2.263-1.286-3.995-2.1-5.058c-3.835-7.153-11.052-13.217-23.173-17.159H560v91.29
			h37.525c0,0,0.013-0.013,0.016-0.019c0.071,0.005,0.138,0.019,0.208,0.019c13.281,0,24.214-15.901,25.777-36.406
			c0.324-2.59,0.583-5.316,0.75-8.143C624.573,409.753,624.556,404.976,624.282,400.749z M605.069,413.719
			c-1.462,25.202-14.221,33.043-14.221,33.043h-11.763v-66.088h12.992C596.105,381.234,606.528,388.514,605.069,413.719z"/>
	</g>
	<g>
		<linearGradient id="SVGID_8_" gradientUnits="userSpaceOnUse" x1="769.7757" y1="242.2356" x2="675.8627" y2="242.2356">
			<stop  offset="0" style="stop-color:#C1E0F6"/>
			<stop  offset="1" style="stop-color:#64B3E3"/>
		</linearGradient>
		<polygon opacity="0.8" fill="url(#SVGID_8_)" stroke="#79C3EC" stroke-miterlimit="10" points="675.863,155.421 769.776,211.519 
			769.776,329.05 675.863,266.329 		"/>
		<linearGradient id="SVGID_9_" gradientUnits="userSpaceOnUse" x1="831.1947" y1="318.2204" x2="804.3983" y2="166.2508">
			<stop  offset="0" style="stop-color:#C1E0F6"/>
			<stop  offset="1" style="stop-color:#64B3E3"/>
		</linearGradient>
		<polygon opacity="0.8" fill="url(#SVGID_9_)" stroke="#79C3EC" stroke-miterlimit="10" points="865.817,266.756 865.817,155.421 
			770.001,212.829 769.776,329.05 		"/>
		<linearGradient id="SVGID_10_" gradientUnits="userSpaceOnUse" x1="608.7761" y1="151.5176" x2="931.2239" y2="151.5176">
			<stop  offset="0" style="stop-color:#C1E0F6"/>
			<stop  offset="1" style="stop-color:#64B3E3"/>
		</linearGradient>
		<polygon opacity="0.9" fill="url(#SVGID_10_)" stroke="#79C3EC" stroke-miterlimit="10" points="770.636,94.19 836.06,39.333 
			931.224,100.135 868.772,152.18 931.224,205.709 834.571,263.702 770.636,214.632 706.694,263.702 608.776,205.709 
			676.202,154.409 608.776,103.11 706.694,39.333 		"/>
		<linearGradient id="SVGID_11_" gradientUnits="userSpaceOnUse" x1="786.7328" y1="197.3143" x2="717.9712" y2="118.2131">
			<stop  offset="0" style="stop-color:#ECF8FE"/>
			<stop  offset="1" style="stop-color:#C7EAFA"/>
		</linearGradient>
		<polygon opacity="0.7" fill="url(#SVGID_11_)" points="677.37,153.507 770.841,97.033 770.001,211.859 		"/>
		<linearGradient id="SVGID_12_" gradientUnits="userSpaceOnUse" x1="770.0012" y1="154.4458" x2="863.2023" y2="154.4458">
			<stop  offset="0" style="stop-color:#ECF8FE"/>
			<stop  offset="1" style="stop-color:#C7EAFA"/>
		</linearGradient>
		<polygon opacity="0.7" fill="url(#SVGID_12_)" points="770.841,97.033 863.202,150.103 770.001,211.859 		"/>
	</g>
</g>
<g id="Drive">
	<rect x="1040" fill="#FFFFFF" width="500" height="500"/>
	<text transform="matrix(1 0 0 1 1077.6816 459.6426)" fill="#666666" font-family="'Gotham-Medium'" font-size="77.7589">Google Drive</text>
	<g>
		<linearGradient id="SVGID_13_" gradientUnits="userSpaceOnUse" x1="1281.0205" y1="127.1945" x2="1221.3354" y2="176.9145">
			<stop  offset="0" style="stop-color:#008C47"/>
			<stop  offset="1" style="stop-color:#2EB571"/>
		</linearGradient>
		<polygon fill="url(#SVGID_13_)" points="1233.786,40 1111.857,249.883 1166.242,349.352 1289.255,137.59 		"/>
		<g>
			<linearGradient id="SVGID_14_" gradientUnits="userSpaceOnUse" x1="1219.8495" y1="256.5492" x2="1318.0841" y2="299.5008">
				<stop  offset="0" style="stop-color:#004AE3"/>
				<stop  offset="0.3354" style="stop-color:#286EF0"/>
				<stop  offset="0.5571" style="stop-color:#3E82F7"/>
				<stop  offset="1" style="stop-color:#3E82F7"/>
			</linearGradient>
			<polygon fill="url(#SVGID_14_)" points="1468.143,248.869 1224.21,249.563 1166.242,349.352 1409.589,349.303 			"/>
			<linearGradient id="SVGID_15_" gradientUnits="userSpaceOnUse" x1="1389.7968" y1="262.1311" x2="1370.6138" y2="203.9895">
				<stop  offset="0" style="stop-color:#E1A415"/>
				<stop  offset="1" style="stop-color:#FDD04A"/>
			</linearGradient>
			<polygon fill="url(#SVGID_15_)" points="1345.753,40.332 1233.786,40 1352.692,249.199 1468.143,248.869 			"/>
		</g>
	</g>
</g>
<g id="Copy">
	<rect x="1560" fill="#FFFFFF" width="500" height="500"/>
	<g>
		<g>
			<polygon fill="#4EC8F4" points="1928.506,205.636 1901.74,195.58 1829.848,242.796 1788.488,269.961 1804.85,310.898 
				1984.94,330.92 1994.595,324.568 			"/>
			<polygon fill="#984D9D" points="1788.487,269.961 1788.518,270.036 1788.556,269.916 			"/>
			<polygon fill="#00ADEE" points="1928.506,205.636 1901.74,195.58 1860.24,222.836 1991.05,326.9 1994.595,324.568 			"/>
			<polygon fill="#00ADEE" points="1956.672,39.333 1871.769,176.049 1917.677,193.296 1959.155,41.169 			"/>
			<path fill="#D6652D" d="M1792.229,258.239l24.629-16.176L1792.229,258.239z"/>
			<path fill="#F27233" d="M1792.229,258.239L1792.229,258.239L1792.229,258.239z"/>
			<path fill="#F27233" d="M1853.861,217.761l-37.003,24.302L1853.861,217.761z"/>
			<polygon fill="#F48120" points="1814.747,186.645 1792.229,258.239 1792.229,258.239 1816.858,242.063 1853.861,217.761 			"/>
			<polygon fill="#D96E1C" points="1814.747,186.645 1779.343,225.991 1792.229,258.239 			"/>
			<polygon fill="#D96E1C" points="1864.925,181.75 1814.748,186.645 1814.747,186.646 1814.747,186.647 1814.748,186.645 
				1853.861,217.761 1892.766,192.209 			"/>
			<polygon fill="#00ADEE" points="1625.405,184.123 1634.142,187.415 1712.024,159.643 1767.388,337.235 1804.938,310.911 
				1733.545,132.251 1699.877,119.578 			"/>
			<polygon fill="#4EC8F4" points="1625.405,184.123 1634.382,187.502 1712.073,159.8 1699.87,119.581 			"/>
			<polygon fill="#0091C7" points="1712.08,159.818 1699.871,119.581 1686.232,169.009 			"/>
			<polygon fill="#0097BF" points="1767.388,337.234 1767.388,337.235 1767.389,337.234 			"/>
			<polygon fill="#EC1E24" points="1767.382,337.234 1767.388,337.234 1767.385,337.224 			"/>
			<polygon fill="#0091C7" points="1804.938,310.911 1788.555,269.916 1767.385,337.225 1767.387,337.234 1767.389,337.234 			"/>
		</g>
	</g>
	<g>
		<g>
			<path fill="#5F6C74" d="M1846.115,457.915c-5.665,0-11.33-0.787-16.68-2.361v25.335l-14.477,5.665v-84.346
				c0-5.979,2.361-25.335,32.574-25.335c12.904,0,34.777,5.35,34.777,41.386C1882.308,450.991,1862.638,457.915,1846.115,457.915
				 M1847.531,389.463c-11.96,0-18.097,3.934-18.097,11.802v40.6c5.351,2.046,10.858,3.147,16.68,3.147
				c11.33,0,21.716-3.147,21.716-26.752C1867.83,392.767,1856.973,389.463,1847.531,389.463"/>
			<path fill="#5F6C74" d="M1802.953,417.425c0,33.428-20.183,40.523-37.054,40.523c-16.872,0-37.054-7.096-37.054-40.523
				c0-33.427,20.183-40.523,37.054-40.523C1782.77,376.902,1802.953,383.997,1802.953,417.425 M1788.447,417.425
				c0-24.44-10.722-27.751-22.548-27.751c-11.826,0-22.548,3.311-22.548,27.751c0,24.44,10.722,27.751,22.548,27.751
				C1777.724,445.176,1788.447,441.865,1788.447,417.425"/>
			<path fill="#5F6C74" d="M1701.177,444.854c-11.96,0-23.133-3.304-23.133-27.538c0-24.077,11.173-27.539,23.133-27.539
				c5.858,0,11.317,1.133,17.292,2.872l7.312-11.397c-9.552-2.658-17.396-4.378-25.863-4.378c-23.919,0-36.98,14.32-36.98,40.442
				c0,26.122,13.061,40.599,36.98,40.599c8.498,0,16.366-1.731,25.965-4.406v-0.019l-7.318-11.408
				C1712.551,443.791,1707.066,444.854,1701.177,444.854"/>
			<path fill="#5F6C74" d="M1941.641,378.132l-20.772,58.854l-21.086-58.854h-15.422l29.584,78.524
				c-2.833,8.655-7.904,17.351-15.736,18.096c-0.559,0.053-1.063,0.089-1.525,0.11l4.659,12.77
				c7.293-0.329,16.822-4.684,23.46-22.637l32.259-86.864H1941.641z"/>
		</g>
	</g>
</g>
<g id="Snaggy">
	<rect x="2080" fill="#FFFFFF" width="500" height="500"/>
	<rect x="2120" y="40" fill="#2C3034" width="420" height="420"/>
	<g>
		<path fill="#E6FDFF" d="M2191.769,225.439c-0.712-5.339-3.797-7.712-10.441-7.712c-6.288,0-9.61,1.305-9.61,4.983
			c0,3.204,3.322,4.865,9.492,6.526c20.408,5.577,27.053,6.645,27.053,20.29c0,10.441-8.899,18.154-25.867,18.154
			c-16.729,0-27.527-7.95-27.764-20.29h15.898c0,5.458,4.865,8.661,11.747,8.661c5.813,0,10.679-1.779,10.679-5.576
			c0-4.271-3.085-5.695-9.373-7.119c-22.663-4.983-26.816-10.797-26.816-20.646c0-8.78,6.764-16.493,25.036-16.493
			c16.729,0,24.087,7.238,24.798,19.222H2191.769z"/>
		<path fill="#E6FDFF" d="M2249.434,266.136v-35.358c0-9.018-2.609-11.509-9.967-11.509c-8.068,0-11.983,4.509-11.983,13.408v33.46
			h-15.425V207.76h14.713v8.543c3.56-6.526,9.492-10.085,18.865-10.085c11.154,0,19.341,6.763,19.341,19.459v40.46H2249.434z"/>
		<path fill="#E6FDFF" d="M2307.692,266.136c-0.475-1.424-0.831-3.441-0.949-5.221c-3.679,4.034-9.849,6.764-17.679,6.764
			c-13.289,0-19.459-6.526-19.459-16.019c0-16.849,11.271-18.747,26.814-20.883c7.713-1.068,9.849-2.61,9.849-6.645
			c0-3.797-3.797-6.051-9.849-6.051c-7,0-9.848,3.441-10.56,8.662h-14.356c0.236-12.103,6.881-20.527,25.629-20.527
			c18.51,0,24.916,8.306,24.916,23.019v36.901H2307.692z M2306.625,237.541c-1.543,1.543-4.271,2.373-9.967,3.441
			c-8.781,1.661-11.629,4.152-11.629,9.137c0,4.39,2.611,6.525,7.476,6.525c7.95,0,13.882-5.814,14.001-12.695L2306.625,237.541z"/>
		<path fill="#E6FDFF" d="M2368.916,258.305c-2.135,5.221-8.424,8.306-16.018,8.306c-19.222,0-25.866-14.713-25.866-30.02
			c0-18.153,11.391-30.375,25.511-30.375c7.355,0,12.695,2.848,16.373,8.78v-7.238h15.426v58.971
			c0,17.561-12.814,27.053-29.07,27.053s-28.239-9.374-28.239-24.443h14.356c0,7.001,5.103,11.154,12.814,11.154
			c8.188,0,14.713-4.865,14.713-12.578V258.305z M2369.391,238.372c0-12.696-4.39-18.747-13.17-18.747
			c-8.662,0-13.17,5.814-13.17,17.798c0,10.441,5.576,17.086,13.17,17.086C2363.695,254.509,2369.391,248.22,2369.391,238.372z"/>
		<path fill="#8FD3FF" d="M2431.209,258.305c-2.135,5.221-8.424,8.306-16.018,8.306c-19.222,0-25.866-14.713-25.866-30.02
			c0-18.153,11.391-30.375,25.511-30.375c7.355,0,12.695,2.848,16.373,8.78v-7.238h15.426v58.971
			c0,17.561-12.814,27.053-29.07,27.053s-28.239-9.374-28.239-24.443h14.356c0,7.001,5.103,11.154,12.814,11.154
			c8.188,0,14.713-4.865,14.713-12.578V258.305z M2431.684,238.372c0-12.696-4.39-18.747-13.17-18.747
			c-8.662,0-13.17,5.814-13.17,17.798c0,10.441,5.576,17.086,13.17,17.086C2425.988,254.509,2431.684,248.22,2431.684,238.372z"/>
		<path fill="#8FD3FF" d="M2489.943,258.424c-2.135,5.221-8.543,8.307-15.78,8.307c-12.222,0-21.357-8.307-21.357-21.121v-37.85
			h15.425v35.596c0,7.238,3.322,10.916,9.848,10.916c7.001,0,11.865-4.627,11.865-10.916V207.76h15.426v59.92
			c0,16.492-11.865,26.104-26.816,26.104c-17.086,0-25.747-9.374-25.747-24.443h14.356c0,6.883,4.035,11.154,12.104,11.154
			c5.576,0,10.678-4.865,10.678-12.578V258.424z"/>
	</g>
</g>
<g id="Blackboard">
	<rect x="2600" fill="#FFFFFF" width="500" height="500"/>
	<g>
		<polygon fill-rule="evenodd" clip-rule="evenodd" fill="#004A4B" points="2638.893,381.931 3058.898,381.931 3058.898,325.6 
			2638.893,325.6 2638.893,381.931 		"/>
		<polygon fill-rule="evenodd" clip-rule="evenodd" fill="#626366" points="2638.893,191.199 2653.717,191.199 2653.717,183.293 
			2638.893,183.293 2638.893,191.199 		"/>
		<polygon fill-rule="evenodd" clip-rule="evenodd" fill="#626366" points="2638.893,83.481 3058.898,83.481 3058.898,72.61 
			2638.893,72.61 2638.893,83.481 		"/>
		<polygon fill-rule="evenodd" clip-rule="evenodd" fill="#626366" points="2638.893,309.789 3058.898,309.789 3058.898,298.918 
			2638.893,298.918 2638.893,309.789 		"/>
		<polygon fill-rule="evenodd" clip-rule="evenodd" fill="#626366" points="2664.587,191.199 2679.412,191.199 2679.412,183.293 
			2664.587,183.293 2664.587,191.199 		"/>
		<polygon fill-rule="evenodd" clip-rule="evenodd" fill="#626366" points="2689.294,191.199 2705.106,191.199 2705.106,183.293 
			2689.294,183.293 2689.294,191.199 		"/>
		<polygon fill-rule="evenodd" clip-rule="evenodd" fill="#626366" points="2815.789,191.199 2831.602,191.199 2831.602,183.293 
			2815.789,183.293 2815.789,191.199 		"/>
		<polygon fill-rule="evenodd" clip-rule="evenodd" fill="#626366" points="2841.484,191.199 2856.307,191.199 2856.307,183.293 
			2841.484,183.293 2841.484,191.199 		"/>
		<polygon fill-rule="evenodd" clip-rule="evenodd" fill="#626366" points="2866.19,191.199 2882.002,191.199 2882.002,183.293 
			2866.19,183.293 2866.19,191.199 		"/>
		<polygon fill-rule="evenodd" clip-rule="evenodd" fill="#626366" points="2891.884,191.199 2906.708,191.199 2906.708,183.293 
			2891.884,183.293 2891.884,191.199 		"/>
		<polygon fill-rule="evenodd" clip-rule="evenodd" fill="#626366" points="2942.284,191.199 2957.109,191.199 2957.109,183.293 
			2942.284,183.293 2942.284,191.199 		"/>
		<polygon fill-rule="evenodd" clip-rule="evenodd" fill="#626366" points="2967.98,191.199 2982.803,191.199 2982.803,183.293 
			2967.98,183.293 2967.98,191.199 		"/>
		<polygon fill-rule="evenodd" clip-rule="evenodd" fill="#626366" points="2992.685,191.199 3008.497,191.199 3008.497,183.293 
			2992.685,183.293 2992.685,191.199 		"/>
		<polygon fill-rule="evenodd" clip-rule="evenodd" fill="#626366" points="3018.38,191.199 3033.204,191.199 3033.204,183.293 
			3018.38,183.293 3018.38,191.199 		"/>
		<polygon fill-rule="evenodd" clip-rule="evenodd" fill="#626366" points="3043.085,191.199 3058.898,191.199 3058.898,183.293 
			3043.085,183.293 3043.085,191.199 		"/>
		<path fill-rule="evenodd" clip-rule="evenodd" fill="#FFFFFF" d="M2650.752,334.495h10.871c7.906,0,11.859,4.941,11.859,9.883
			c0,3.952-1.977,5.93-5.929,7.906l0,0c5.929,0.988,8.895,4.941,8.895,9.883c0,4.942-2.966,9.882-12.848,9.882h-12.848V334.495
			L2650.752,334.495z M2655.694,350.307h3.952c4.94,0,7.906-1.977,7.906-5.93c0-2.966-0.99-4.942-6.918-4.942h-4.941V350.307
			L2655.694,350.307z M2655.694,367.108h6.917c6.917,0,8.894-2.964,8.894-5.93c0-2.964-2.965-5.929-8.894-5.929h-6.917V367.108
			L2655.694,367.108z"/>
		<polygon fill-rule="evenodd" clip-rule="evenodd" fill="#FFFFFF" points="2699.176,334.495 2704.117,334.495 2704.117,372.048 
			2699.176,372.048 2699.176,334.495 		"/>
		<path fill-rule="evenodd" clip-rule="evenodd" fill="#FFFFFF" d="M2747.6,371.06c-1.976,0.988-2.964,1.977-4.941,1.977
			s-2.964-0.988-3.953-2.964c-1.977,1.976-3.953,2.964-6.917,2.964c-2.965,0-5.93-2.964-5.93-5.929c0-4.942,4.941-6.919,8.894-7.906
			l3.953-1.977v-0.988c0-3.954-0.989-4.941-3.953-4.941s-5.929,0.988-7.905,3.952v-4.941c1.976-1.977,3.952-3.954,7.905-3.954
			c4.942,0,8.895,2.965,8.895,8.895v12.847c0,0.99,0.988,0.99,0.988,0.99c0.988,0,1.976,0,2.964-0.99V371.06L2747.6,371.06z
			 M2738.706,360.189c-3.953,0.988-7.906,2.965-7.906,5.93c0,1.977,1.976,2.967,3.952,2.967c0.989,0,2.964,0,3.953-1.978V360.189
			L2738.706,360.189z"/>
		<path fill-rule="evenodd" clip-rule="evenodd" fill="#FFFFFF" d="M2788.118,354.26c-2.965-1.977-4.941-2.964-6.917-2.964
			c-4.941,0-7.907,2.964-7.907,8.893c0,4.942,2.966,7.906,8.895,7.906c1.976,0,3.954,0,5.93-1.977v4.941
			c-0.989,0.988-4.941,1.977-6.917,1.977c-7.907,0-12.847-4.941-12.847-12.848c0-7.906,4.94-13.835,11.858-13.835
			c2.965,0,4.942,0.989,7.906,1.977V354.26L2788.118,354.26z"/>
		<path fill-rule="evenodd" clip-rule="evenodd" fill="#FFFFFF" d="M2822.707,359.201l12.848,12.847h-6.919l-12.847-12.847
			l11.859-11.859h5.93L2822.707,359.201L2822.707,359.201z M2810.848,334.495h4.941v37.554h-4.941V334.495L2810.848,334.495z"/>
		<path fill-rule="evenodd" clip-rule="evenodd" fill="#FFFFFF" d="M2860.26,349.318c1.977-1.976,3.953-2.965,6.919-2.965
			c5.929,0,10.87,5.93,10.87,12.848c0,8.894-4.941,13.835-13.835,13.835c-2.964,0-6.918-0.988-8.894-1.977v-36.565h4.941V349.318
			L2860.26,349.318z M2860.26,367.108c0.989,0.988,2.966,0.988,4.941,0.988c4.941,0,7.906-2.964,7.906-7.906
			c0-5.929-2.965-8.893-6.917-8.893c-1.977,0-3.953,0.988-5.93,2.964V367.108L2860.26,367.108z"/>
		<path fill-rule="evenodd" clip-rule="evenodd" fill="#FFFFFF" d="M2926.472,359.201c0,7.906-5.929,13.835-13.835,13.835
			c-7.905,0-13.835-5.929-13.835-13.835c0-6.918,5.93-12.848,13.835-12.848C2920.543,346.353,2926.472,352.283,2926.472,359.201
			L2926.472,359.201z M2903.744,359.201c0,5.93,3.952,8.894,8.893,8.894c4.942,0,8.895-2.964,8.895-8.894
			c0-4.941-3.952-7.906-8.895-7.906C2907.696,351.296,2903.744,354.26,2903.744,359.201L2903.744,359.201z"/>
		<path fill-rule="evenodd" clip-rule="evenodd" fill="#FFFFFF" d="M2968.967,371.06c-2.964,0.988-3.953,1.977-4.941,1.977
			c-1.976,0-3.952-0.988-3.952-2.964c-1.977,1.976-4.942,2.964-6.918,2.964c-3.953,0-5.929-2.964-5.929-5.929
			c0-4.942,3.952-6.919,7.906-7.906l4.942-1.977v-0.988c0-3.954-1.977-4.941-4.942-4.941c-2.964,0-4.94,0.988-7.906,3.952v-4.941
			c1.977-1.977,4.942-3.954,8.894-3.954c4.941,0,8.894,2.965,8.894,8.895v12.847c0,0.99,0,0.99,0.989,0.99s1.977,0,2.964-0.99
			V371.06L2968.967,371.06z M2960.073,360.189c-3.953,0.988-7.906,2.965-7.906,5.93c0,1.977,0.988,2.967,2.964,2.967
			c1.978,0,3.954,0,4.942-1.978V360.189L2960.073,360.189z"/>
		<path fill-rule="evenodd" clip-rule="evenodd" fill="#FFFFFF" d="M2995.65,347.342v5.928l0,0c2.966-4.941,4.941-6.917,6.917-6.917
			c2.964,0,4.941,0.989,6.918,2.965l-2.965,4.941c-1.976-1.977-3.953-2.964-4.941-2.964c-2.963,0-5.929,3.952-5.929,7.906v12.847
			h-4.941v-24.706H2995.65L2995.65,347.342z"/>
		<path fill-rule="evenodd" clip-rule="evenodd" fill="#FFFFFF" d="M3050.992,372.048h-10.871c-7.905,0-12.846-4.941-12.846-12.847
			c0-6.918,5.93-12.848,12.846-12.848c1.977,0,3.954,0.989,5.93,0.989v-12.848h4.941V372.048L3050.992,372.048z M3046.05,352.283
			c-1.976-0.988-2.965-0.988-4.94-0.988c-4.942,0-7.906,2.964-7.906,8.893c0,4.942,1.976,7.906,7.906,7.906h4.94V352.283
			L3046.05,352.283z"/>
		<path fill-rule="evenodd" clip-rule="evenodd" fill="#231F20" d="M2708.071,138.822c0-37.553-28.659-22.729-28.659-35.577
			c0-4.942,2.965-3.953,4.94-3.953c0.99,0,2.965,0.988,15.813,0.988c23.718,0,46.447-0.988,69.177-0.988
			c67.202,0,67.202,40.519,67.202,46.448c0,17.788-9.882,32.612-29.648,38.541v0.988c33.601,7.906,43.482,22.73,43.482,47.436
			c0,36.566-24.706,59.295-69.177,59.295c-40.519,0-54.353-0.989-68.188-0.989c-6.918,0-13.837,0.989-19.766,0.989
			c-5.931,0-8.896,0-8.896-3.952c0-8.895,23.719-1.977,23.719-28.66V138.822L2708.071,138.822z M2741.671,168.469
			c0,12.847,2.965,14.824,18.777,15.812h15.812c20.751,0,28.659-10.87,28.659-30.635c0-25.694-19.766-42.494-44.471-42.494
			c-17.789,0-18.777,9.881-18.777,25.694V168.469L2741.671,168.469z M2741.671,247.53c0,25.694,6.919,33.599,33.6,33.599
			c26.683,0,40.519-17.788,40.519-44.47c0-15.813-7.906-40.518-57.318-40.518c-15.812,0-16.8,6.917-16.8,20.753V247.53
			L2741.671,247.53z"/>
		<path fill-rule="evenodd" clip-rule="evenodd" fill="#231F20" d="M2911.649,125.976c0-19.766-16.8-7.908-16.8-17.789
			c0-6.917,12.846-2.965,38.542-18.776c1.978-0.988,2.965-1.977,4.941-1.977c2.965,0,1.977,5.93,1.977,7.906v107.718
			c10.87-9.883,22.729-18.777,36.564-18.777c31.624,0,43.483,27.67,43.483,46.446c0,41.509-23.718,63.249-57.318,63.249
			c-24.707,0-32.612-10.87-36.566-10.87c-4.941,0-7.906,10.87-13.835,10.87c-1.976,0-2.964-0.988-2.964-2.965
			c0-1.976,1.977-7.905,1.977-21.74V125.976L2911.649,125.976z M2940.309,256.423c0,22.73,20.752,27.671,28.658,27.671
			c22.73,0,27.671-21.742,27.671-39.529c0-20.753-9.882-40.518-35.577-40.518c-7.906,0-20.752,4.941-20.752,14.824V256.423
			L2940.309,256.423z"/>
		<polygon fill-rule="evenodd" clip-rule="evenodd" fill="#231F20" points="2666.563,418.496 2671.505,404.661 2676.448,404.661 
			2667.553,427.39 2665.576,427.39 2659.646,411.578 2653.717,427.39 2652.729,427.39 2643.835,404.661 2647.788,404.661 
			2653.717,418.496 2658.658,404.661 2661.623,404.661 2666.563,418.496 		"/>
		<polygon fill-rule="evenodd" clip-rule="evenodd" fill="#231F20" points="2700.164,418.496 2705.106,404.661 2709.059,404.661 
			2700.164,427.39 2699.176,427.39 2693.247,411.578 2687.316,427.39 2686.33,427.39 2677.435,404.661 2681.388,404.661 
			2686.33,418.496 2691.27,404.661 2694.235,404.661 2700.164,418.496 		"/>
		<polygon fill-rule="evenodd" clip-rule="evenodd" fill="#231F20" points="2732.776,418.496 2737.717,404.661 2742.659,404.661 
			2733.764,427.39 2732.776,427.39 2726.848,411.578 2720.917,427.39 2718.941,427.39 2710.046,404.661 2714.987,404.661 
			2719.929,418.496 2724.872,404.661 2727.835,404.661 2732.776,418.496 		"/>
		<path fill-rule="evenodd" clip-rule="evenodd" fill="#231F20" d="M2748.59,424.425c0,0.988-0.99,2.965-2.966,2.965
			c-0.988,0-2.965-1.977-2.965-2.965c0-1.977,1.977-2.965,2.965-2.965C2747.6,421.461,2748.59,422.449,2748.59,424.425
			L2748.59,424.425z"/>
		<path fill-rule="evenodd" clip-rule="evenodd" fill="#231F20" d="M2758.471,410.59c1.977-1.977,2.964-1.977,4.941-1.977
			c2.964,0,4.941,2.964,4.941,6.918c0,4.941-1.977,7.906-5.93,7.906c-0.989,0-2.966-0.988-3.953-0.988V410.59L2758.471,410.59z
			 M2758.471,392.802h-3.952v32.611c1.976,0.988,4.94,1.977,6.917,1.977c6.919,0,10.871-4.941,10.871-11.859
			c0-6.918-2.965-10.87-7.906-10.87c-2.965,0-3.952,0-5.929,1.977V392.802L2758.471,392.802z"/>
		<polygon fill-rule="evenodd" clip-rule="evenodd" fill="#231F20" points="2778.235,392.802 2782.189,392.802 2782.189,426.401 
			2778.235,426.401 2778.235,392.802 		"/>
		<path fill-rule="evenodd" clip-rule="evenodd" fill="#231F20" d="M2798.001,422.449c-0.99,0.988-2.965,1.977-3.953,1.977
			c-1.977,0-2.965-1.977-2.965-2.965c0-2.964,2.965-3.955,6.918-5.929V422.449L2798.001,422.449z M2804.919,422.449
			c-0.989,0.988-1.977,1.977-2.966,1.977c0,0,0-0.988,0-1.977v-10.871c0-4.94-3.952-6.917-7.905-6.917
			c-2.965,0-4.941,0.988-5.93,2.964v3.952c0.988-1.976,3.952-2.964,5.93-2.964c1.976,0,3.953,0.988,3.953,3.953v0.989l-3.953,0.988
			c-2.965,1.977-6.919,2.963-6.919,6.917c0,2.965,1.977,5.93,4.941,5.93c1.977,0,3.953-0.989,5.93-1.977
			c0,0.988,0.988,1.977,2.964,1.977c0.988,0,1.977-0.989,3.954-1.977V422.449L2804.919,422.449z"/>
		<path fill-rule="evenodd" clip-rule="evenodd" fill="#231F20" d="M2823.697,410.59c-1.978-1.977-3.954-1.977-4.943-1.977
			c-3.953,0-6.917,2.964-6.917,6.918c0,4.941,2.964,7.906,6.917,7.906c1.977,0,3.953-0.988,5.93-1.977v4.941
			c-1.977,0-3.954,0.989-5.93,0.989c-6.917,0-10.871-4.941-10.871-10.87c0-7.906,3.953-11.859,9.883-11.859
			c2.964,0,3.952,0,5.93,0.988V410.59L2823.697,410.59z"/>
		<path fill-rule="evenodd" clip-rule="evenodd" fill="#231F20" d="M2838.52,415.532l10.871,10.87h-5.93l-9.883-10.87l8.895-10.87
			h4.941L2838.52,415.532L2838.52,415.532z M2829.625,392.802h3.952v33.599h-3.952V392.802L2829.625,392.802z"/>
		<path fill-rule="evenodd" clip-rule="evenodd" fill="#231F20" d="M2856.307,410.59c0.988-1.977,2.965-1.977,3.953-1.977
			c3.953,0,5.93,2.964,5.93,6.918c0,4.941-2.965,7.906-5.93,7.906c-0.988,0-2.965-0.988-3.953-0.988V410.59L2856.307,410.59z
			 M2856.307,392.802h-3.952v32.611c1.977,0.988,4.94,1.977,6.917,1.977c6.918,0,10.871-4.941,10.871-11.859
			c0-6.918-3.953-10.87-8.894-10.87c-1.977,0-3.954,0-4.941,1.977V392.802L2856.307,392.802z"/>
		<path fill-rule="evenodd" clip-rule="evenodd" fill="#231F20" d="M2884.967,408.614c3.952,0,6.917,2.964,6.917,6.918
			c0,4.941-2.964,7.906-6.917,7.906c-3.953,0-6.919-2.964-6.919-7.906C2878.048,411.578,2881.014,408.614,2884.967,408.614
			L2884.967,408.614z M2884.967,404.661c-5.93,0-10.871,4.941-10.871,10.87c0,6.917,4.941,11.859,10.871,11.859
			c6.917,0,10.87-4.941,10.87-11.859C2895.837,408.614,2890.896,404.661,2884.967,404.661L2884.967,404.661z"/>
		<path fill-rule="evenodd" clip-rule="evenodd" fill="#231F20" d="M2909.673,422.449c-0.99,0.988-1.977,1.977-2.965,1.977
			c-1.976,0-2.964-1.977-2.964-2.965c0-2.964,2.964-3.955,5.929-5.929V422.449L2909.673,422.449z M2916.591,422.449
			c-0.989,0.988-0.989,1.977-1.977,1.977c0,0-0.988-0.988-0.988-1.977v-10.871c0-4.94-2.965-6.917-6.918-6.917
			c-2.964,0-4.941,0.988-6.918,2.964v3.952c1.977-1.976,4.942-2.964,6.918-2.964c1.975,0,2.965,0.988,2.965,3.953v0.989
			l-2.965,0.988c-2.964,1.977-6.918,2.963-6.918,6.917c0,2.965,1.977,5.93,4.942,5.93c1.976,0,3.951-0.989,4.941-1.977
			c0.988,0.988,1.977,1.977,2.964,1.977c1.977,0,1.977-0.989,3.954-1.977V422.449L2916.591,422.449z"/>
		<path fill-rule="evenodd" clip-rule="evenodd" fill="#231F20" d="M2925.485,404.661v4.941l0,0c1.976-3.953,3.952-4.941,5.93-4.941
			c1.977,0,2.964,0,4.941,1.977l-1.977,3.952c-0.988-0.988-2.964-1.977-3.952-1.977c-2.966,0-4.942,2.964-4.942,6.918v10.87h-3.953
			v-21.74H2925.485L2925.485,404.661z"/>
		<path fill-rule="evenodd" clip-rule="evenodd" fill="#231F20" d="M2953.156,423.437h-3.953c-4.941,0-5.93-2.964-5.93-7.906
			c0-3.954,1.977-6.918,5.93-6.918c0.989,0,2.965,0,3.953,0V423.437L2953.156,423.437z M2957.109,392.802h-3.954v12.846
			c-1.977-0.988-2.964-0.988-3.953-0.988c-5.93,0-9.883,3.952-9.883,10.87c0,6.917,2.964,10.87,8.895,10.87h8.895V392.802
			L2957.109,392.802z"/>
		<path fill-rule="evenodd" clip-rule="evenodd" fill="#231F20" d="M2967.98,424.425c0,0.988-0.988,2.965-1.977,2.965
			c-1.977,0-2.965-1.977-2.965-2.965c0-1.977,0.988-2.965,2.965-2.965C2966.992,421.461,2967.98,422.449,2967.98,424.425
			L2967.98,424.425z"/>
		<path fill-rule="evenodd" clip-rule="evenodd" fill="#231F20" d="M2988.732,410.59c-1.977-1.977-2.964-1.977-4.943-1.977
			c-3.95,0-5.928,2.964-5.928,6.918c0,4.941,1.978,7.906,6.919,7.906c0.988,0,2.964-0.988,4.941-1.977v4.941
			c-0.988,0-3.952,0.989-5.931,0.989c-5.928,0-9.881-4.941-9.881-10.87c0-7.906,2.965-11.859,9.881-11.859
			c1.979,0,2.966,0,4.943,0.988V410.59L2988.732,410.59z"/>
		<path fill-rule="evenodd" clip-rule="evenodd" fill="#231F20" d="M3004.545,408.614c3.952,0,6.917,2.964,6.917,6.918
			c0,4.941-2.965,7.906-6.917,7.906c-3.954,0-6.918-2.964-6.918-7.906C2997.627,411.578,3000.591,408.614,3004.545,408.614
			L3004.545,408.614z M3004.545,404.661c-5.929,0-10.871,4.941-10.871,10.87c0,6.917,4.942,11.859,10.871,11.859
			c5.928,0,10.87-4.941,10.87-11.859C3015.415,408.614,3010.473,404.661,3004.545,404.661L3004.545,404.661z"/>
		<path fill-rule="evenodd" clip-rule="evenodd" fill="#231F20" d="M3024.309,404.661v2.964c1.976-1.977,3.953-2.964,5.93-2.964
			c2.965,0,4.941,0.988,5.93,3.952c1.976-2.965,3.952-3.952,6.917-3.952c3.953,0,6.918,2.964,6.918,7.906v13.835h-3.953v-12.846
			c0-3.954-1.976-5.93-3.953-5.93c-1.977,0-2.965,1.977-4.941,2.965v15.811h-3.952v-12.846c0-3.954-1.976-5.93-3.953-5.93
			c-1.977,0-2.966,0.988-4.941,2.965v15.811h-3.953v-21.74H3024.309L3024.309,404.661z"/>
	</g>
</g>
<g id="SLS">
	<rect x="3120" fill="#FFFFFF" width="500" height="500"/>
	<text transform="matrix(1 0 0 1 3304.8418 185.3135)"><tspan x="0" y="0" fill="#534741" font-family="'Arial-Black'" font-size="82.9639">Social</tspan><tspan x="-115.291" y="99.557" fill="#534741" font-family="'Arial-Black'" font-size="82.9639">Learning</tspan><tspan x="-0.081" y="199.113" fill="#534741" font-family="'Arial-Black'" font-size="82.9639">Space</tspan></text>
	<rect x="3160" y="40" fill-rule="evenodd" clip-rule="evenodd" fill="#00A99D" width="14" height="420"/>
</g>
</svg>
