<?xml version="1.0" encoding="utf-8"?>
<!-- Generator: Adobe Illustrator 17.0.0, SVG Export Plug-In . SVG Version: 6.00 Build 0)  -->
<!DOCTYPE svg PUBLIC "-//W3C//DTD SVG 1.1//EN" "http://www.w3.org/Graphics/SVG/1.1/DTD/svg11.dtd">
<svg version="1.1" xmlns="http://www.w3.org/2000/svg" xmlns:xlink="http://www.w3.org/1999/xlink" x="0px" y="0px" viewBox="0 0 500 500" enable-background="new 0 0 500 500" xml:space="preserve">
<g id="Guides">
</g>
<g id="Pinterest">
</g>
<g id="Prezi">
</g>
<g id="SkyDrive">
</g>
<g id="Dropbox">
</g>
<g id="Drive">
</g>
<g id="Copy">
</g>
<g id="Snaggy">
	<rect fill="#FFFFFF" width="500" height="500"/>
	<rect x="40" y="40" fill="#2C3034" width="420" height="420"/>
	<g>
		<path fill="#E6FDFF" d="M111.769,225.439c-0.712-5.339-3.797-7.712-10.441-7.712c-6.288,0-9.61,1.305-9.61,4.983
			c0,3.204,3.322,4.865,9.492,6.526c20.408,5.577,27.053,6.645,27.053,20.29c0,10.441-8.899,18.154-25.867,18.154
			c-16.729,0-27.527-7.95-27.764-20.29h15.898c0,5.458,4.865,8.661,11.747,8.661c5.813,0,10.679-1.779,10.679-5.576
			c0-4.271-3.085-5.695-9.373-7.119c-22.663-4.983-26.816-10.797-26.816-20.646c0-8.78,6.764-16.493,25.036-16.493
			c16.729,0,24.087,7.238,24.798,19.222H111.769z"/>
		<path fill="#E6FDFF" d="M169.434,266.136v-35.358c0-9.018-2.609-11.509-9.967-11.509c-8.068,0-11.983,4.509-11.983,13.408v33.46
			h-15.425V207.76h14.713v8.543c3.56-6.526,9.492-10.085,18.865-10.085c11.154,0,19.341,6.763,19.341,19.459v40.46H169.434z"/>
		<path fill="#E6FDFF" d="M227.692,266.136c-0.475-1.424-0.831-3.441-0.949-5.221c-3.679,4.034-9.849,6.764-17.679,6.764
			c-13.289,0-19.459-6.526-19.459-16.019c0-16.849,11.271-18.747,26.814-20.883c7.713-1.068,9.849-2.61,9.849-6.645
			c0-3.797-3.797-6.051-9.849-6.051c-7,0-9.848,3.441-10.56,8.662h-14.356c0.236-12.103,6.881-20.527,25.629-20.527
			c18.51,0,24.916,8.306,24.916,23.019v36.901H227.692z M226.625,237.541c-1.543,1.543-4.271,2.373-9.967,3.441
			c-8.781,1.661-11.629,4.152-11.629,9.137c0,4.39,2.611,6.525,7.476,6.525c7.95,0,13.882-5.814,14.001-12.695L226.625,237.541z"/>
		<path fill="#E6FDFF" d="M288.916,258.305c-2.135,5.221-8.424,8.306-16.018,8.306c-19.222,0-25.866-14.713-25.866-30.02
			c0-18.153,11.391-30.375,25.511-30.375c7.355,0,12.695,2.848,16.373,8.78v-7.238h15.426v58.971
			c0,17.561-12.814,27.053-29.07,27.053s-28.239-9.374-28.239-24.443h14.356c0,7.001,5.103,11.154,12.814,11.154
			c8.188,0,14.713-4.865,14.713-12.578V258.305z M289.391,238.372c0-12.696-4.39-18.747-13.17-18.747
			c-8.662,0-13.17,5.814-13.17,17.798c0,10.441,5.576,17.086,13.17,17.086C283.695,254.509,289.391,248.22,289.391,238.372z"/>
		<path fill="#8FD3FF" d="M351.209,258.305c-2.135,5.221-8.424,8.306-16.018,8.306c-19.222,0-25.866-14.713-25.866-30.02
			c0-18.153,11.391-30.375,25.511-30.375c7.355,0,12.695,2.848,16.373,8.78v-7.238h15.426v58.971
			c0,17.561-12.814,27.053-29.07,27.053s-28.239-9.374-28.239-24.443h14.356c0,7.001,5.103,11.154,12.814,11.154
			c8.188,0,14.713-4.865,14.713-12.578V258.305z M351.684,238.372c0-12.696-4.39-18.747-13.17-18.747
			c-8.662,0-13.17,5.814-13.17,17.798c0,10.441,5.576,17.086,13.17,17.086C345.988,254.509,351.684,248.22,351.684,238.372z"/>
		<path fill="#8FD3FF" d="M409.943,258.424c-2.135,5.221-8.543,8.307-15.78,8.307c-12.222,0-21.357-8.307-21.357-21.121v-37.85
			h15.425v35.596c0,7.238,3.322,10.916,9.848,10.916c7.001,0,11.865-4.627,11.865-10.916V207.76h15.426v59.92
			c0,16.492-11.865,26.104-26.816,26.104c-17.086,0-25.747-9.374-25.747-24.443h14.356c0,6.883,4.035,11.154,12.104,11.154
			c5.576,0,10.678-4.865,10.678-12.578V258.424z"/>
	</g>
</g>
<g id="Blackboard">
</g>
<g id="SLS">
</g>
</svg>
